# author: headus 3D tools
#  using: ply2obj v1.12
#   from: uvlayout v2024.02
# 56 vertices
v -0.07237500 0.97223699 0.07237500
v 0.07237503 0.97223699 0.07237500
v -0.07237500 1.11698702 0.07237500
v 0.07237503 1.11698702 0.07237500
v -0.07237500 1.11698702 -0.07237399
v 0.07237503 1.11698702 -0.07237399
v -0.07237500 0.97223699 -0.07237399
v 0.07237503 0.97223699 -0.07237399
v -0.07237500 1.15992199 0.07237500
v 0.07237503 1.15992199 0.07237500
v 0.07237503 1.15992199 -0.07237399
v -0.07237500 1.15992199 -0.07237399
v -0.07237500 1.11698702 -0.33036400
v 0.07237503 1.11698702 -0.33036400
v -0.07237500 1.15992199 -0.33036400
v 0.07237503 1.15992199 -0.33036400
v -0.07237500 1.11698702 -0.37922804
v 0.07237503 1.11698702 -0.37922804
v -0.07237500 1.15992199 -0.37922804
v 0.07237503 1.15992199 -0.37922804
v -0.07237500 0.48914099 -0.35806004
v 0.07237503 0.48914099 -0.35806004
v -0.07237500 0.46144495 -0.37922804
v 0.07237503 0.46144495 -0.37922804
v 0.08758000 0.37226707 -0.15169300
v -0.08758000 0.37226707 -0.15169300
v -0.17516000 0.37226707 -0.00000000
v -0.08758000 0.37226707 0.15169300
v 0.08758000 0.37226707 0.15169300
v 0.17516000 0.37226707 -0.00000000
v 0.15169300 0.50049299 -0.26274002
v -0.15169300 0.50049299 -0.26274002
v -0.30338700 0.50049299 -0.00000000
v -0.15169300 0.50049299 0.26274000
v 0.15169300 0.50049299 0.26274000
v 0.30338700 0.50049299 -0.00000000
v 0.17516000 0.67565401 -0.30338600
v -0.17516000 0.67565401 -0.30338700
v -0.35032102 0.67565401 -0.00000000
v -0.17516000 0.67565401 0.30338600
v 0.17516000 0.67565401 0.30338700
v 0.35032100 0.67565401 -0.00000000
v 0.15169300 0.85081399 -0.26274002
v -0.15169300 0.85081399 -0.26274002
v -0.30338700 0.85081399 -0.00000000
v -0.15169300 0.85081399 0.26274000
v 0.15169300 0.85081399 0.26274000
v 0.30338700 0.85081399 -0.00000000
v 0.08758000 0.97904002 -0.15169300
v -0.08758000 0.97904002 -0.15169300
v -0.17516000 0.97904002 -0.00000000
v -0.08758000 0.97904002 0.15169300
v 0.08758000 0.97904002 0.15169300
v 0.17516000 0.97904002 -0.00000000
v 0.00000000 0.32533299 -0.00000000
v 0.00000000 1.02597403 -0.00000000
# 196 normals
vn 0.000000 0.000000 1.000000
vn 0.000000 0.000000 1.000000
vn 0.000000 0.000000 1.000000
vn 0.000000 0.000000 1.000000
vn 0.000000 1.000000 0.000000
vn 0.000000 1.000000 0.000000
vn 0.000000 1.000000 0.000000
vn 0.000000 1.000000 0.000000
vn 0.000000 0.000000 -1.000000
vn 0.000000 0.000000 -1.000000
vn 0.000000 0.000000 -1.000000
vn 0.000000 0.000000 -1.000000
vn 0.000000 -1.000000 0.000000
vn 0.000000 -1.000000 0.000000
vn 0.000000 -1.000000 0.000000
vn 0.000000 -1.000000 0.000000
vn 1.000000 0.000000 0.000000
vn 1.000000 0.000000 0.000000
vn 1.000000 0.000000 0.000000
vn 1.000000 0.000000 0.000000
vn -1.000000 0.000000 0.000000
vn -1.000000 0.000000 0.000000
vn -1.000000 0.000000 0.000000
vn -1.000000 0.000000 0.000000
vn 0.000000 0.000000 1.000000
vn 0.000000 0.000000 1.000000
vn 1.000000 0.000000 0.000000
vn 1.000000 0.000000 0.000000
vn 0.000000 0.000000 -1.000000
vn 0.000000 0.000000 -1.000000
vn 0.000000 0.000000 -1.000000
vn 0.000000 0.000000 -1.000000
vn -1.000000 0.000000 0.000000
vn -1.000000 0.000000 0.000000
vn 0.000000 -1.000000 0.000000
vn 0.000000 -1.000000 0.000000
vn 0.000000 -1.000000 0.000000
vn 0.000000 -1.000000 0.000000
vn -1.000000 0.000000 0.000000
vn -1.000000 0.000000 0.000000
vn 0.000000 1.000000 0.000000
vn 0.000000 1.000000 0.000000
vn 1.000000 0.000000 0.000000
vn 1.000000 0.000000 0.000000
vn 0.000000 -0.607245 0.794482
vn 0.000000 -0.607245 0.794482
vn 0.000000 -0.607245 0.794482
vn 0.000000 -0.607245 0.794482
vn -1.000000 0.000000 0.000000
vn -1.000000 0.000000 0.000000
vn 0.000000 1.000000 0.000000
vn 0.000000 1.000000 0.000000
vn 1.000000 0.000000 0.000000
vn 1.000000 0.000000 0.000000
vn 0.000000 -0.044040 0.999023
vn 0.000000 -0.044040 0.999023
vn 0.000000 -0.044040 0.999023
vn 0.000000 -0.044040 0.999023
vn -1.000000 0.000000 0.000000
vn -1.000000 0.000000 0.000000
vn 0.000000 0.000000 -1.000000
vn 0.000000 0.000000 -1.000000
vn 1.000000 0.000000 0.000000
vn 1.000000 0.000000 0.000000
vn 0.000000 -0.654581 -0.755844
vn 0.000000 -0.654581 -0.755844
vn 0.000000 -0.654581 -0.755844
vn 0.000000 -0.654581 -0.755844
vn -0.654581 -0.654581 -0.377922
vn -0.654581 -0.654581 -0.377922
vn -0.654581 -0.654581 -0.377922
vn -0.654581 -0.654581 -0.377922
vn -0.654581 -0.654581 0.377922
vn -0.654581 -0.654581 0.377922
vn -0.654581 -0.654581 0.377922
vn -0.654581 -0.654581 0.377922
vn 0.000000 -0.654581 0.755844
vn 0.000000 -0.654581 0.755844
vn 0.000000 -0.654581 0.755844
vn 0.000000 -0.654581 0.755844
vn 0.654581 -0.654581 0.377922
vn 0.654581 -0.654581 0.377922
vn 0.654581 -0.654581 0.377922
vn 0.654581 -0.654581 0.377922
vn 0.654581 -0.654581 -0.377922
vn 0.654581 -0.654581 -0.377922
vn 0.654581 -0.654581 -0.377922
vn 0.654581 -0.654581 -0.377922
vn 0.000000 -0.226027 -0.974028
vn 0.000000 -0.226027 -0.974028
vn 0.000000 -0.226027 -0.974028
vn 0.000000 -0.226027 -0.974028
vn -0.843588 -0.226027 -0.486968
vn -0.843588 -0.226027 -0.486968
vn -0.843588 -0.226027 -0.486968
vn -0.843588 -0.226027 -0.486968
vn -0.843588 -0.226027 0.486968
vn -0.843588 -0.226027 0.486968
vn -0.843588 -0.226027 0.486968
vn -0.843588 -0.226027 0.486968
vn 0.000000 -0.226027 0.974028
vn 0.000000 -0.226027 0.974028
vn 0.000000 -0.226027 0.974028
vn 0.000000 -0.226027 0.974028
vn 0.843588 -0.226027 0.486968
vn 0.843588 -0.226027 0.486968
vn 0.843588 -0.226027 0.486968
vn 0.843588 -0.226027 0.486968
vn 0.843588 -0.226027 -0.486968
vn 0.843588 -0.226027 -0.486968
vn 0.843588 -0.226027 -0.486968
vn 0.843588 -0.226027 -0.486968
vn 0.000000 0.226027 -0.974028
vn 0.000000 0.226027 -0.974028
vn 0.000000 0.226027 -0.974028
vn 0.000000 0.226027 -0.974028
vn -0.843588 0.226027 -0.486968
vn -0.843588 0.226027 -0.486968
vn -0.843588 0.226027 -0.486968
vn -0.843588 0.226027 -0.486968
vn -0.843588 0.226027 0.486968
vn -0.843588 0.226027 0.486968
vn -0.843588 0.226027 0.486968
vn -0.843588 0.226027 0.486968
vn 0.000000 0.226027 0.974028
vn 0.000000 0.226027 0.974028
vn 0.000000 0.226027 0.974028
vn 0.000000 0.226027 0.974028
vn 0.843588 0.226027 0.486968
vn 0.843588 0.226027 0.486968
vn 0.843588 0.226027 0.486968
vn 0.843588 0.226027 0.486968
vn 0.843588 0.226027 -0.486968
vn 0.843588 0.226027 -0.486968
vn 0.843588 0.226027 -0.486968
vn 0.843588 0.226027 -0.486968
vn 0.000000 0.654581 -0.755844
vn 0.000000 0.654581 -0.755844
vn 0.000000 0.654581 -0.755844
vn 0.000000 0.654581 -0.755844
vn -0.654581 0.654581 -0.377922
vn -0.654581 0.654581 -0.377922
vn -0.654581 0.654581 -0.377922
vn -0.654581 0.654581 -0.377922
vn -0.654581 0.654581 0.377922
vn -0.654581 0.654581 0.377922
vn -0.654581 0.654581 0.377922
vn -0.654581 0.654581 0.377922
vn 0.000000 0.654581 0.755844
vn 0.000000 0.654581 0.755844
vn 0.000000 0.654581 0.755844
vn 0.000000 0.654581 0.755844
vn 0.654581 0.654581 0.377922
vn 0.654581 0.654581 0.377922
vn 0.654581 0.654581 0.377922
vn 0.654581 0.654581 0.377922
vn 0.654581 0.654581 -0.377922
vn 0.654581 0.654581 -0.377922
vn 0.654581 0.654581 -0.377922
vn 0.654581 0.654581 -0.377922
vn 0.000000 -0.955228 -0.295489
vn 0.000000 -0.955228 -0.295489
vn 0.000000 -0.955228 -0.295489
vn -0.255906 -0.955228 -0.147714
vn -0.255906 -0.955228 -0.147714
vn -0.255906 -0.955228 -0.147714
vn -0.255906 -0.955228 0.147714
vn -0.255906 -0.955228 0.147714
vn -0.255906 -0.955228 0.147714
vn 0.000000 -0.955228 0.295489
vn 0.000000 -0.955228 0.295489
vn 0.000000 -0.955228 0.295489
vn 0.255906 -0.955228 0.147714
vn 0.255906 -0.955228 0.147714
vn 0.255906 -0.955228 0.147714
vn 0.255906 -0.955228 -0.147714
vn 0.255906 -0.955228 -0.147714
vn 0.255906 -0.955228 -0.147714
vn 0.000000 0.955228 -0.295489
vn 0.000000 0.955228 -0.295489
vn 0.000000 0.955228 -0.295489
vn -0.255906 0.955228 -0.147714
vn -0.255906 0.955228 -0.147714
vn -0.255906 0.955228 -0.147714
vn -0.255906 0.955228 0.147714
vn -0.255906 0.955228 0.147714
vn -0.255906 0.955228 0.147714
vn 0.000000 0.955228 0.295489
vn 0.000000 0.955228 0.295489
vn 0.000000 0.955228 0.295489
vn 0.255906 0.955228 0.147714
vn 0.255906 0.955228 0.147714
vn 0.255906 0.955228 0.147714
vn 0.255906 0.955228 -0.147714
vn 0.255906 0.955228 -0.147714
vn 0.255906 0.955228 -0.147714
# 104 uv coords
vt 0.679224 0.816093
vt 0.770381 0.816092
vt 0.313573 0.655427
vt 0.404729 0.655427
vt 0.647096 0.904464
vt 0.802509 0.904462
vt 0.281444 0.743797
vt 0.436858 0.743797
vt 0.367315 0.093262
vt 0.522730 0.093262
vt 0.367315 0.367501
vt 0.522730 0.367501
vt 0.399446 0.181632
vt 0.490602 0.181632
vt 0.399446 0.455871
vt 0.490602 0.455871
vt 0.620350 0.994956
vt 0.454294 0.882118
vt 0.521988 0.803351
vt 0.615798 0.748266
vt 0.829256 0.994954
vt 0.724802 0.728532
vt 0.927616 0.803348
vt 0.995311 0.882114
vt 0.833806 0.748265
vt 0.561964 0.642683
vt 0.629659 0.721449
vt 0.463604 0.834289
vt 0.468155 0.587600
vt 0.254697 0.834289
vt 0.359151 0.567867
vt 0.088642 0.721450
vt 0.156337 0.642684
vt 0.250148 0.587600
vt 0.647836 0.468614
vt 0.554027 0.523698
vt 0.549475 0.277008
vt 0.715530 0.389848
vt 0.445025 0.543431
vt 0.340568 0.277010
vt 0.336021 0.523699
vt 0.242210 0.468616
vt 0.174515 0.389851
vt 0.336020 0.249459
vt 0.242210 0.194375
vt 0.174515 0.115609
vt 0.340569 0.002770
vt 0.445024 0.269192
vt 0.549475 0.002770
vt 0.647837 0.194375
vt 0.554028 0.249459
vt 0.715531 0.115609
vt 0.821924 0.662372
vt 0.962915 0.662299
vt 0.962809 0.685778
vt 0.822001 0.685820
vt 0.742983 0.686288
vt 0.742854 0.662845
vt 0.989626 0.662633
vt 0.989436 0.686024
vt 0.742382 0.583796
vt 0.821437 0.583316
vt 0.983854 0.319638
vt 0.995670 0.304709
vt 0.726181 0.360696
vt 0.720221 0.002770
vt 0.732033 0.017701
vt 0.752893 0.360367
vt 0.752995 0.383846
vt 0.726368 0.384087
vt 0.893804 0.383913
vt 0.893883 0.360464
vt 0.972953 0.360936
vt 0.972824 0.384379
vt 0.894368 0.281409
vt 0.973423 0.281887
vt 0.081841 0.664061
vt 0.081849 0.743118
vt 0.002792 0.743120
vt 0.002785 0.664065
vt 0.081838 0.585005
vt 0.002782 0.585009
vt 0.081849 0.766568
vt 0.002792 0.766568
vt 0.081827 0.505950
vt 0.002770 0.505951
vt 0.002779 0.365045
vt 0.081836 0.365050
vt 0.002784 0.021809
vt 0.081840 0.021811
vt 0.002783 0.002770
vt 0.081840 0.002773
vt 0.167712 0.630904
vt 0.088656 0.630904
vt 0.088656 0.551847
vt 0.167712 0.551847
vt 0.088656 0.410942
vt 0.167713 0.410941
vt 0.088656 0.384254
vt 0.167713 0.384252
vt 0.167713 0.360802
vt 0.088656 0.360805
vt 0.088642 0.002774
vt 0.167699 0.002770
# 58 polygons
s 1
g pCube1
f 1/80/1 2/77/2 4/78/3 3/79/4
s 2
f 9/93/5 10/94/6 11/95/7 12/96/8
s off
f 5/86/9 6/85/10 8/81/11 7/82/12
f 7/82/13 8/81/14 2/77/15 1/80/16
s 3
f 2/61/17 8/62/18 6/53/19 4/58/20
s 4
f 7/75/21 1/76/22 3/73/23 5/72/24
s 1
f 3/79/4 4/78/3 10/83/25 9/84/26
s 3
f 4/58/20 6/53/19 11/56/27 10/57/28
s 5
f 18/102/29 17/101/30 19/100/31 20/99/32
s 4
f 5/72/24 3/73/23 9/74/33 12/71/34
s off
f 6/85/35 5/86/36 13/87/37 14/88/38
s 4
f 5/72/24 12/71/34 15/69/39 13/68/40
s 2
f 12/96/8 11/95/7 16/97/41 15/98/42
s 3
f 11/56/27 6/53/19 14/54/43 16/55/44
s off
f 22/90/45 21/89/46 23/91/47 24/92/48
s 4
f 13/68/40 15/69/39 19/70/49 17/65/50
s 2
f 15/98/42 16/97/41 20/99/51 19/100/52
s 3
f 16/55/44 14/54/43 18/59/53 20/60/54
s off
f 14/88/55 13/87/56 21/89/57 22/90/58
s 4
f 13/68/40 17/65/50 23/66/59 21/67/60
s 5
f 17/101/30 18/102/29 24/103/61 23/104/62
s 3
f 18/59/53 14/54/43 22/63/63 24/64/64
s off
g pSphere3
f 25/1/65 26/2/66 32/6/67 31/5/68
f 26/2/69 27/25/70 33/23/71 32/6/72
f 27/34/73 28/3/74 34/7/75 33/33/76
f 28/3/77 29/4/78 35/8/79 34/7/80
f 29/4/81 30/29/82 36/26/83 35/8/84
f 30/20/85 25/1/86 31/5/87 36/19/88
f 31/5/89 32/6/90 38/21/91 37/17/92
f 32/6/93 33/23/94 39/24/95 38/21/96
f 33/33/97 34/7/98 40/30/99 39/32/100
f 34/7/101 35/8/102 41/28/103 40/30/104
f 35/8/105 36/26/106 42/27/107 41/28/108
f 36/19/109 31/5/110 37/17/111 42/18/112
f 37/47/113 38/49/114 44/10/115 43/9/116
f 38/49/117 39/52/118 45/50/119 44/10/120
f 39/43/121 40/40/122 46/11/123 45/42/124
f 40/40/125 41/37/126 47/12/127 46/11/128
f 41/37/129 42/38/130 48/35/131 47/12/132
f 42/46/133 37/47/134 43/9/135 48/45/136
f 43/9/137 44/10/138 50/14/139 49/13/140
f 44/10/141 45/50/142 51/51/143 50/14/144
f 45/42/145 46/11/146 52/15/147 51/41/148
f 46/11/149 47/12/150 53/16/151 52/15/152
f 47/12/153 48/35/154 54/36/155 53/16/156
f 48/45/157 43/9/158 49/13/159 54/44/160
f 26/2/161 25/1/162 55/22/163
f 27/25/164 26/2/165 55/22/166
f 28/3/167 27/34/168 55/31/169
f 29/4/170 28/3/171 55/31/172
f 30/29/173 29/4/174 55/31/175
f 25/1/176 30/20/177 55/22/178
f 49/13/179 50/14/180 56/48/181
f 50/14/182 51/51/183 56/48/184
f 51/41/185 52/15/186 56/39/187
f 52/15/188 53/16/189 56/39/190
f 53/16/191 54/36/192 56/39/193
f 54/44/194 49/13/195 56/48/196
# h3dt: 56 104 196 58
