# This file uses centimeters as units for non-parametric coordinates.

mtllib GnomeHut.mtl
g default
v -0.302811 0.238423 1.581789
v 0.213491 0.238423 1.581791
v 0.213491 0.737353 1.581793
v -0.346549 0.737352 1.581791
v 0.729793 0.238423 1.581789
v 0.773531 0.737353 1.581791
v 0.906489 1.456189 1.581791
v 0.346449 1.456189 1.581793
v 0.812829 2.025466 1.581791
v 0.338007 2.183618 1.581794
v -0.213592 1.456189 1.581791
v -0.131405 2.025466 1.581791
vt 0.546875 0.562500
vt 0.546875 0.437500
vt 0.531250 0.312500
vt 0.546875 0.312500
vt 0.531250 0.437500
vt 0.562500 0.312500
vt 0.562500 0.437500
vt 0.562500 0.562500
vt 0.562500 0.604167
vt 0.546875 0.604167
vt 0.531250 0.604167
vt 0.531250 0.562500
vn -0.000005 -0.000005 1.000000
vn -0.000000 -0.000005 1.000000
vn -0.000000 -0.000002 1.000000
vn -0.000004 -0.000002 1.000000
vn 0.000004 -0.000005 1.000000
vn 0.000004 -0.000002 1.000000
vn 0.000000 -0.000000 1.000000
vn 0.000005 -0.000001 1.000000
vn 0.000006 -0.000001 1.000000
vn -0.000000 -0.000001 1.000000
vn -0.000005 0.000000 1.000000
vn -0.000006 -0.000001 1.000000
s 1
g door
usemtl initialShadingGroup
f 1/3/1 2/4/2 3/2/3 4/5/4
f 2/4/2 5/6/5 6/7/6 3/2/3
f 8/1/7 7/8/8 9/9/9 10/10/10
f 11/12/11 8/1/7 10/10/10 12/11/12
f 3/2/3 6/7/6 7/8/8 8/1/7
f 4/5/4 3/2/3 8/1/7 11/12/11
g default
v 1.245967 2.894454 1.147868
v 1.318540 2.856306 1.117638
v 1.169371 2.900708 1.189460
v 1.100412 2.874116 1.236083
v 1.049590 2.818726 1.280638
v 1.024642 2.742971 1.316342
v 1.029365 2.658384 1.337759
v 1.063041 2.577842 1.341629
v 1.120543 2.513607 1.327364
v 1.193116 2.475459 1.297133
v 1.269712 2.469204 1.255541
v 1.338670 2.495797 1.208918
v 1.389492 2.551187 1.164363
v 1.414441 2.626942 1.128659
v 1.409717 2.711529 1.107242
v 1.376042 2.792071 1.103371
v 1.178882 2.730377 1.232588
v 1.255478 2.724123 1.190995
v 1.260201 2.639536 1.212413
v 1.183605 2.645790 1.254005
vt 0.644356 0.216044
vt 0.610485 0.266735
vt 0.559794 0.300606
vt 0.500000 0.312500
vt 0.440206 0.300606
vt 0.389515 0.266735
vt 0.355644 0.216044
vt 0.343750 0.156250
vt 0.355644 0.096456
vt 0.389515 0.045765
vt 0.440206 0.011894
vt 0.500000 0.000000
vt 0.559794 0.011894
vt 0.610485 0.045765
vt 0.644356 0.096456
vt 0.656250 0.156250
vt 0.491590 0.198531
vt 0.542281 0.164660
vt 0.508410 0.113969
vt 0.457719 0.147840
vn 0.478278 0.240563 0.844618
vn 0.478278 0.240563 0.844618
vn 0.478278 0.240563 0.844618
vn 0.478278 0.240563 0.844618
vn 0.478278 0.240563 0.844618
vn 0.478278 0.240564 0.844618
vn 0.478278 0.240564 0.844618
vn 0.478278 0.240564 0.844618
vn 0.478278 0.240564 0.844618
vn 0.478278 0.240564 0.844618
vn 0.478277 0.240563 0.844618
vn 0.478277 0.240563 0.844618
vn 0.478277 0.240563 0.844618
vn 0.478277 0.240563 0.844618
vn 0.478277 0.240563 0.844618
vn 0.478278 0.240563 0.844618
vn 0.478278 0.240563 0.844618
vn 0.478278 0.240563 0.844618
vn 0.478278 0.240563 0.844618
vn 0.478278 0.240563 0.844618
s off
g window
usemtl initialShadingGroup
f 29/29/13 15/15/14 16/16/15 17/17/16 18/18/17
f 14/13/18 13/14/19 30/30/20 27/27/21 28/28/22
f 32/32/23 19/19/24 20/20/25 21/21/26 22/22/27
f 24/24/28 25/25/29 26/26/30 31/31/31 23/23/32
g default
v 1.788785 0.140459 -0.949547
v 1.414298 0.140459 -1.510007
v 0.853838 0.140459 -1.884495
v 0.192730 0.140459 -2.015998
v -0.468378 0.140459 -1.884496
v -1.028838 0.140459 -1.510008
v -1.403326 0.140459 -0.949548
v -1.534829 0.140459 -0.288440
v -1.403327 0.140459 0.372668
v -1.028839 0.140459 0.933128
v -0.468379 0.140459 1.307616
v 0.192729 0.140459 1.439119
v 0.853837 0.140459 1.307616
v 1.414297 0.140459 0.933129
v 1.788785 0.140459 0.372668
v 1.920288 0.140459 -0.288440
v 2.055596 3.595576 -1.249615
v 1.573078 3.595576 -1.971757
v 0.850937 3.595576 -2.454276
v -0.000886 3.595576 -2.623715
v -0.852710 3.595576 -2.454277
v -1.574851 3.595576 -1.971758
v -2.057371 3.595576 -1.249617
v -2.226810 3.595576 -0.397794
v -2.057371 3.595576 0.454029
v -1.574853 3.595576 1.176171
v -0.852711 3.595576 1.658691
v -0.000888 3.595576 1.828129
v 0.850936 3.595576 1.658691
v 1.573077 3.595576 1.176171
v 2.055596 3.595576 0.454030
v 2.225034 3.595576 -0.397793
v 0.192729 0.140459 -0.288440
v 0.192729 3.595576 -0.288440
v -0.354136 1.515202 -2.019705
v 0.362978 1.515202 -2.162348
v 1.080091 1.515202 -2.019705
v 1.688030 1.515202 -1.613492
v 2.094242 1.515202 -1.005552
v 2.236885 1.515202 -0.288440
v 2.094242 1.515202 0.428674
v 1.688030 1.515202 1.036613
v 1.080090 1.515202 1.442826
v -0.354137 1.515202 1.442826
v -0.962077 1.515202 1.036613
v -1.368289 1.515202 0.428673
v -1.510931 1.515202 -0.288440
v -1.368288 1.515202 -1.005554
v -0.962076 1.515202 -1.613493
v -0.524383 0.703704 -2.019705
v 0.192730 0.703704 -2.162348
v 0.909844 0.703704 -2.019705
v 1.517783 0.703704 -1.613492
v 1.923995 0.703704 -1.005552
v 2.066637 0.703704 -0.288440
v 1.923995 0.703704 0.428674
v 1.517782 0.703704 1.036613
v 0.909843 0.703704 1.442826
v -0.524385 0.703704 1.442826
v -1.132324 0.703704 1.036613
v -1.538536 0.703704 0.428673
v -1.681179 0.703704 -0.288440
v -1.538536 0.703704 -1.005554
v -1.132323 0.703704 -1.613493
v 0.088056 3.157364 1.492797
v -0.621493 3.157364 1.351659
v -1.223019 3.157364 0.949732
v -1.624946 3.157364 0.348206
v -1.766083 3.157364 -0.361343
v -1.624945 3.157364 -1.070891
v -1.223018 3.157364 -1.672417
v -0.621492 3.157364 -2.074344
v 0.088057 3.157364 -2.215481
v 0.797605 3.157364 -2.074342
v 1.399131 3.157364 -1.672416
v 1.801058 3.157364 -1.070889
v 1.942195 3.157364 -0.361342
v 1.801057 3.157364 0.348207
v 1.399130 3.157364 0.949732
v 0.797604 3.157364 1.351659
v 0.352168 2.336399 1.627777
v -0.252363 2.178246 1.479139
v -1.028577 2.336399 1.055853
v -1.451862 2.336399 0.422362
v -1.600500 2.336399 -0.324892
v -1.451861 2.336399 -1.072145
v -1.028576 2.336399 -1.705636
v -0.395085 2.336399 -2.128920
v 0.352169 2.336399 -2.277558
v 1.099422 2.336399 -2.128920
v 1.732913 2.336399 -1.705634
v 2.156198 2.336399 -1.072143
v 2.304835 2.336399 -0.324891
v 2.156197 2.336399 0.422363
v 1.732912 2.336399 1.055854
v 0.956699 2.178246 1.479139
vt 0.644356 0.096456
vt 0.610485 0.045765
vt 0.559794 0.011894
vt 0.500000 0.000000
vt 0.440206 0.011894
vt 0.389515 0.045765
vt 0.355644 0.096456
vt 0.343750 0.156250
vt 0.355644 0.216044
vt 0.389515 0.266735
vt 0.440206 0.300606
vt 0.500000 0.312500
vt 0.559794 0.300606
vt 0.610485 0.266735
vt 0.644356 0.216044
vt 0.656250 0.156250
vt 0.375000 0.312500
vt 0.390625 0.312500
vt 0.406250 0.312500
vt 0.421875 0.312500
vt 0.437500 0.312500
vt 0.453125 0.312500
vt 0.468750 0.312500
vt 0.484375 0.312500
vt 0.500000 0.312500
vt 0.515625 0.312500
vt 0.531250 0.312500
vt 0.562500 0.312500
vt 0.578125 0.312500
vt 0.593750 0.312500
vt 0.609375 0.312500
vt 0.625000 0.312500
vt 0.375000 0.687500
vt 0.390625 0.687500
vt 0.406250 0.687500
vt 0.421875 0.687500
vt 0.437500 0.687500
vt 0.453125 0.687500
vt 0.468750 0.687500
vt 0.484375 0.687500
vt 0.500000 0.687500
vt 0.515625 0.687500
vt 0.531250 0.687500
vt 0.546875 0.687500
vt 0.562500 0.687500
vt 0.578125 0.687500
vt 0.593750 0.687500
vt 0.609375 0.687500
vt 0.625000 0.687500
vt 0.644356 0.783956
vt 0.610485 0.733265
vt 0.559794 0.699394
vt 0.500000 0.687500
vt 0.440206 0.699394
vt 0.389515 0.733265
vt 0.355644 0.783956
vt 0.343750 0.843750
vt 0.355644 0.903544
vt 0.389515 0.954235
vt 0.440206 0.988106
vt 0.500000 1.000000
vt 0.559794 0.988106
vt 0.610485 0.954235
vt 0.644356 0.903544
vt 0.656250 0.843750
vt 0.500000 0.156250
vt 0.500000 0.843750
vt 0.437500 0.562500
vt 0.421875 0.562500
vt 0.406250 0.562500
vt 0.390625 0.562500
vt 0.625000 0.562500
vt 0.375000 0.562500
vt 0.609375 0.562500
vt 0.593750 0.562500
vt 0.578125 0.562500
vt 0.562500 0.562500
vt 0.531250 0.562500
vt 0.515625 0.562500
vt 0.500000 0.562500
vt 0.484375 0.562500
vt 0.468750 0.562500
vt 0.453125 0.562500
vt 0.437500 0.437500
vt 0.421875 0.437500
vt 0.406250 0.437500
vt 0.390625 0.437500
vt 0.625000 0.437500
vt 0.375000 0.437500
vt 0.609375 0.437500
vt 0.593750 0.437500
vt 0.578125 0.437500
vt 0.562500 0.437500
vt 0.531250 0.437500
vt 0.515625 0.437500
vt 0.500000 0.437500
vt 0.484375 0.437500
vt 0.468750 0.437500
vt 0.453125 0.437500
vt 0.546875 0.645833
vt 0.531250 0.645833
vt 0.515625 0.645833
vt 0.500000 0.645833
vt 0.484375 0.645833
vt 0.468750 0.645833
vt 0.453125 0.645833
vt 0.437500 0.645833
vt 0.421875 0.645833
vt 0.406250 0.645833
vt 0.390625 0.645833
vt 0.625000 0.645833
vt 0.375000 0.645833
vt 0.609375 0.645833
vt 0.593750 0.645833
vt 0.578125 0.645833
vt 0.562500 0.645833
vt 0.546875 0.604167
vt 0.531250 0.604167
vt 0.515625 0.604167
vt 0.500000 0.604167
vt 0.484375 0.604167
vt 0.468750 0.604167
vt 0.453125 0.604167
vt 0.437500 0.604167
vt 0.421875 0.604167
vt 0.406250 0.604167
vt 0.390625 0.604167
vt 0.625000 0.604167
vt 0.375000 0.604167
vt 0.609375 0.604167
vt 0.593750 0.604167
vt 0.578125 0.604167
vt 0.562500 0.604167
vn 0.510547 -0.833438 -0.211476
vn 0.390756 -0.833438 -0.390756
vn 0.687083 -0.186664 -0.702192
vn 0.900307 -0.213831 -0.379109
vn 0.211476 -0.833438 -0.510547
vn 0.365467 -0.145969 -0.919308
vn 0.000000 -0.833438 -0.552613
vn -0.015520 -0.098227 -0.995043
vn -0.211475 -0.833438 -0.510548
vn -0.395506 -0.051148 -0.917038
vn -0.390756 -0.833438 -0.390756
vn -0.714873 -0.012013 -0.699151
vn -0.510547 -0.833438 -0.211476
vn -0.926082 0.013644 -0.377076
vn -0.552612 -0.833438 -0.000000
vn -0.999746 0.022550 -0.000000
vn -0.510547 -0.833438 0.211475
vn -0.926082 0.013644 0.377075
vn -0.390756 -0.833438 0.390756
vn -0.714874 -0.012013 0.699151
vn -0.192734 -0.937898 0.288447
vn -0.555458 -0.020149 0.831301
vn 0.192734 -0.937898 0.288447
vn 0.390756 -0.833438 0.390756
vn 0.687083 -0.186664 0.702192
vn 0.547282 -0.172086 0.819066
vn 0.510547 -0.833438 0.211476
vn 0.900307 -0.213831 0.379109
vn 0.552613 -0.833438 0.000000
vn 0.974739 -0.223347 0.000000
vn 0.000000 -1.000000 0.000000
vn 0.000000 -1.000000 0.000000
vn 0.453918 0.868966 -0.197119
vn 0.337659 0.872753 -0.352546
vn 0.000000 1.000000 -0.000000
vn 0.174218 0.876383 -0.448999
vn -0.009611 0.879342 -0.476095
vn -0.187427 0.881253 -0.433894
vn -0.336022 0.881903 -0.330660
vn -0.436732 0.881223 -0.180861
vn -0.476281 0.879285 -0.003761
vn -0.447797 0.876300 0.177695
vn -0.352209 0.872633 0.338321
vn -0.199758 0.868801 0.453080
vn -0.010831 0.865433 0.500908
vn 0.185227 0.863147 0.469754
vn 0.354555 0.862384 0.361366
vn 0.466298 0.863274 0.193198
vn 0.500687 0.865616 -0.004679
vn 0.013297 -0.074297 -0.997148
vn -0.372080 -0.035265 -0.927531
vn -0.365240 -0.087493 -0.926793
vn 0.018642 -0.025935 -0.999490
vn 0.392734 -0.108387 -0.913243
vn 0.398066 0.039793 -0.916493
vn 0.708847 -0.132696 -0.692769
vn 0.712577 0.099299 -0.694531
vn 0.917100 -0.144395 -0.371587
vn 0.916695 0.144632 -0.372495
vn 0.989792 -0.142494 0.002783
vn 0.985304 0.170808 -0.000235
vn 0.917310 -0.127491 0.377212
vn 0.912231 0.175281 0.370285
vn 0.701412 -0.090041 0.707046
vn 0.679585 0.163053 0.715247
vn 0.533981 -0.060019 0.843364
vn 0.432705 0.147461 0.889394
vn -0.690317 0.046951 0.721982
vn -0.533123 0.040755 0.845056
vn -0.406389 0.004853 0.913687
vn -0.672484 -0.068577 0.736928
vn -0.919823 0.049599 0.389185
vn -0.914084 -0.123631 0.386220
vn -0.998807 0.048762 0.002727
vn -0.988030 -0.154265 -0.000050
vn -0.922441 0.032107 -0.384800
vn -0.909559 -0.157868 -0.384422
vn -0.701858 0.002375 -0.712313
vn -0.691369 -0.134212 -0.709927
vn -0.380882 -0.295177 0.876242
vn -0.020151 -0.207059 0.978121
vn -0.650544 -0.375319 0.660249
vn -0.832463 -0.439479 0.337436
vn -0.882460 -0.470387 -0.000715
vn -0.816583 -0.471981 -0.332306
vn -0.641284 -0.444001 -0.625794
vn -0.366713 -0.385908 -0.846520
vn -0.016365 -0.299702 -0.953893
vn 0.361403 -0.194583 -0.911880
vn 0.696300 -0.088867 -0.712228
vn 0.921595 -0.004430 -0.388128
vn 0.999115 0.042071 -0.000043
vn 0.920869 0.042887 0.387505
vn 0.669120 -0.013278 0.743036
vn 0.380743 -0.098711 0.919397
vn 0.039073 0.141959 0.989101
s 1
g base
usemtl initialShadingGroup
f 33/49/33 34/50/34 85/119/35 86/121/36
f 34/50/34 35/51/37 84/118/38 85/119/35
f 35/51/37 36/52/39 83/117/40 84/118/38
f 36/52/39 37/53/41 82/116/42 83/117/40
f 37/53/41 38/54/43 96/131/44 82/116/42
f 38/54/43 39/55/45 95/130/46 96/131/44
f 39/55/45 40/56/47 94/129/48 95/130/46
f 40/56/47 41/57/49 93/128/50 94/129/48
f 41/57/49 42/58/51 92/127/52 93/128/50
f 42/58/51 43/59/53 91/126/54 92/127/52
f 45/60/55 46/61/56 89/124/57 90/125/58
f 46/61/56 47/62/59 88/123/60 89/124/57
f 47/62/59 48/63/61 87/122/62 88/123/60
f 48/63/61 33/64/33 86/120/36 87/122/62
f 34/34/34 33/33/33 65/98/63
f 35/35/37 34/34/34 65/98/63
f 36/36/39 35/35/37 65/98/63
f 37/37/41 36/36/39 65/98/63
f 38/38/43 37/37/41 65/98/63
f 39/39/45 38/38/43 65/98/63
f 40/40/47 39/39/45 65/98/63
f 41/41/49 40/40/47 65/98/63
f 42/42/51 41/41/49 65/98/63
f 43/43/53 42/42/51 65/98/63
f 44/44/64 43/43/53 65/98/63
f 45/45/55 44/44/64 65/98/63
f 46/46/56 45/45/55 65/98/63
f 47/47/59 46/46/56 65/98/63
f 48/48/61 47/47/59 65/98/63
f 33/33/33 48/48/61 65/98/63
f 49/96/65 50/95/66 66/99/67
f 50/95/66 51/94/68 66/99/67
f 51/94/68 52/93/69 66/99/67
f 52/93/69 53/92/70 66/99/67
f 53/92/70 54/91/71 66/99/67
f 54/91/71 55/90/72 66/99/67
f 55/90/72 56/89/73 66/99/67
f 56/89/73 57/88/74 66/99/67
f 57/88/74 58/87/75 66/99/67
f 58/87/75 59/86/76 66/99/67
f 59/86/76 60/85/77 66/99/67
f 60/85/77 61/84/78 66/99/67
f 61/84/78 62/83/79 66/99/67
f 62/83/79 63/82/80 66/99/67
f 63/82/80 64/97/81 66/99/67
f 64/97/81 49/96/65 66/99/67
f 68/101/82 67/100/83 120/156/84 121/157/85
f 69/102/86 68/101/82 121/157/85 122/158/87
f 70/103/88 69/102/86 122/158/87 123/159/89
f 71/105/90 70/103/88 123/159/89 124/161/91
f 72/106/92 71/104/90 124/160/91 125/162/93
f 73/107/94 72/106/92 125/162/93 126/163/95
f 74/108/96 73/107/94 126/163/95 127/164/97
f 75/109/98 74/108/96 127/164/97 128/165/99
f 77/111/100 76/110/101 114/150/102 115/151/103
f 78/112/104 77/111/100 115/151/103 116/152/105
f 79/113/106 78/112/104 116/152/105 117/153/107
f 80/114/108 79/113/106 117/153/107 118/154/109
f 81/115/110 80/114/108 118/154/109 119/155/111
f 67/100/83 81/115/110 119/155/111 120/156/84
f 83/117/40 82/116/42 67/100/83 68/101/82
f 84/118/38 83/117/40 68/101/82 69/102/86
f 85/119/35 84/118/38 69/102/86 70/103/88
f 86/121/36 85/119/35 70/103/88 71/105/90
f 87/122/62 86/120/36 71/104/90 72/106/92
f 88/123/60 87/122/62 72/106/92 73/107/94
f 89/124/57 88/123/60 73/107/94 74/108/96
f 90/125/58 89/124/57 74/108/96 75/109/98
f 92/127/52 91/126/54 76/110/101 77/111/100
f 93/128/50 92/127/52 77/111/100 78/112/104
f 94/129/48 93/128/50 78/112/104 79/113/106
f 95/130/46 94/129/48 79/113/106 80/114/108
f 96/131/44 95/130/46 80/114/108 81/115/110
f 82/116/42 96/131/44 81/115/110 67/100/83
f 98/133/112 97/132/113 60/76/77 59/75/76
f 99/134/114 98/133/112 59/75/76 58/74/75
f 100/135/115 99/134/114 58/74/75 57/73/74
f 101/136/116 100/135/115 57/73/74 56/72/73
f 102/137/117 101/136/116 56/72/73 55/71/72
f 103/138/118 102/137/117 55/71/72 54/70/71
f 104/139/119 103/138/118 54/70/71 53/69/70
f 105/140/120 104/139/119 53/69/70 52/68/69
f 106/141/121 105/140/120 52/68/69 51/67/68
f 107/142/122 106/141/121 51/67/68 50/66/66
f 108/144/123 107/142/122 50/66/66 49/65/65
f 109/145/124 108/143/123 49/81/65 64/80/81
f 110/146/125 109/145/124 64/80/81 63/79/80
f 111/147/126 110/146/125 63/79/80 62/78/79
f 112/148/127 111/147/126 62/78/79 61/77/78
f 97/132/113 112/148/127 61/77/78 60/76/77
f 114/150/102 113/149/128 97/132/113 98/133/112
f 115/151/103 114/150/102 98/133/112 99/134/114
f 116/152/105 115/151/103 99/134/114 100/135/115
f 117/153/107 116/152/105 100/135/115 101/136/116
f 118/154/109 117/153/107 101/136/116 102/137/117
f 119/155/111 118/154/109 102/137/117 103/138/118
f 120/156/84 119/155/111 103/138/118 104/139/119
f 121/157/85 120/156/84 104/139/119 105/140/120
f 122/158/87 121/157/85 105/140/120 106/141/121
f 123/159/89 122/158/87 106/141/121 107/142/122
f 124/161/91 123/159/89 107/142/122 108/144/123
f 125/162/93 124/160/91 108/143/123 109/145/124
f 126/163/95 125/162/93 109/145/124 110/146/125
f 127/164/97 126/163/95 110/146/125 111/147/126
f 128/165/99 127/164/97 111/147/126 112/148/127
f 113/149/128 128/165/99 112/148/127 97/132/113
g default
v 3.172284 4.024070 -1.256417
v 2.697594 4.051347 -2.107610
v 2.078648 4.045746 -2.887302
v 1.150822 4.043678 -3.239250
v 0.192788 4.051250 -3.385844
v -0.757527 4.046510 -3.213029
v -1.629337 4.052362 -2.796598
v -2.329637 4.044355 -2.120075
v -2.731867 4.046512 -1.238699
v -2.898339 4.050229 -0.288684
v -2.731859 4.046510 0.661817
v -2.311696 4.035968 1.531185
v -1.627958 4.048148 2.217429
v -0.758045 4.046869 2.637628
v 0.194842 3.982652 2.874389
v 1.145903 4.046671 2.645181
v 2.016382 4.051713 2.201400
v 2.767559 4.063842 1.580064
v 3.220364 4.052836 0.703269
v 3.361947 4.009402 -0.289003
v 3.073627 4.549952 -1.228832
v 2.653535 4.544009 -2.072425
v 1.976749 4.544783 -2.742512
v 1.121061 4.532192 -3.146413
v 0.194059 4.551138 -3.335852
v -0.743592 4.549372 -3.175837
v -1.600407 4.552985 -2.760532
v -2.319088 4.567687 -2.113363
v -2.739169 4.564898 -1.242595
v -2.891100 4.564021 -0.290111
v -2.688256 4.547534 0.645698
v -2.244762 4.542638 1.479654
v -1.626070 4.576647 2.208739
v -0.750696 4.554308 2.613487
v 0.189405 4.544940 2.740906
v 1.135675 4.557952 2.627821
v 1.994222 4.546631 2.199794
v 2.664314 4.548024 1.507581
v 3.111477 4.555221 0.664456
v 3.344544 4.574888 -0.293122
v 2.883359 5.003610 -1.163957
v 2.494793 5.010301 -1.958060
v 1.885868 5.024654 -2.610070
v 1.080947 5.028779 -3.019742
v 0.196625 5.056772 -3.215001
v -0.707637 5.035094 -3.067737
v -1.554578 5.071420 -2.694612
v -2.177904 5.049954 -2.007995
v -2.541588 5.015407 -1.175753
v -2.676068 5.019316 -0.292385
v -2.542851 5.019000 0.596524
v -2.110041 5.003610 1.378806
v -1.523281 5.041772 2.063595
v -0.699230 5.017604 2.460066
v 0.194438 4.985051 2.555515
v 1.050152 4.973205 2.350494
v 1.823294 4.972929 1.955840
v 2.485352 5.006232 1.378806
v 2.883572 5.002178 0.588391
v 3.094998 5.035058 -0.288680
v 2.601448 5.399538 -1.071085
v 2.253784 5.407520 -1.784257
v 1.734105 5.462117 -2.401756
v 1.023643 5.511646 -2.850165
v 0.195601 5.472420 -2.929899
v -0.635072 5.533781 -2.868710
v -1.397881 5.510663 -2.475761
v -1.898916 5.437371 -1.808634
v -2.247790 5.426233 -1.080156
v -2.346372 5.402658 -0.289644
v -2.289166 5.454282 0.513614
v -1.866196 5.408611 1.207257
v -1.287793 5.389489 1.749324
v -0.586485 5.391515 2.109706
v 0.192840 5.393894 2.237005
v 0.979996 5.412205 2.132980
v 1.692285 5.416527 1.774727
v 2.230614 5.389589 1.192174
v 2.618712 5.421042 0.500354
v 2.746496 5.414158 -0.288778
v 2.310062 5.784547 -0.978333
v 2.008074 5.799636 -1.606150
v 1.516801 5.808633 -2.103995
v 0.905465 5.869172 -2.476696
v 0.191616 5.815925 -2.554140
v -0.510146 5.839009 -2.463521
v -1.146466 5.853014 -2.133729
v -1.630962 5.808495 -1.609936
v -1.982482 5.832148 -0.990126
v -2.011958 5.763855 -0.288382
v -1.901260 5.761195 0.391910
v -1.588835 5.761643 1.005953
v -1.101472 5.761229 1.492876
v -0.487579 5.760988 1.805334
v 0.192803 5.804651 1.954261
v 0.884138 5.801277 1.843211
v 1.500705 5.787229 1.513246
v 1.975274 5.763123 1.006988
v 2.310192 5.782947 0.399329
v 2.414585 5.779835 -0.288833
v 1.989573 6.141091 -0.881163
v 1.702410 6.121218 -1.388901
v 1.317228 6.176247 -1.835732
v 0.797374 6.223874 -2.151145
v 0.201116 6.195976 -2.221419
v -0.394046 6.177477 -2.110337
v -0.935960 6.194095 -1.844178
v -1.367354 6.203463 -1.425077
v -1.654091 6.194985 -0.891731
v -1.705069 6.144203 -0.289030
v -1.605674 6.145481 0.290334
v -1.364149 6.165225 0.834103
v -0.947756 6.168388 1.258401
v -0.405599 6.150309 1.531206
v 0.186059 6.162335 1.635765
v 0.775045 6.146569 1.516619
v 1.282776 6.108444 1.211196
v 1.702857 6.111106 0.805945
v 2.032128 6.180605 0.305825
v 2.117906 6.174303 -0.299285
v 1.626672 6.461590 -0.781042
v 1.401354 6.428356 -1.181886
v 1.098266 6.463147 -1.521442
v 0.657178 6.487589 -1.747050
v 0.204208 6.514299 -1.836834
v -0.274248 6.508403 -1.758308
v -0.687573 6.493048 -1.530421
v -1.028039 6.502205 -1.197017
v -1.252018 6.491456 -0.776086
v -1.348470 6.512865 -0.322600
v -1.259034 6.504009 0.168038
v -1.060629 6.522759 0.614058
v -0.750484 6.530726 0.971631
v -0.333315 6.542092 1.227532
v 0.184090 6.548348 1.301862
v 0.726069 6.580100 1.240748
v 1.162483 6.580426 1.028491
v 1.525722 6.596132 0.644068
v 1.740874 6.594475 0.192211
v 1.780308 6.560554 -0.322603
v 1.280282 6.843544 -0.668956
v 1.083697 6.757774 -0.968905
v 0.827492 6.741626 -1.237269
v 0.530851 6.768927 -1.402802
v 0.174855 6.798520 -1.473891
v -0.158270 6.788127 -1.401378
v -0.451387 6.774203 -1.233107
v -0.680080 6.769992 -0.968582
v -0.852683 6.832106 -0.654967
v -0.926824 6.880728 -0.289817
v -0.891239 6.911062 0.010103
v -0.752958 6.951081 0.344390
v -0.486196 6.951164 0.605230
v -0.156117 6.992813 0.815781
v 0.202015 6.996691 0.896581
v 0.505462 7.002440 0.843993
v 0.917432 7.048242 0.665724
v 1.209926 7.033356 0.366509
v 1.355123 6.981320 -0.011268
v 1.375810 6.905246 -0.357982
v 0.863925 7.440425 -0.523802
v 0.746452 7.433155 -0.744486
v 0.589851 7.407262 -0.853212
v 0.395668 7.342276 -0.914435
v 0.202092 7.326746 -0.946515
v 0.010709 7.323186 -0.908023
v -0.173382 7.362203 -0.832692
v -0.314718 7.353861 -0.701992
v -0.415272 7.343256 -0.551387
v -0.459800 7.344720 -0.348199
v -0.464775 7.357475 -0.087771
v -0.351365 7.369129 0.156901
v -0.186011 7.366235 0.341577
v 0.016126 7.359079 0.434398
v 0.211443 7.373699 0.443922
v 0.372788 7.400464 0.420501
v 0.613776 7.442233 0.322814
v 0.769047 7.429436 0.124392
v 0.901122 7.475701 -0.174117
v 0.911777 7.455262 -0.368909
v 0.255619 7.972312 -0.267876
v 2.197787 3.559464 -0.939923
v 1.898331 3.559464 -1.527633
v 2.300970 3.559464 -0.288440
v 2.197786 3.559464 0.363042
v 1.898331 3.559464 0.950753
v 1.431922 3.559464 1.417163
v 0.844211 3.559464 1.716617
v 0.192729 3.559464 1.819801
v -0.458754 3.559464 1.716617
v -1.046464 3.559464 1.417163
v -1.512873 3.559464 0.950753
v -1.812328 3.559464 0.363042
v -1.915512 3.559464 -0.288440
v -1.812328 3.559464 -0.939923
v -1.512873 3.559464 -1.527633
v -1.046464 3.559464 -1.994043
v -0.458754 3.559464 -2.293498
v 0.192729 3.559464 -2.396681
v 0.844211 3.559464 -2.293498
v 1.431923 3.559464 -1.994043
v 3.193415 3.812461 -1.261280
v 2.918600 3.559466 -1.174128
v 2.698638 3.803723 -2.109006
v 2.511493 3.559464 -1.973120
v 2.046401 3.782493 -2.842878
v 1.896649 3.515043 -2.634251
v 1.148711 3.804654 -3.228825
v 1.091842 3.516275 -3.061382
v 0.192729 3.802963 -3.382702
v 0.192729 3.559464 -3.154588
v -0.763450 3.802963 -3.231258
v -0.692959 3.559464 -3.014309
v -1.630815 3.804518 -2.798379
v -1.492038 3.559087 -2.607338
v -2.308828 3.803424 -2.106035
v -2.151506 3.543516 -1.990725
v -2.750089 3.802963 -1.244619
v -2.533141 3.559461 -1.174129
v -2.902665 3.803233 -0.288457
v -2.673419 3.559464 -0.288440
v -2.750089 3.802963 0.667740
v -2.533139 3.559464 0.597249
v -2.281138 3.814678 1.509386
v -2.134110 3.555129 1.401113
v -1.611940 3.811121 2.194923
v -1.514939 3.519963 2.060892
v -0.763450 3.802963 2.654378
v -0.692959 3.559464 2.437428
v 0.193276 3.785485 2.809991
v 0.193267 3.518181 2.645388
v 1.146634 3.799454 2.648379
v 1.089411 3.521534 2.468248
v 2.011618 3.804259 2.205376
v 1.895578 3.527275 2.056725
v 2.736881 3.868341 1.561968
v 2.531825 3.545292 1.412520
v 3.178995 3.825202 0.684457
v 2.925132 3.543347 0.599752
v 3.310584 3.810261 -0.289995
v 3.069687 3.548224 -0.288766
v 1.431923 3.559464 -0.288440
v 0.844211 3.559464 -0.288440
v 0.192729 3.559464 -0.288440
v -0.458754 3.559464 -0.288440
v -1.046464 3.559464 -0.288440
v -1.512873 3.559464 -0.288440
v 1.898331 3.559464 -0.288440
vt 1.000000 0.550000
vt 0.000000 0.600000
vt 0.050000 0.600000
vt 0.100000 0.600000
vt 0.150000 0.600000
vt 0.200000 0.600000
vt 0.250000 0.600000
vt 0.300000 0.600000
vt 0.350000 0.600000
vt 0.400000 0.600000
vt 0.450000 0.600000
vt 0.500000 0.600000
vt 0.550000 0.600000
vt 0.600000 0.600000
vt 0.650000 0.600000
vt 0.700000 0.600000
vt 0.750000 0.600000
vt 0.800000 0.600000
vt 0.850000 0.600000
vt 0.900000 0.600000
vt 0.950000 0.600000
vt 1.000000 0.600000
vt 0.000000 0.650000
vt 0.050000 0.650000
vt 0.100000 0.650000
vt 0.150000 0.650000
vt 0.200000 0.650000
vt 0.250000 0.650000
vt 0.300000 0.650000
vt 0.350000 0.650000
vt 0.400000 0.650000
vt 0.450000 0.650000
vt 0.500000 0.650000
vt 0.550000 0.650000
vt 0.600000 0.650000
vt 0.650000 0.650000
vt 0.700000 0.650000
vt 0.750000 0.650000
vt 0.800000 0.650000
vt 0.850000 0.650000
vt 0.900000 0.650000
vt 0.950000 0.650000
vt 1.000000 0.650000
vt 0.000000 0.700000
vt 0.050000 0.700000
vt 0.100000 0.700000
vt 0.150000 0.700000
vt 0.200000 0.700000
vt 0.250000 0.700000
vt 0.300000 0.700000
vt 0.350000 0.700000
vt 0.400000 0.700000
vt 0.450000 0.700000
vt 0.500000 0.700000
vt 0.550000 0.700000
vt 0.600000 0.700000
vt 0.650000 0.700000
vt 0.700000 0.700000
vt 0.750000 0.700000
vt 0.800000 0.700000
vt 0.850000 0.700000
vt 0.900000 0.700000
vt 0.950000 0.700000
vt 1.000000 0.700000
vt 0.000000 0.750000
vt 0.050000 0.750000
vt 0.100000 0.750000
vt 0.150000 0.750000
vt 0.200000 0.750000
vt 0.250000 0.750000
vt 0.300000 0.750000
vt 0.350000 0.750000
vt 0.400000 0.750000
vt 0.450000 0.750000
vt 0.500000 0.750000
vt 0.550000 0.750000
vt 0.600000 0.750000
vt 0.650000 0.750000
vt 0.700000 0.750000
vt 0.750000 0.750000
vt 0.800000 0.750000
vt 0.850000 0.750000
vt 0.900000 0.750000
vt 0.950000 0.750000
vt 1.000000 0.750000
vt 0.000000 0.800000
vt 0.050000 0.800000
vt 0.100000 0.800000
vt 0.150000 0.800000
vt 0.200000 0.800000
vt 0.250000 0.800000
vt 0.300000 0.800000
vt 0.350000 0.800000
vt 0.400000 0.800000
vt 0.450000 0.800000
vt 0.500000 0.800000
vt 0.550000 0.800000
vt 0.600000 0.800000
vt 0.650000 0.800000
vt 0.700000 0.800000
vt 0.750000 0.800000
vt 0.800000 0.800000
vt 0.850000 0.800000
vt 0.900000 0.800000
vt 0.950000 0.800000
vt 1.000000 0.800000
vt 0.000000 0.850000
vt 0.050000 0.850000
vt 0.100000 0.850000
vt 0.150000 0.850000
vt 0.200000 0.850000
vt 0.250000 0.850000
vt 0.300000 0.850000
vt 0.350000 0.850000
vt 0.400000 0.850000
vt 0.450000 0.850000
vt 0.500000 0.850000
vt 0.550000 0.850000
vt 0.600000 0.850000
vt 0.650000 0.850000
vt 0.700000 0.850000
vt 0.750000 0.850000
vt 0.800000 0.850000
vt 0.850000 0.850000
vt 0.900000 0.850000
vt 0.950000 0.850000
vt 1.000000 0.850000
vt 0.000000 0.900000
vt 0.050000 0.900000
vt 0.100000 0.900000
vt 0.150000 0.900000
vt 0.200000 0.900000
vt 0.250000 0.900000
vt 0.300000 0.900000
vt 0.350000 0.900000
vt 0.400000 0.900000
vt 0.450000 0.900000
vt 0.500000 0.900000
vt 0.550000 0.900000
vt 0.600000 0.900000
vt 0.650000 0.900000
vt 0.700000 0.900000
vt 0.750000 0.900000
vt 0.800000 0.900000
vt 0.850000 0.900000
vt 0.900000 0.900000
vt 0.950000 0.900000
vt 1.000000 0.900000
vt 0.000000 0.950000
vt 0.050000 0.950000
vt 0.100000 0.950000
vt 0.150000 0.950000
vt 0.200000 0.950000
vt 0.250000 0.950000
vt 0.300000 0.950000
vt 0.350000 0.950000
vt 0.400000 0.950000
vt 0.450000 0.950000
vt 0.500000 0.950000
vt 0.550000 0.950000
vt 0.600000 0.950000
vt 0.650000 0.950000
vt 0.700000 0.950000
vt 0.750000 0.950000
vt 0.800000 0.950000
vt 0.850000 0.950000
vt 0.900000 0.950000
vt 0.950000 0.950000
vt 1.000000 0.950000
vt 0.025000 1.000000
vt 0.075000 1.000000
vt 0.125000 1.000000
vt 0.175000 1.000000
vt 0.225000 1.000000
vt 0.275000 1.000000
vt 0.325000 1.000000
vt 0.375000 1.000000
vt 0.425000 1.000000
vt 0.475000 1.000000
vt 0.525000 1.000000
vt 0.575000 1.000000
vt 0.625000 1.000000
vt 0.675000 1.000000
vt 0.725000 1.000000
vt 0.775000 1.000000
vt 0.825000 1.000000
vt 0.875000 1.000000
vt 0.925000 1.000000
vt 0.975000 1.000000
vt 0.000000 0.524998
vt 0.001974 0.501937
vt 0.048002 0.501937
vt 0.050000 0.524998
vt 0.000000 0.550000
vt 0.100000 0.524998
vt 0.050000 0.550000
vt 0.150000 0.524998
vt 0.100000 0.550000
vt 0.200000 0.524998
vt 0.150000 0.550000
vt 0.250000 0.524998
vt 0.200000 0.550000
vt 0.300000 0.524998
vt 0.250000 0.550000
vt 0.350000 0.524998
vt 0.300000 0.550000
vt 0.400000 0.524998
vt 0.350000 0.550000
vt 0.450000 0.524998
vt 0.400000 0.550000
vt 0.500000 0.524998
vt 0.450000 0.550000
vt 0.550000 0.524998
vt 0.500000 0.550000
vt 0.600000 0.524998
vt 0.550000 0.550000
vt 0.650000 0.524998
vt 0.600000 0.550000
vt 0.700000 0.524998
vt 0.650000 0.550000
vt 0.750000 0.524998
vt 0.700000 0.550000
vt 0.800000 0.524998
vt 0.750000 0.550000
vt 0.850000 0.524998
vt 0.800000 0.550000
vt 0.900000 0.524998
vt 0.850000 0.550000
vt 0.950000 0.524998
vt 0.900000 0.550000
vt 1.000000 0.524998
vt 0.950000 0.550000
vt 1.000000 0.500000
vt 0.050000 0.500000
vt 0.950000 0.500000
vt 1.000000 0.500000
vt 0.900000 0.500000
vt 0.950000 0.500000
vt 0.850000 0.500000
vt 0.900000 0.500000
vt 0.800000 0.500000
vt 0.850000 0.500000
vt 0.750000 0.500000
vt 0.800000 0.500000
vt 0.700000 0.500000
vt 0.750000 0.500000
vt 0.650000 0.500000
vt 0.700000 0.500000
vt 0.600000 0.500000
vt 0.650000 0.500000
vt 0.550000 0.500000
vt 0.600000 0.500000
vt 0.500000 0.500000
vt 0.550000 0.500000
vt 0.450000 0.500000
vt 0.500000 0.500000
vt 0.400000 0.500000
vt 0.450000 0.500000
vt 0.350000 0.500000
vt 0.400000 0.500000
vt 0.300000 0.500000
vt 0.350000 0.500000
vt 0.250000 0.500000
vt 0.300000 0.500000
vt 0.200000 0.500000
vt 0.250000 0.500000
vt 0.150000 0.500000
vt 0.200000 0.500000
vt 0.100000 0.500000
vt 0.150000 0.500000
vt 0.050000 0.500000
vt 0.100000 0.500000
vt 0.450000 0.500000
vt 0.450000 0.500000
vt 0.450000 0.500000
vt 0.450000 0.500000
vt 0.450000 0.500000
vt 0.450000 0.500000
vt 0.718345 0.500000
vn 0.934905 0.088670 -0.343643
vn 0.814696 0.118766 -0.567596
vn 0.787293 0.276823 -0.550943
vn 0.902273 0.265534 -0.339699
vn 0.579100 0.127146 -0.805281
vn 0.559316 0.283571 -0.778944
vn 0.278234 0.112598 -0.953891
vn 0.296613 0.235231 -0.925574
vn -0.002068 0.080167 -0.996779
vn 0.011401 0.178112 -0.983944
vn -0.305859 0.070504 -0.949463
vn -0.297833 0.147247 -0.943193
vn -0.570057 0.047438 -0.820234
vn -0.561816 0.144299 -0.814580
vn -0.810608 0.011425 -0.585478
vn -0.801596 0.169415 -0.573360
vn -0.953982 0.006836 -0.299786
vn -0.937467 0.194580 -0.288606
vn -0.999416 0.033119 0.008389
vn -0.978546 0.205593 0.013368
vn -0.944992 0.063330 0.320903
vn -0.922124 0.214206 0.322186
vn -0.815942 0.045993 0.576302
vn -0.804145 0.215604 0.553955
vn -0.591053 0.017775 0.806437
vn -0.587504 0.200764 0.783921
vn -0.314262 0.046382 0.948202
vn -0.284864 0.211855 0.934864
vn -0.002281 0.062864 0.998019
vn 0.006837 0.271065 0.962537
vn 0.318433 0.044508 0.946900
vn 0.297950 0.301329 0.905774
vn 0.564280 0.048965 0.824130
vn 0.542052 0.309317 0.781346
vn 0.788805 0.094185 0.607384
vn 0.750292 0.333246 0.570972
vn 0.946237 0.068210 0.316201
vn 0.894110 0.314257 0.319077
vn 0.998941 0.041878 -0.019064
vn 0.959511 0.281018 -0.019150
vn 0.729263 0.467663 -0.499466
vn 0.806428 0.509983 -0.299319
vn 0.557148 0.401261 -0.727032
vn 0.311432 0.350259 -0.883362
vn 0.021966 0.348314 -0.937121
vn -0.270464 0.333289 -0.903198
vn -0.547548 0.372195 -0.749441
vn -0.743380 0.457589 -0.487850
vn -0.826686 0.508840 -0.240149
vn -0.868218 0.496179 0.001826
vn -0.839635 0.458325 0.291465
vn -0.720308 0.470508 0.509685
vn -0.513844 0.524360 0.678978
vn -0.233089 0.521063 0.821074
vn 0.027078 0.508893 0.860404
vn 0.273624 0.516894 0.811141
vn 0.491277 0.521891 0.697335
vn 0.679134 0.521505 0.516537
vn 0.794934 0.527694 0.299363
vn 0.840871 0.541185 -0.007459
vn 0.668900 0.605044 -0.431850
vn 0.740707 0.623056 -0.251303
vn 0.528457 0.589379 -0.611037
vn 0.269753 0.589420 -0.761458
vn 0.012311 0.602156 -0.798284
vn -0.209680 0.622732 -0.753817
vn -0.486565 0.640468 -0.594184
vn -0.660898 0.637559 -0.395894
vn -0.751007 0.627395 -0.205827
vn -0.769514 0.638623 -0.002805
vn -0.716689 0.656288 0.235889
vn -0.594558 0.658282 0.461698
vn -0.426480 0.686038 0.589463
vn -0.222432 0.667615 0.710503
vn 0.005568 0.603046 0.797687
vn 0.261660 0.552323 0.791501
vn 0.487358 0.567828 0.663366
vn 0.636014 0.606420 0.477223
vn 0.727805 0.632043 0.266124
vn 0.765024 0.643955 -0.007735
vn 0.618103 0.675631 -0.401836
vn 0.719081 0.653275 -0.236969
vn 0.486760 0.698597 -0.524430
vn 0.229777 0.720551 -0.654224
vn -0.012785 0.725182 -0.688438
vn -0.176938 0.760289 -0.625023
vn -0.427736 0.742330 -0.515741
vn -0.621099 0.669027 -0.408214
vn -0.740452 0.643140 -0.195197
vn -0.747808 0.662891 0.036870
vn -0.684790 0.695425 0.217821
vn -0.597486 0.660138 0.455224
vn -0.452097 0.624958 0.636423
vn -0.263935 0.617862 0.740665
vn -0.023058 0.628294 0.777635
vn 0.244703 0.658181 0.711982
vn 0.454971 0.682437 0.572085
vn 0.595546 0.664973 0.450707
vn 0.714291 0.648715 0.262598
vn 0.766079 0.642607 -0.013355
vn 0.560733 0.737027 -0.377319
vn 0.659795 0.701425 -0.269579
vn 0.458833 0.743179 -0.486988
vn 0.229216 0.747123 -0.623913
vn -0.028561 0.728753 -0.684181
vn -0.206400 0.736807 -0.643828
vn -0.395032 0.742386 -0.541122
vn -0.550749 0.730027 -0.404643
vn -0.672029 0.717964 -0.181395
vn -0.732008 0.679061 0.055130
vn -0.720545 0.658227 0.218067
vn -0.635820 0.644429 0.424787
vn -0.467259 0.623169 0.627160
vn -0.260495 0.621874 0.738522
vn -0.013839 0.643459 0.765355
vn 0.262983 0.641221 0.720885
vn 0.490226 0.613732 0.618879
vn 0.626249 0.594402 0.504479
vn 0.747446 0.606085 0.272004
vn 0.765069 0.641836 -0.052107
vn 0.523559 0.758334 -0.388349
vn 0.603626 0.716918 -0.348804
vn 0.414441 0.800206 -0.433485
vn 0.225078 0.812778 -0.537337
vn -0.003061 0.790799 -0.612068
vn -0.216374 0.777622 -0.590327
vn -0.358116 0.797206 -0.486020
vn -0.465451 0.809697 -0.357415
vn -0.581636 0.786562 -0.207412
vn -0.672198 0.740312 -0.009346
vn -0.682784 0.706459 0.186337
vn -0.598831 0.709566 0.371374
vn -0.455352 0.697600 0.553181
vn -0.264585 0.676217 0.687550
vn -0.020753 0.651262 0.758569
vn 0.239694 0.618053 0.748703
vn 0.482220 0.575955 0.660106
vn 0.650703 0.588214 0.480198
vn 0.734481 0.648518 0.199907
vn 0.710100 0.690791 -0.136257
vn 0.561541 0.653637 -0.507376
vn 0.644531 0.641799 -0.415540
vn 0.413370 0.699823 -0.582557
vn 0.238203 0.727311 -0.643645
vn 0.005864 0.750925 -0.660362
vn -0.233597 0.745509 -0.624219
vn -0.409196 0.741338 -0.531955
vn -0.531612 0.734011 -0.422632
vn -0.619483 0.729149 -0.290832
vn -0.687263 0.722590 -0.074388
vn -0.693859 0.705827 0.142714
vn -0.609372 0.707652 0.357623
vn -0.460108 0.711678 0.530862
vn -0.269483 0.718112 0.641634
vn -0.038755 0.709738 0.703399
vn 0.153780 0.713644 0.683420
vn 0.383203 0.727326 0.569344
vn 0.589671 0.725373 0.355136
vn 0.687668 0.718747 0.102543
vn 0.702962 0.683451 -0.196821
vn 0.569918 0.609886 -0.550666
vn 0.667034 0.633323 -0.392387
vn 0.349414 0.628056 -0.695310
vn 0.174102 0.666202 -0.725164
vn -0.012227 0.704779 -0.709321
vn -0.212695 0.694655 -0.687179
vn -0.410937 0.683292 -0.603525
vn -0.587555 0.662983 -0.463931
vn -0.663023 0.682123 -0.308396
vn -0.694602 0.710410 -0.113338
vn -0.672737 0.732073 0.107215
vn -0.572216 0.737706 0.358272
vn -0.416393 0.734844 0.535370
vn -0.227176 0.751597 0.619268
vn -0.046895 0.759424 0.648903
vn 0.106623 0.751995 0.650488
vn 0.331319 0.774643 0.538661
vn 0.557949 0.759634 0.334139
vn 0.662037 0.737786 0.131826
vn 0.714910 0.674207 -0.185334
vn -0.032542 0.999145 0.025508
vn -0.005964 -0.999797 0.019250
vn 0.000000 -1.000000 0.000000
vn 0.000000 -1.000000 0.000000
vn -0.010725 -0.999850 0.013620
vn 0.836169 -0.466207 -0.288916
vn 0.285278 -0.953453 -0.097696
vn 0.252345 -0.954249 -0.160410
vn 0.735223 -0.444669 -0.511583
vn 0.861747 -0.507338 0.000692
vn 0.310471 -0.950581 -0.001941
vn 0.184646 -0.955714 -0.229165
vn 0.536119 -0.430662 -0.726021
vn 0.074575 -0.950425 -0.301877
vn 0.252045 -0.389975 -0.885660
vn -0.015494 -0.951141 -0.308369
vn -0.009874 -0.376638 -0.926308
vn -0.093603 -0.952470 -0.289897
vn -0.282434 -0.392263 -0.875421
vn -0.173651 -0.952444 -0.250392
vn -0.533152 -0.393995 -0.748676
vn -0.252577 -0.950172 -0.182696
vn -0.746713 -0.391292 -0.537875
vn -0.292207 -0.952307 -0.087900
vn -0.880237 -0.384028 -0.278756
vn -0.304711 -0.952445 0.000002
vn -0.922642 -0.385656 0.000046
vn -0.294570 -0.950568 0.098234
vn -0.874358 -0.388674 0.290570
vn -0.270854 -0.945039 0.183138
vn -0.749875 -0.377727 0.543148
vn -0.193259 -0.945610 0.261673
vn -0.551194 -0.363456 0.751056
vn -0.103151 -0.951400 0.290169
vn -0.309349 -0.377626 0.872755
vn -0.012309 -0.950140 0.311580
vn -0.004372 -0.393192 0.919446
vn 0.103994 -0.950879 0.291572
vn 0.312265 -0.347251 0.884255
vn 0.200833 -0.944078 0.261499
vn 0.536619 -0.368916 0.758907
vn 0.281230 -0.938592 0.199885
vn 0.715201 -0.440391 0.542718
vn 0.308623 -0.945593 0.102983
vn 0.820740 -0.503723 0.269534
vn -0.002948 -0.999994 -0.002057
vn -0.000210 -0.999941 0.010885
vn -0.008975 -0.999951 -0.004121
vn -0.012417 -0.999912 -0.004748
vn -0.008462 -0.999914 -0.010003
vn -0.006516 -0.999862 -0.015306
vn -0.004489 -0.999842 -0.017206
vn -0.004946 -0.999885 -0.014310
vn 0.002280 -0.999967 -0.007783
vn 0.008159 -0.999915 -0.010145
vn 0.001577 -0.999941 -0.010709
vn 0.000454 -0.999999 -0.001311
vn 0.000001 -1.000000 0.000001
vn 0.001663 -0.999987 0.004795
vn 0.005161 -0.999979 0.003839
vn 0.003166 -0.999995 0.000159
vn 0.000060 -1.000000 0.000021
vn -0.005503 -0.999976 0.004164
vn 0.000000 -1.000000 0.000000
vn 0.000000 -1.000000 0.000000
vn 0.000000 -1.000000 0.000000
vn 0.000000 -1.000000 0.000000
vn 0.000000 -1.000000 0.000000
s 1
g roof
usemtl initialShadingGroup
f 129/359/129 130/361/130 150/168/131 149/167/132
f 130/361/130 131/363/133 151/169/134 150/168/131
f 131/363/133 132/365/135 152/170/136 151/169/134
f 132/365/135 133/367/137 153/171/138 152/170/136
f 133/367/137 134/369/139 154/172/140 153/171/138
f 134/369/139 135/371/141 155/173/142 154/172/140
f 135/371/141 136/373/143 156/174/144 155/173/142
f 136/373/143 137/375/145 157/175/146 156/174/144
f 137/375/145 138/377/147 158/176/148 157/175/146
f 138/377/147 139/379/149 159/177/150 158/176/148
f 139/379/149 140/381/151 160/178/152 159/177/150
f 140/381/151 141/383/153 161/179/154 160/178/152
f 141/383/153 142/385/155 162/180/156 161/179/154
f 142/385/155 143/387/157 163/181/158 162/180/156
f 143/387/157 144/389/159 164/182/160 163/181/158
f 144/389/159 145/391/161 165/183/162 164/182/160
f 145/391/161 146/393/163 166/184/164 165/183/162
f 146/393/163 147/395/165 167/185/166 166/184/164
f 147/395/165 148/397/167 168/186/168 167/185/166
f 148/397/167 129/166/129 149/187/132 168/186/168
f 149/167/132 150/168/131 170/189/169 169/188/170
f 150/168/131 151/169/134 171/190/171 170/189/169
f 151/169/134 152/170/136 172/191/172 171/190/171
f 152/170/136 153/171/138 173/192/173 172/191/172
f 153/171/138 154/172/140 174/193/174 173/192/173
f 154/172/140 155/173/142 175/194/175 174/193/174
f 155/173/142 156/174/144 176/195/176 175/194/175
f 156/174/144 157/175/146 177/196/177 176/195/176
f 157/175/146 158/176/148 178/197/178 177/196/177
f 158/176/148 159/177/150 179/198/179 178/197/178
f 159/177/150 160/178/152 180/199/180 179/198/179
f 160/178/152 161/179/154 181/200/181 180/199/180
f 161/179/154 162/180/156 182/201/182 181/200/181
f 162/180/156 163/181/158 183/202/183 182/201/182
f 163/181/158 164/182/160 184/203/184 183/202/183
f 164/182/160 165/183/162 185/204/185 184/203/184
f 165/183/162 166/184/164 186/205/186 185/204/185
f 166/184/164 167/185/166 187/206/187 186/205/186
f 167/185/166 168/186/168 188/207/188 187/206/187
f 168/186/168 149/187/132 169/208/170 188/207/188
f 169/188/170 170/189/169 190/210/189 189/209/190
f 170/189/169 171/190/171 191/211/191 190/210/189
f 171/190/171 172/191/172 192/212/192 191/211/191
f 172/191/172 173/192/173 193/213/193 192/212/192
f 173/192/173 174/193/174 194/214/194 193/213/193
f 174/193/174 175/194/175 195/215/195 194/214/194
f 175/194/175 176/195/176 196/216/196 195/215/195
f 176/195/176 177/196/177 197/217/197 196/216/196
f 177/196/177 178/197/178 198/218/198 197/217/197
f 178/197/178 179/198/179 199/219/199 198/218/198
f 179/198/179 180/199/180 200/220/200 199/219/199
f 180/199/180 181/200/181 201/221/201 200/220/200
f 181/200/181 182/201/182 202/222/202 201/221/201
f 182/201/182 183/202/183 203/223/203 202/222/202
f 183/202/183 184/203/184 204/224/204 203/223/203
f 184/203/184 185/204/185 205/225/205 204/224/204
f 185/204/185 186/205/186 206/226/206 205/225/205
f 186/205/186 187/206/187 207/227/207 206/226/206
f 187/206/187 188/207/188 208/228/208 207/227/207
f 188/207/188 169/208/170 189/229/190 208/228/208
f 189/209/190 190/210/189 210/231/209 209/230/210
f 190/210/189 191/211/191 211/232/211 210/231/209
f 191/211/191 192/212/192 212/233/212 211/232/211
f 192/212/192 193/213/193 213/234/213 212/233/212
f 193/213/193 194/214/194 214/235/214 213/234/213
f 194/214/194 195/215/195 215/236/215 214/235/214
f 195/215/195 196/216/196 216/237/216 215/236/215
f 196/216/196 197/217/197 217/238/217 216/237/216
f 197/217/197 198/218/198 218/239/218 217/238/217
f 198/218/198 199/219/199 219/240/219 218/239/218
f 199/219/199 200/220/200 220/241/220 219/240/219
f 200/220/200 201/221/201 221/242/221 220/241/220
f 201/221/201 202/222/202 222/243/222 221/242/221
f 202/222/202 203/223/203 223/244/223 222/243/222
f 203/223/203 204/224/204 224/245/224 223/244/223
f 204/224/204 205/225/205 225/246/225 224/245/224
f 205/225/205 206/226/206 226/247/226 225/246/225
f 206/226/206 207/227/207 227/248/227 226/247/226
f 207/227/207 208/228/208 228/249/228 227/248/227
f 208/228/208 189/229/190 209/250/210 228/249/228
f 209/230/210 210/231/209 230/252/229 229/251/230
f 210/231/209 211/232/211 231/253/231 230/252/229
f 211/232/211 212/233/212 232/254/232 231/253/231
f 212/233/212 213/234/213 233/255/233 232/254/232
f 213/234/213 214/235/214 234/256/234 233/255/233
f 214/235/214 215/236/215 235/257/235 234/256/234
f 215/236/215 216/237/216 236/258/236 235/257/235
f 216/237/216 217/238/217 237/259/237 236/258/236
f 217/238/217 218/239/218 238/260/238 237/259/237
f 218/239/218 219/240/219 239/261/239 238/260/238
f 219/240/219 220/241/220 240/262/240 239/261/239
f 220/241/220 221/242/221 241/263/241 240/262/240
f 221/242/221 222/243/222 242/264/242 241/263/241
f 222/243/222 223/244/223 243/265/243 242/264/242
f 223/244/223 224/245/224 244/266/244 243/265/243
f 224/245/224 225/246/225 245/267/245 244/266/244
f 225/246/225 226/247/226 246/268/246 245/267/245
f 226/247/226 227/248/227 247/269/247 246/268/246
f 227/248/227 228/249/228 248/270/248 247/269/247
f 228/249/228 209/250/210 229/271/230 248/270/248
f 229/251/230 230/252/229 250/273/249 249/272/250
f 230/252/229 231/253/231 251/274/251 250/273/249
f 231/253/231 232/254/232 252/275/252 251/274/251
f 232/254/232 233/255/233 253/276/253 252/275/252
f 233/255/233 234/256/234 254/277/254 253/276/253
f 234/256/234 235/257/235 255/278/255 254/277/254
f 235/257/235 236/258/236 256/279/256 255/278/255
f 236/258/236 237/259/237 257/280/257 256/279/256
f 237/259/237 238/260/238 258/281/258 257/280/257
f 238/260/238 239/261/239 259/282/259 258/281/258
f 239/261/239 240/262/240 260/283/260 259/282/259
f 240/262/240 241/263/241 261/284/261 260/283/260
f 241/263/241 242/264/242 262/285/262 261/284/261
f 242/264/242 243/265/243 263/286/263 262/285/262
f 243/265/243 244/266/244 264/287/264 263/286/263
f 244/266/244 245/267/245 265/288/265 264/287/264
f 245/267/245 246/268/246 266/289/266 265/288/265
f 246/268/246 247/269/247 267/290/267 266/289/266
f 247/269/247 248/270/248 268/291/268 267/290/267
f 248/270/248 229/271/230 249/292/250 268/291/268
f 249/272/250 250/273/249 270/294/269 269/293/270
f 250/273/249 251/274/251 271/295/271 270/294/269
f 251/274/251 252/275/252 272/296/272 271/295/271
f 252/275/252 253/276/253 273/297/273 272/296/272
f 253/276/253 254/277/254 274/298/274 273/297/273
f 254/277/254 255/278/255 275/299/275 274/298/274
f 255/278/255 256/279/256 276/300/276 275/299/275
f 256/279/256 257/280/257 277/301/277 276/300/276
f 257/280/257 258/281/258 278/302/278 277/301/277
f 258/281/258 259/282/259 279/303/279 278/302/278
f 259/282/259 260/283/260 280/304/280 279/303/279
f 260/283/260 261/284/261 281/305/281 280/304/280
f 261/284/261 262/285/262 282/306/282 281/305/281
f 262/285/262 263/286/263 283/307/283 282/306/282
f 263/286/263 264/287/264 284/308/284 283/307/283
f 264/287/264 265/288/265 285/309/285 284/308/284
f 265/288/265 266/289/266 286/310/286 285/309/285
f 266/289/266 267/290/267 287/311/287 286/310/286
f 267/290/267 268/291/268 288/312/288 287/311/287
f 268/291/268 249/292/250 269/313/270 288/312/288
f 269/293/270 270/294/269 290/315/289 289/314/290
f 270/294/269 271/295/271 291/316/291 290/315/289
f 271/295/271 272/296/272 292/317/292 291/316/291
f 272/296/272 273/297/273 293/318/293 292/317/292
f 273/297/273 274/298/274 294/319/294 293/318/293
f 274/298/274 275/299/275 295/320/295 294/319/294
f 275/299/275 276/300/276 296/321/296 295/320/295
f 276/300/276 277/301/277 297/322/297 296/321/296
f 277/301/277 278/302/278 298/323/298 297/322/297
f 278/302/278 279/303/279 299/324/299 298/323/298
f 279/303/279 280/304/280 300/325/300 299/324/299
f 280/304/280 281/305/281 301/326/301 300/325/300
f 281/305/281 282/306/282 302/327/302 301/326/301
f 282/306/282 283/307/283 303/328/303 302/327/302
f 283/307/283 284/308/284 304/329/304 303/328/303
f 284/308/284 285/309/285 305/330/305 304/329/304
f 285/309/285 286/310/286 306/331/306 305/330/305
f 286/310/286 287/311/287 307/332/307 306/331/306
f 287/311/287 288/312/288 308/333/308 307/332/307
f 288/312/288 269/313/270 289/334/290 308/333/308
f 289/314/290 290/315/289 309/335/309
f 290/315/289 291/316/291 309/336/309
f 291/316/291 292/317/292 309/337/309
f 292/317/292 293/318/293 309/338/309
f 293/318/293 294/319/294 309/339/309
f 294/319/294 295/320/295 309/340/309
f 295/320/295 296/321/296 309/341/309
f 296/321/296 297/322/297 309/342/309
f 297/322/297 298/323/298 309/343/309
f 298/323/298 299/324/299 309/344/309
f 299/324/299 300/325/300 309/345/309
f 300/325/300 301/326/301 309/346/309
f 301/326/301 302/327/302 309/347/309
f 302/327/302 303/328/303 309/348/309
f 303/328/303 304/329/304 309/349/309
f 304/329/304 305/330/305 309/350/309
f 305/330/305 306/331/306 309/351/309
f 306/331/306 307/332/307 309/352/309
f 307/332/307 308/333/308 309/353/309
f 308/333/308 289/334/290 309/354/309
f 329/437/310 370/438/311 371/439/312 328/435/313
f 330/355/314 331/356/315 333/357/316 332/358/317
f 331/398/315 330/396/314 368/394/318 369/400/319
f 332/358/317 333/436/316 335/434/320 334/360/321
f 334/360/321 335/434/320 337/432/322 336/362/323
f 336/362/323 337/432/322 339/430/324 338/364/325
f 338/364/325 339/430/324 341/428/326 340/366/327
f 340/366/327 341/428/326 343/426/328 342/368/329
f 342/368/329 343/426/328 345/424/330 344/370/331
f 344/370/331 345/424/330 347/422/332 346/372/333
f 346/372/333 347/422/332 349/420/334 348/374/335
f 348/374/335 349/420/334 351/418/336 350/376/337
f 350/376/337 351/418/336 353/416/338 352/378/339
f 352/378/339 353/416/338 355/414/340 354/380/341
f 354/380/341 355/414/340 357/412/342 356/382/343
f 356/382/343 357/412/342 359/410/344 358/384/345
f 358/384/345 359/410/344 361/408/346 360/386/347
f 360/386/347 361/408/346 363/406/348 362/388/349
f 362/388/349 363/406/348 365/404/350 364/390/351
f 364/390/351 365/404/350 367/402/352 366/392/353
f 366/392/353 367/402/352 369/400/319 368/394/318
f 330/355/314 332/358/317 130/361/130 129/359/129
f 332/358/317 334/360/321 131/363/133 130/361/130
f 334/360/321 336/362/323 132/365/135 131/363/133
f 336/362/323 338/364/325 133/367/137 132/365/135
f 338/364/325 340/366/327 134/369/139 133/367/137
f 340/366/327 342/368/329 135/371/141 134/369/139
f 342/368/329 344/370/331 136/373/143 135/371/141
f 344/370/331 346/372/333 137/375/145 136/373/143
f 346/372/333 348/374/335 138/377/147 137/375/145
f 348/374/335 350/376/337 139/379/149 138/377/147
f 350/376/337 352/378/339 140/381/151 139/379/149
f 352/378/339 354/380/341 141/383/153 140/381/151
f 354/380/341 356/382/343 142/385/155 141/383/153
f 356/382/343 358/384/345 143/387/157 142/385/155
f 358/384/345 360/386/347 144/389/159 143/387/157
f 360/386/347 362/388/349 145/391/161 144/389/159
f 362/388/349 364/390/351 146/393/163 145/391/161
f 364/390/351 366/392/353 147/395/165 146/393/163
f 366/392/353 368/394/318 148/397/167 147/395/165
f 368/394/318 330/396/314 129/166/129 148/397/167
f 333/436/316 331/398/315 310/401/354 311/399/355
f 331/398/315 369/400/319 312/403/356 310/401/354
f 369/400/319 367/402/352 313/405/357 312/403/356
f 367/402/352 365/404/350 314/407/358 313/405/357
f 365/404/350 363/406/348 315/409/359 314/407/358
f 363/406/348 361/408/346 316/411/360 315/409/359
f 361/408/346 359/410/344 317/413/361 316/411/360
f 359/410/344 357/412/342 318/415/362 317/413/361
f 357/412/342 355/414/340 319/417/363 318/415/362
f 355/414/340 353/416/338 320/419/364 319/417/363
f 353/416/338 351/418/336 321/421/365 320/419/364
f 351/418/336 349/420/334 322/423/366 321/421/365
f 349/420/334 347/422/332 323/425/367 322/423/366
f 347/422/332 345/424/330 324/427/368 323/425/367
f 345/424/330 343/426/328 325/429/369 324/427/368
f 343/426/328 341/428/326 326/431/370 325/429/369
f 341/428/326 339/430/324 327/433/371 326/431/370
f 339/430/324 337/432/322 328/435/313 327/433/371
f 337/432/322 335/434/320 329/437/310 328/435/313
f 335/434/320 333/436/316 311/399/355 329/437/310
f 328/435/313 371/439/312 372/440/372 327/433/371
f 326/431/370 373/441/373 374/442/374 325/429/369
f 327/433/371 372/440/372 373/441/373 326/431/370
f 325/429/369 374/442/374 375/443/375 324/427/368
f 311/399/355 376/444/376 370/438/311 329/437/310
f 370/438/311 376/444/376 314/407/358 315/409/359
f 371/439/312 370/438/311 315/409/359 316/411/360
f 372/440/372 371/439/312 316/411/360 317/413/361
f 373/441/373 372/440/372 317/413/361 318/415/362
f 374/442/374 373/441/373 318/415/362 319/417/363
f 320/419/364 375/443/375 374/442/374 319/417/363
f 322/423/366 375/443/375 320/419/364 321/421/365
f 324/427/368 375/443/375 322/423/366 323/425/367
f 311/399/355 310/401/354 312/403/356 376/444/376
f 314/407/358 376/444/376 312/403/356 313/405/357
g default
v -0.468379 0.140459 1.307616
v 0.192729 0.140459 1.439119
v 0.853837 0.140459 1.307616
v 1.080090 1.515202 1.442826
v -0.354137 1.515202 1.442826
v 0.909843 0.703704 1.442826
v -0.524385 0.703704 1.442826
v 0.352168 2.336399 1.627777
v -0.252363 2.178246 1.479139
v 0.956699 2.178246 1.479139
v -0.408950 0.143921 1.654356
v 0.200181 0.143921 1.654358
v -0.460553 0.691329 1.654358
v 0.809313 0.143921 1.654356
v 0.860915 0.691329 1.654358
v 1.017778 1.480010 1.654358
v 0.905058 2.119966 1.654359
v 0.347085 2.278118 1.654362
v -0.303690 1.480010 1.654358
v -0.208947 2.119966 1.654359
v -0.302812 0.238421 1.695241
v 0.213491 0.238421 1.695243
v -0.346550 0.737352 1.695243
v 0.729794 0.238421 1.695241
v 0.773533 0.737352 1.695243
v 0.906490 1.456189 1.695243
v 0.812830 2.025465 1.695243
v 0.338007 2.183618 1.695246
v -0.213593 1.456189 1.695243
v -0.131406 2.025465 1.695243
v -0.302811 0.238423 1.581789
v 0.213491 0.238423 1.581791
v -0.346549 0.737352 1.581791
v 0.729793 0.238423 1.581789
v 0.773531 0.737353 1.581791
v 0.906489 1.456189 1.581791
v 0.812829 2.025466 1.581791
v 0.338007 2.183618 1.581794
v -0.213592 1.456189 1.581791
v -0.131405 2.025466 1.581791
vt 0.531250 0.312500
vt 0.546875 0.312500
vt 0.562500 0.312500
vt 0.562500 0.562500
vt 0.531250 0.562500
vt 0.562500 0.437500
vt 0.531250 0.437500
vt 0.546875 0.604167
vt 0.531250 0.604167
vt 0.562500 0.604167
vt 0.531250 0.312500
vt 0.546875 0.312500
vt 0.531250 0.437500
vt 0.562500 0.312500
vt 0.562500 0.437500
vt 0.562500 0.562500
vt 0.562500 0.604167
vt 0.546875 0.604167
vt 0.531250 0.604167
vt 0.531250 0.562500
vt 0.531250 0.312500
vt 0.546875 0.312500
vt 0.531250 0.437500
vt 0.562500 0.312500
vt 0.562500 0.437500
vt 0.562500 0.562500
vt 0.562500 0.604167
vt 0.546875 0.604167
vt 0.531250 0.604167
vt 0.531250 0.562500
vt 0.531250 0.312500
vt 0.546875 0.312500
vt 0.531250 0.437500
vt 0.562500 0.312500
vt 0.562500 0.437500
vt 0.562500 0.562500
vt 0.562500 0.604167
vt 0.546875 0.604167
vt 0.531250 0.604167
vt 0.531250 0.562500
vn -0.652759 -0.742384 0.150903
vn -0.000025 -0.999923 0.012437
vn 0.000028 -0.999923 0.012435
vn -0.580321 -0.802969 0.135900
vn -0.968045 0.038938 0.247734
vn -0.967762 0.041953 0.248347
vn 0.643383 -0.756887 0.114806
vn 0.591673 -0.799068 0.106835
vn 0.967740 -0.156765 0.197239
vn 0.968309 -0.155041 0.195808
vn 0.961282 -0.025560 0.274378
vn 0.813763 0.395713 0.425677
vn 0.799661 0.415073 0.433885
vn 0.962142 -0.058712 0.266151
vn 0.015503 0.833536 0.552247
vn -0.012918 0.834179 0.551343
vn -0.830590 0.397033 0.390494
vn -0.826402 0.403088 0.393165
vn -0.947949 0.167204 0.270991
vn -0.947087 0.170854 0.271726
vn -0.199021 -0.188877 0.961622
vn -0.000000 -0.397068 0.917789
vn 0.000000 -0.397068 0.917789
vn -0.173042 -0.218033 0.960478
vn -0.350839 0.012197 0.936356
vn -0.362994 0.039089 0.930971
vn 0.194163 -0.244132 0.950105
vn 0.206518 -0.233535 0.950164
vn 0.392664 -0.055373 0.918014
vn 0.384786 -0.061855 0.920931
vn 0.357310 -0.001271 0.933985
vn 0.231658 0.202076 0.951577
vn 0.243353 0.187718 0.951599
vn 0.361322 -0.018742 0.932253
vn 0.007267 0.354860 0.934891
vn -0.005198 0.355681 0.934593
vn -0.245017 0.233184 0.941059
vn -0.279610 0.197571 0.939566
vn -0.389518 0.066478 0.918616
vn -0.388170 0.067181 0.919136
vn 0.665195 0.746669 0.000016
vn 0.000000 1.000000 0.000012
vn 0.000000 1.000000 0.000012
vn 0.665196 0.746669 0.000016
vn 0.997327 -0.073068 0.000011
vn 0.997327 -0.073069 0.000011
vn -0.665196 0.746669 0.000016
vn -0.665196 0.746669 0.000016
vn -0.989637 0.143594 0.000012
vn -0.989637 0.143594 0.000012
vn -0.999535 0.030494 0.000011
vn -0.787932 -0.615763 0.000005
vn -0.787930 -0.615765 0.000005
vn -0.999535 0.030493 0.000011
vn 0.000000 -1.000000 -0.000002
vn 0.000000 -1.000000 -0.000002
vn 0.796821 -0.604216 0.000005
vn 0.796819 -0.604219 0.000005
vn 0.986337 -0.164740 0.000010
vn 0.986337 -0.164740 0.000010
s 1
g door_frame
usemtl initialShadingGroup
f 377/445/377 378/446/378 388/456/379 387/455/380
f 383/451/381 377/445/377 387/455/380 389/457/382
f 378/446/378 379/447/383 390/458/384 388/456/379
f 379/447/383 382/450/385 391/459/386 390/458/384
f 380/448/387 386/454/388 393/461/389 392/460/390
f 386/454/388 384/452/391 394/462/392 393/461/389
f 384/452/391 385/453/393 396/463/394 394/462/392
f 385/453/393 381/449/395 395/464/396 396/463/394
f 382/450/385 380/448/387 392/460/390 391/459/386
f 381/449/395 383/451/381 389/457/382 395/464/396
s 3
f 387/455/397 388/456/398 398/466/399 397/465/400
f 389/457/401 387/455/397 397/465/400 399/467/402
f 388/456/398 390/458/403 400/468/404 398/466/399
f 390/458/403 391/459/405 401/469/406 400/468/404
f 392/460/407 393/461/408 403/471/409 402/470/410
f 393/461/408 394/462/411 404/472/412 403/471/409
f 394/462/411 396/463/413 406/473/414 404/472/412
f 396/463/413 395/464/415 405/474/416 406/473/414
f 391/459/405 392/460/407 402/470/410 401/469/406
f 395/464/415 389/457/401 399/467/402 405/474/416
s 5
f 397/465/417 398/466/418 408/476/419 407/475/420
f 399/467/421 397/465/417 407/475/420 409/477/422
f 398/466/418 400/468/423 410/478/424 408/476/419
f 400/468/423 401/469/425 411/479/426 410/478/424
f 402/470/427 403/471/428 413/481/429 412/480/430
f 403/471/428 404/472/431 414/482/432 413/481/429
f 404/472/431 406/473/433 416/483/434 414/482/432
f 406/473/433 405/474/435 415/484/436 416/483/434
f 401/469/425 402/470/427 412/480/430 411/479/426
f 405/474/435 399/467/421 409/477/422 415/484/436
g default
v 1.472550 2.725335 1.101983
v 1.478490 2.618956 1.128918
v 1.447114 2.523683 1.173821
v 1.383199 2.454023 1.229854
v 1.296475 2.420580 1.288488
v 1.200145 2.428445 1.340797
v 1.108875 2.476422 1.378815
v 1.036559 2.557206 1.396756
v 0.994207 2.658498 1.391889
v 0.988267 2.764878 1.364954
v 1.019642 2.860150 1.320051
v 1.083558 2.929810 1.264018
v 1.170282 2.963253 1.205384
v 1.266612 2.955387 1.153076
v 1.357882 2.907411 1.115057
v 1.430198 2.826627 1.097116
v 1.413136 2.695452 0.997062
v 1.419077 2.589072 1.023998
v 1.387701 2.493800 1.068900
v 1.323786 2.424139 1.124933
v 1.237062 2.390696 1.183568
v 1.140732 2.398562 1.235875
v 1.049461 2.446538 1.273894
v 0.977146 2.527322 1.291835
v 0.934794 2.628614 1.286968
v 0.928853 2.734994 1.260033
v 0.960229 2.830266 1.215130
v 1.024145 2.899926 1.159097
v 1.110869 2.933369 1.100463
v 1.207199 2.925504 1.048155
v 1.298469 2.877528 1.010136
v 1.370785 2.796744 0.992195
v 1.259804 2.901414 1.172303
v 1.332377 2.863266 1.142073
v 1.183208 2.907668 1.213896
v 1.114249 2.881076 1.260518
v 1.063427 2.825686 1.305073
v 1.038479 2.749931 1.340777
v 1.043202 2.665344 1.362195
v 1.076878 2.584802 1.366065
v 1.134380 2.520567 1.351799
v 1.206953 2.482419 1.321569
v 1.283549 2.476165 1.279976
v 1.352507 2.502757 1.233354
v 1.403329 2.558147 1.188799
v 1.428278 2.633902 1.153095
v 1.423555 2.718489 1.131678
v 1.389879 2.799031 1.127807
v 1.245967 2.894454 1.147868
v 1.318540 2.856306 1.117638
v 1.169371 2.900708 1.189460
v 1.100412 2.874116 1.236083
v 1.049590 2.818726 1.280638
v 1.024642 2.742971 1.316342
v 1.029365 2.658384 1.337759
v 1.063041 2.577842 1.341629
v 1.120543 2.513607 1.327364
v 1.193116 2.475459 1.297133
v 1.269712 2.469204 1.255541
v 1.338670 2.495797 1.208918
v 1.389492 2.551187 1.164363
v 1.414441 2.626942 1.128659
v 1.409717 2.711529 1.107242
v 1.376042 2.792071 1.103371
v 1.178882 2.730377 1.232588
v 1.255478 2.724123 1.190995
v 1.260201 2.639536 1.212413
v 1.183605 2.645790 1.254005
v 1.189824 2.735881 1.251911
v 1.266420 2.729627 1.210319
v 1.271143 2.645040 1.231736
v 1.194547 2.651294 1.273329
vt 0.644356 0.096456
vt 0.610485 0.045765
vt 0.559794 0.011894
vt 0.500000 0.000000
vt 0.440206 0.011894
vt 0.389515 0.045765
vt 0.355644 0.096456
vt 0.343750 0.156250
vt 0.355644 0.216044
vt 0.389515 0.266735
vt 0.440206 0.300606
vt 0.500000 0.312500
vt 0.559794 0.300606
vt 0.610485 0.266735
vt 0.644356 0.216044
vt 0.656250 0.156250
vt 0.375000 0.312500
vt 0.390625 0.312500
vt 0.406250 0.312500
vt 0.421875 0.312500
vt 0.437500 0.312500
vt 0.453125 0.312500
vt 0.468750 0.312500
vt 0.484375 0.312500
vt 0.500000 0.312500
vt 0.515625 0.312500
vt 0.531250 0.312500
vt 0.546875 0.312500
vt 0.562500 0.312500
vt 0.578125 0.312500
vt 0.593750 0.312500
vt 0.609375 0.312500
vt 0.625000 0.312500
vt 0.375000 0.687500
vt 0.390625 0.687500
vt 0.406250 0.687500
vt 0.421875 0.687500
vt 0.437500 0.687500
vt 0.453125 0.687500
vt 0.468750 0.687500
vt 0.484375 0.687500
vt 0.500000 0.687500
vt 0.515625 0.687500
vt 0.531250 0.687500
vt 0.546875 0.687500
vt 0.562500 0.687500
vt 0.578125 0.687500
vt 0.593750 0.687500
vt 0.609375 0.687500
vt 0.625000 0.687500
vt 0.644356 0.216044
vt 0.605058 0.260481
vt 0.557174 0.294279
vt 0.500000 0.312500
vt 0.440206 0.300606
vt 0.395769 0.261308
vt 0.361971 0.213423
vt 0.343750 0.156250
vt 0.355644 0.096456
vt 0.394942 0.052019
vt 0.442827 0.018221
vt 0.500000 0.000000
vt 0.559794 0.011894
vt 0.604232 0.051192
vt 0.638029 0.099076
vt 0.656250 0.156250
vt 0.644356 0.216044
vt 0.610485 0.266735
vt 0.559794 0.300606
vt 0.500000 0.312500
vt 0.440206 0.300606
vt 0.389515 0.266735
vt 0.355644 0.216044
vt 0.343750 0.156250
vt 0.355644 0.096456
vt 0.389515 0.045765
vt 0.440206 0.011894
vt 0.500000 0.000000
vt 0.559794 0.011894
vt 0.610485 0.045765
vt 0.644356 0.096456
vt 0.656250 0.156250
vt 0.491590 0.198531
vt 0.542281 0.164660
vt 0.508410 0.113969
vt 0.457719 0.147840
vt 0.542281 0.164660
vt 0.610474 0.266736
vt 0.559801 0.300595
vt 0.491590 0.198531
vt 0.440200 0.011905
vt 0.508410 0.113969
vt 0.457719 0.147840
vt 0.389527 0.045765
vt 0.644345 0.096449
vt 0.610486 0.045777
vt 0.355655 0.216051
vt 0.389515 0.266723
vn 0.849155 0.118650 -0.514644
vn 0.870245 -0.259043 -0.419011
vn 0.870246 -0.259041 -0.419011
vn 0.849154 0.118652 -0.514644
vn 0.758850 -0.597295 -0.259588
vn 0.758849 -0.597296 -0.259587
vn 0.531927 -0.844616 -0.060646
vn 0.531926 -0.844616 -0.060646
vn 0.224020 -0.963354 0.147529
vn 0.224020 -0.963354 0.147529
vn -0.117993 -0.935428 0.333244
vn -0.117993 -0.935428 0.333245
vn -0.442040 -0.765092 0.468226
vn -0.442040 -0.765092 0.468225
vn -0.698790 -0.478278 0.531923
vn -0.698790 -0.478278 0.531923
vn -0.849156 -0.118651 0.514641
vn -0.849156 -0.118651 0.514641
vn -0.870246 0.259040 0.419010
vn -0.870246 0.259040 0.419010
vn -0.758849 0.597297 0.259587
vn -0.758849 0.597297 0.259587
vn -0.531923 0.844618 0.060644
vn -0.531923 0.844618 0.060644
vn -0.224018 0.963354 -0.147530
vn -0.224019 0.963354 -0.147530
vn 0.117991 0.935429 -0.333243
vn 0.117991 0.935429 -0.333243
vn 0.442038 0.765094 -0.468224
vn 0.442039 0.765093 -0.468224
vn 0.698789 0.478278 -0.531924
vn 0.698789 0.478278 -0.531924
vn 0.491006 0.226197 0.841277
vn 0.466857 0.228168 0.854391
vn 0.479215 0.222194 0.849107
vn 0.479215 0.222195 0.849107
vn 0.478278 0.240561 0.844618
vn 0.478277 0.240559 0.844619
vn 0.478278 0.240561 0.844618
vn 0.478277 0.240561 0.844619
vn 0.478278 0.240564 0.844618
vn 0.478278 0.240564 0.844618
vn 0.478277 0.240564 0.844618
vn 0.478277 0.240564 0.844618
vn 0.478277 0.240563 0.844619
vn 0.494784 0.239165 0.835457
vn 0.478278 0.240563 0.844618
vn 0.494785 0.239165 0.835457
vn 0.478278 0.240563 0.844618
vn 0.478278 0.240563 0.844618
vn 0.478278 0.240563 0.844618
vn 0.478278 0.240563 0.844618
vn 0.478278 0.240563 0.844618
vn 0.477169 0.258844 0.839827
vn 0.478278 0.240563 0.844618
vn 0.477169 0.258844 0.839827
vn 0.478277 0.240562 0.844619
vn 0.478277 0.240562 0.844619
vn 0.478277 0.240564 0.844618
vn 0.478277 0.240564 0.844618
vn 0.478281 0.240564 0.844616
vn 0.461600 0.241874 0.853477
vn 0.478281 0.240564 0.844616
vn 0.461600 0.241874 0.853477
vn 0.478279 0.240565 0.844617
vn 0.478279 0.240565 0.844617
vn -0.442038 -0.765092 0.468227
vn 0.735698 -0.634958 -0.235746
vn 0.764254 -0.587798 -0.265349
vn -0.442039 -0.765091 0.468228
vn -0.671195 -0.520085 0.528214
vn 0.531929 -0.844615 -0.060639
vn 0.531928 -0.844615 -0.060639
vn -0.705302 -0.467810 0.532638
vn 0.758851 -0.597295 -0.259584
vn 0.758851 -0.597295 -0.259584
vn 0.479591 0.734130 -0.480672
vn 0.432636 0.772408 -0.464986
vn 0.566343 -0.819535 -0.087281
vn 0.698788 0.478278 -0.531926
vn 0.698788 0.478278 -0.531926
vn 0.523259 -0.850456 -0.054078
vn 0.442036 0.765091 -0.468230
vn 0.442037 0.765091 -0.468230
vn -0.735698 0.634958 0.235745
vn -0.764251 0.587803 0.265345
vn 0.671196 0.520081 -0.528216
vn -0.531933 0.844613 0.060635
vn -0.531932 0.844613 0.060635
vn 0.705301 0.467810 -0.532640
vn -0.758852 0.597295 0.259582
vn -0.758852 0.597295 0.259582
vn -0.479597 -0.734125 0.480675
vn -0.432639 -0.772405 0.464987
vn -0.566341 0.819537 0.087274
vn -0.698791 -0.478276 0.531924
vn -0.698790 -0.478277 0.531924
vn -0.523262 0.850454 0.054074
vn 0.465368 0.254837 0.847639
vn 0.489517 0.252866 0.834525
vn 0.581588 0.633866 -0.509871
vn 0.581586 0.633868 -0.509871
vn -0.658031 0.735081 0.163252
vn -0.658031 0.735081 0.163252
vn 0.658032 -0.735080 -0.163253
vn 0.658032 -0.735080 -0.163253
vn -0.581590 -0.633865 0.509871
vn -0.581590 -0.633866 0.509871
s 1
g window_frame
usemtl initialShadingGroup
f 417/501/437 418/502/438 434/519/439 433/518/440
f 418/502/438 419/503/441 435/520/442 434/519/439
f 419/503/441 420/504/443 436/521/444 435/520/442
f 420/504/443 421/505/445 437/522/446 436/521/444
f 421/505/445 422/506/447 438/523/448 437/522/446
f 422/506/447 423/507/449 439/524/450 438/523/448
f 423/507/449 424/508/451 440/525/452 439/524/450
f 424/508/451 425/509/453 441/526/454 440/525/452
f 425/509/453 426/510/455 442/527/456 441/526/454
f 426/510/455 427/511/457 443/528/458 442/527/456
f 427/511/457 428/512/459 444/529/460 443/528/458
f 428/512/459 429/513/461 445/530/462 444/529/460
f 429/513/461 430/514/463 446/531/464 445/530/462
f 430/514/463 431/515/465 447/532/466 446/531/464
f 431/515/465 432/516/467 448/533/468 447/532/466
f 432/516/467 417/517/437 433/534/440 448/533/468
s 2
f 485/574/469 486/571/470 449/572/471 451/573/472
f 431/499/473 430/498/474 449/536/471 450/535/475
f 430/498/474 429/497/476 451/537/472 449/536/471
f 429/497/476 428/496/477 452/538/478 451/537/472
f 428/496/477 427/495/479 453/539/480 452/538/478
f 427/495/479 426/494/481 454/540/482 453/539/480
f 426/494/481 425/493/483 455/541/484 454/540/482
f 425/493/483 424/492/485 456/542/486 455/541/484
f 424/492/485 423/491/487 457/543/488 456/542/486
f 423/491/487 422/490/489 458/544/490 457/543/488
f 422/490/489 421/489/491 459/545/492 458/544/490
f 421/489/491 420/488/493 460/546/494 459/545/492
f 420/488/493 419/487/495 461/547/496 460/546/494
f 419/487/495 418/486/497 462/548/498 461/547/496
f 418/486/497 417/485/499 463/549/500 462/548/498
f 417/485/499 432/500/501 464/550/502 463/549/500
f 432/500/501 431/499/473 450/535/475 464/550/502
s 3
f 450/535/503 449/536/504 465/552/505 466/551/506
s 4
f 451/537/507 452/538/508 468/554/509 467/553/510
f 452/538/508 453/539/511 469/555/512 468/554/509
f 453/539/511 454/540/513 470/556/514 469/555/512
s 5
f 455/541/515 456/542/516 472/558/517 471/557/518
f 456/542/516 457/543/519 473/559/520 472/558/517
f 457/543/519 458/544/521 474/560/522 473/559/520
s 6
f 459/545/523 460/546/524 476/562/525 475/561/526
f 460/546/524 461/547/527 477/563/528 476/562/525
f 461/547/527 462/548/529 478/564/530 477/563/528
s 3
f 463/549/531 464/550/532 480/566/533 479/565/534
f 464/550/532 450/535/503 466/551/506 480/566/533
s 2
f 459/575/492 487/576/535 488/577/536 458/578/490
f 463/579/500 486/571/470 487/576/535 462/580/498
f 488/577/536 487/576/535 486/571/470 485/574/469
f 455/581/484 488/577/536 485/574/469 454/582/482
s 3
f 482/568/537 465/552/505 449/572/504 486/571/538
s 4
f 467/553/510 481/567/539 485/574/540 451/573/507
s 6
f 475/561/526 483/569/541 487/576/542 459/575/523
s 5
f 484/570/543 474/560/522 458/578/521 488/577/544
s 3
f 479/565/534 482/568/537 486/571/538 463/579/531
s 6
f 483/569/541 478/564/530 462/580/529 487/576/542
s 5
f 471/557/518 484/570/543 488/577/544 455/581/515
s 4
f 481/567/539 470/556/514 454/582/513 485/574/540
