# author: headus 3D tools
#  using: ply2obj v1.12
#   from: uvlayout v2024.02
# 391 vertices
v 0.4372240 0.6465170 0.1960060
v 0.3346370 0.6648030 0.0435661
v 0.1811041 0.6770210 -0.0582909
v 0.0000000 0.6813120 -0.0940580
v -0.1811039 0.6770210 -0.0582909
v -0.3346369 0.6648030 0.0435661
v -0.4372240 0.6465170 0.1960060
v -0.4732480 0.6249461 0.3758210
v -0.4372240 0.6033760 0.5556360
v -0.3346369 0.5850900 0.7080760
v -0.1811039 0.5728711 0.8099330
v 0.0000000 0.5685811 0.8457000
v 0.1811041 0.5728711 0.8099330
v 0.3346370 0.5850900 0.7080760
v 0.4372240 0.6033760 0.5556360
v 0.4732480 0.6249461 0.3758210
v 0.0000000 0.6249461 0.3758210
v 0.0928430 1.1809451 0.3984260
v 0.0536030 1.2201851 0.3984260
v 0.0000000 1.2345480 0.3984260
v -0.0536030 1.2201851 0.3984260
v -0.0928430 1.1809451 0.3984260
v -0.1072060 1.1273420 0.3984260
v -0.0928430 1.0737390 0.3984260
v -0.0536030 1.0344990 0.3984260
v 0.0000000 1.0201360 0.3984260
v 0.0536030 1.0344990 0.3984260
v 0.0928430 1.0737390 0.3984260
v 0.1072061 1.1273420 0.3984260
v 0.0928430 1.1809451 0.5762370
v 0.0536030 1.2201851 0.5762370
v 0.0000000 1.2345480 0.5762370
v -0.0536030 1.2201851 0.5762370
v -0.0928430 1.1809451 0.5762370
v -0.1072060 1.1273420 0.5762370
v -0.0928430 1.0737390 0.5762370
v -0.0536030 1.0344990 0.5762370
v 0.0000000 1.0201360 0.5762370
v 0.0536030 1.0344990 0.5762370
v 0.0928430 1.0737390 0.5762370
v 0.1072061 1.1273420 0.5762370
v 0.0820900 1.1273420 0.5762370
v 0.0710920 1.1683870 0.5762370
v 0.0410450 1.1984340 0.5762370
v 0.0000000 1.2094320 0.5762370
v -0.0410450 1.1984340 0.5762370
v -0.0710919 1.1683870 0.5762370
v -0.0820900 1.1273420 0.5762370
v -0.0710919 1.0862970 0.5762370
v -0.0410450 1.0562500 0.5762370
v 0.0000000 1.0452519 0.5762370
v 0.0410450 1.0562500 0.5762370
v 0.0710920 1.0862970 0.5762370
v 0.0643352 1.1273420 0.5303489
v 0.0557161 1.1595100 0.5303489
v 0.0321680 1.1830580 0.5303489
v 0.0000000 1.1916770 0.5303489
v -0.0321680 1.1830580 0.5303489
v -0.0557160 1.1595100 0.5303489
v -0.0643350 1.1273420 0.5303489
v -0.0557160 1.0951739 0.5303489
v -0.0321680 1.0716259 0.5303489
v 0.0000000 1.0630070 0.5303489
v 0.0321680 1.0716259 0.5303489
v 0.0557161 1.0951739 0.5303489
v 0.0371390 1.1273420 0.5303489
v 0.0321630 1.1459110 0.5303489
v 0.0185690 1.1595050 0.5303489
v 0.0000000 1.1644810 0.5303489
v -0.0185690 1.1595050 0.5303489
v -0.0321630 1.1459110 0.5303489
v -0.0371390 1.1273420 0.5303489
v -0.0321630 1.1087730 0.5303489
v -0.0185690 1.0951790 0.5303489
v 0.0000000 1.0902040 0.5303489
v 0.0185690 1.0951790 0.5303489
v 0.0321630 1.1087730 0.5303489
v 0.0371390 1.1273420 0.5459439
v 0.0321630 1.1459110 0.5459439
v 0.0185690 1.1595050 0.5459439
v 0.0000000 1.1644810 0.5459439
v -0.0185690 1.1595050 0.5459439
v -0.0321630 1.1459110 0.5459439
v -0.0371390 1.1273420 0.5459439
v -0.0321630 1.1087730 0.5459439
v -0.0185690 1.0951790 0.5459439
v 0.0000000 1.0902040 0.5459439
v 0.0185690 1.0951790 0.5459439
v 0.0321630 1.1087730 0.5459439
v -0.0185690 1.1273420 0.5459439
v 0.0000000 1.1273420 0.5459439
v 0.0185690 1.1273420 0.5459439
v 0.4855580 1.3275650 -0.2011240
v 0.3716301 1.3275650 -0.3716290
v 0.2011250 1.3275650 -0.4855570
v 0.0000000 1.3275650 -0.5255640
v -0.2011239 1.3275650 -0.4855579
v -0.3716300 1.3275650 -0.3716300
v -0.4855580 1.3275650 -0.2011249
v -0.5255640 1.3275650 0.0000000
v -0.4855580 1.3275650 0.2011239
v -0.3716300 1.3275650 0.3716300
v -0.2011250 1.3275650 0.4855580
v 0.0000000 1.3275650 0.5255640
v 0.2011240 1.3275650 0.4855580
v 0.3716301 1.3275650 0.3716300
v 0.4855580 1.3275650 0.2011249
v 0.5255639 1.3275650 0.0000000
v 0.4751969 1.4498349 -0.1968330
v 0.3637000 1.4498349 -0.3636990
v 0.1968330 1.4498349 -0.4751960
v 0.0000000 1.4498349 -0.5143490
v -0.1968330 1.4498349 -0.4751970
v -0.3637000 1.4498349 -0.3637000
v -0.4751970 1.4498349 -0.1968330
v -0.5143490 1.4498349 0.0000000
v -0.4751970 1.4498349 0.1968329
v -0.3637000 1.4498349 0.3637000
v -0.1968330 1.4498349 0.4751970
v 0.0000000 1.4498349 0.5143489
v 0.1968330 1.4498349 0.4751970
v 0.3637000 1.4498349 0.3637000
v 0.4751969 1.4498349 0.1968329
v 0.5143489 1.4498349 0.0000000
v 0.4476250 1.5482140 -0.1854120
v 0.3425980 1.5482140 -0.3425969
v 0.1854131 1.5482140 -0.4476250
v 0.0000000 1.5482140 -0.4845059
v -0.1854120 1.5482140 -0.4476250
v -0.3425970 1.5482140 -0.3425980
v -0.4476250 1.5482140 -0.1854130
v -0.4845060 1.5482140 0.0000000
v -0.4476250 1.5482140 0.1854121
v -0.3425980 1.5482140 0.3425979
v -0.1854129 1.5482140 0.4476250
v 0.0000000 1.5482140 0.4845060
v 0.1854121 1.5482140 0.4476250
v 0.3425980 1.5482140 0.3425979
v 0.4476250 1.5482140 0.1854131
v 0.4845059 1.5482140 0.0000000
v 0.4028520 1.6388800 -0.1668670
v 0.3083300 1.6388800 -0.3083300
v 0.1668670 1.6388800 -0.4028519
v 0.0000000 1.6388800 -0.4360440
v -0.1668670 1.6388800 -0.4028519
v -0.3083299 1.6388800 -0.3083300
v -0.4028520 1.6388800 -0.1668670
v -0.4360440 1.6388800 0.0000000
v -0.4028520 1.6388800 0.1668671
v -0.3083299 1.6388800 0.3083300
v -0.1668670 1.6388800 0.4028520
v 0.0000000 1.6388800 0.4360440
v 0.1668670 1.6388800 0.4028520
v 0.3083300 1.6388800 0.3083300
v 0.4028520 1.6388800 0.1668671
v 0.4360442 1.6388800 0.0000000
v 0.3425980 1.7183490 -0.1419080
v 0.2622130 1.7183490 -0.2622130
v 0.1419090 1.7183490 -0.3425980
v 0.0000000 1.7183490 -0.3708250
v -0.1419080 1.7183490 -0.3425980
v -0.2622130 1.7183490 -0.2622130
v -0.3425980 1.7183490 -0.1419090
v -0.3708249 1.7183490 0.0000000
v -0.3425980 1.7183490 0.1419081
v -0.2622130 1.7183490 0.2622129
v -0.1419090 1.7183490 0.3425979
v 0.0000000 1.7183490 0.3708248
v 0.1419090 1.7183490 0.3425979
v 0.2622130 1.7183490 0.2622129
v 0.3425980 1.7183490 0.1419091
v 0.3708250 1.7183490 0.0000000
v 0.2691770 1.7835690 -0.1114970
v 0.2060190 1.7835690 -0.2060190
v 0.1114970 1.7835690 -0.2691770
v 0.0000000 1.7835690 -0.2913550
v -0.1114970 1.7835690 -0.2691770
v -0.2060190 1.7835690 -0.2060190
v -0.2691770 1.7835690 -0.1114970
v -0.2913550 1.7835690 0.0000000
v -0.2691770 1.7835690 0.1114970
v -0.2060190 1.7835690 0.2060190
v -0.1114970 1.7835690 0.2691769
v 0.0000000 1.7835690 0.2913550
v 0.1114970 1.7835690 0.2691769
v 0.2060190 1.7835690 0.2060190
v 0.2691770 1.7835690 0.1114970
v 0.2913551 1.7835690 0.0000000
v 0.1854131 1.8320310 -0.0768000
v 0.1419090 1.8320310 -0.1419090
v 0.0768001 1.8320310 -0.1854120
v 0.0000000 1.8320310 -0.2006890
v -0.0768000 1.8320310 -0.1854130
v -0.1419090 1.8320310 -0.1419090
v -0.1854120 1.8320310 -0.0768000
v -0.2006890 1.8320310 0.0000000
v -0.1854129 1.8320310 0.0768000
v -0.1419090 1.8320310 0.1419091
v -0.0768000 1.8320310 0.1854131
v 0.0000000 1.8320310 0.2006890
v 0.0768001 1.8320310 0.1854131
v 0.1419090 1.8320310 0.1419091
v 0.1854131 1.8320310 0.0768000
v 0.2006890 1.8320310 0.0000000
v 0.0945230 1.8618741 -0.0391520
v 0.0723440 1.8618741 -0.0723440
v 0.0391530 1.8618741 -0.0945219
v 0.0000000 1.8618741 -0.1023100
v -0.0391520 1.8618741 -0.0945219
v -0.0723440 1.8618741 -0.0723440
v -0.0945220 1.8618741 -0.0391530
v -0.1023100 1.8618741 0.0000000
v -0.0945220 1.8618741 0.0391520
v -0.0723440 1.8618741 0.0723440
v -0.0391530 1.8618741 0.0945220
v 0.0000000 1.8618741 0.1023100
v 0.0391520 1.8618741 0.0945220
v 0.0723440 1.8618741 0.0723440
v 0.0945220 1.8618741 0.0391520
v 0.1023100 1.8618741 0.0000000
v 0.0000000 1.8719501 0.0000000
v 0.4855580 0.2764380 -0.2011240
v 0.3716301 0.2764380 -0.3716290
v 0.2011250 0.2764380 -0.4855570
v 0.0000000 0.2764380 -0.5255640
v -0.2011239 0.2764380 -0.4855579
v -0.3716300 0.2764380 -0.3716300
v -0.4855580 0.2764380 -0.2011249
v -0.5255640 0.2764380 0.0000000
v -0.4855580 0.2764380 0.2011239
v -0.3716300 0.2764380 0.3716300
v -0.2011250 0.2764380 0.4855580
v 0.0000000 0.2764380 0.5255640
v 0.2011240 0.2764380 0.4855580
v 0.3716301 0.2764380 0.3716300
v 0.4855580 0.2764380 0.2011249
v 0.5255639 0.2764380 0.0000000
v 0.2923300 0.2764380 0.2923300
v 0.3819471 0.2764380 0.1582080
v 0.1582080 0.2764380 0.3819470
v 0.0000000 0.2764380 0.4134160
v -0.1582080 0.2764380 0.3819470
v -0.2923299 0.2764380 0.2923300
v -0.3819470 0.2764380 0.1582080
v -0.4134160 0.2764380 0.0000000
v -0.3819470 0.2764380 -0.1582080
v -0.2923289 0.2764380 -0.2923300
v -0.1582070 0.2764380 -0.3819470
v 0.0000000 0.2764380 -0.4134159
v 0.1582080 0.2764380 -0.3819470
v 0.2923300 0.2764380 -0.2923290
v 0.3819471 0.2764380 -0.1582070
v 0.4134160 0.2764380 0.0000000
v 0.2923300 0.1631880 0.2923300
v 0.3819471 0.1631880 0.1582080
v 0.1582080 0.1631880 0.3819470
v 0.0000000 0.1631880 0.4134160
v -0.1582080 0.1631880 0.3819470
v -0.2923299 0.1631880 0.2923300
v -0.3819470 0.1631880 0.1582080
v -0.4134160 0.1631880 0.0000000
v -0.3819470 0.1631880 -0.1582080
v -0.2923289 0.1631880 -0.2923300
v -0.1582070 0.1631880 -0.3819470
v 0.0000000 0.1631880 -0.4134159
v 0.1582080 0.1631880 -0.3819470
v 0.2923300 0.1631880 -0.2923290
v 0.3819471 0.1631880 -0.1582070
v 0.4134160 0.1631880 0.0000000
v 0.2207620 0.1631880 0.2207620
v 0.2884400 0.1631880 0.1194760
v 0.1194761 0.1631880 0.2884399
v 0.0000000 0.1631880 0.3122049
v -0.1194759 0.1631880 0.2884399
v -0.2207620 0.1631880 0.2207620
v -0.2884400 0.1631880 0.1194750
v -0.3122050 0.1631880 0.0000000
v -0.2884400 0.1631880 -0.1194760
v -0.2207620 0.1631880 -0.2207620
v -0.1194749 0.1631880 -0.2884400
v 0.0000000 0.1631880 -0.3122050
v 0.1194761 0.1631880 -0.2884400
v 0.2207620 0.1631880 -0.2207620
v 0.2884400 0.1631880 -0.1194750
v 0.3122050 0.1631880 0.0000000
v 0.2207620 0.0591900 0.2207620
v 0.2884400 0.0591900 0.1194760
v 0.1194761 0.0591900 0.2884399
v 0.0000000 0.0591900 0.3122049
v -0.1194759 0.0591900 0.2884399
v -0.2207620 0.0591900 0.2207620
v -0.2884400 0.0591900 0.1194750
v -0.3122050 0.0591900 0.0000000
v -0.2884400 0.0591900 -0.1194760
v -0.2207620 0.0591900 -0.2207620
v -0.1194749 0.0591900 -0.2884400
v 0.0000000 0.0591900 -0.3122050
v 0.1194761 0.0591900 -0.2884400
v 0.2207620 0.0591900 -0.2207620
v 0.2884400 0.0591900 -0.1194750
v 0.3122050 0.0591900 0.0000000
v 0.5255639 0.5917761 0.0000000
v 0.4855580 0.5917761 0.2011249
v 0.3716301 0.5917761 0.3716300
v 0.2011240 0.5917761 0.4855580
v 0.0000000 0.5917761 0.5255640
v -0.2011250 0.5917761 0.4855580
v -0.3716300 0.5917761 0.3716300
v -0.4855580 0.5917761 0.2011239
v -0.5255640 0.5917761 0.0000000
v 0.5255639 0.6653550 0.0000000
v 0.4855580 0.6653550 0.2011249
v 0.3716301 0.6653550 0.3716300
v 0.2011240 0.6653550 0.4855580
v 0.0000000 0.6653550 0.5255640
v -0.2011250 0.6653550 0.4855580
v -0.3716300 0.6653550 0.3716300
v -0.4855580 0.6653550 0.2011239
v -0.5255640 0.6653550 0.0000000
v -0.4855580 0.6653550 -0.2011249
v 0.0000000 0.6653550 0.3716300
v 0.0000000 0.6653550 0.2011239
v 0.0000000 0.6653550 0.0000000
v 0.0000000 0.5917761 0.0000000
v 0.0000000 0.5917761 0.2011239
v 0.0000000 0.5917761 0.3716300
v 0.4855580 0.6653550 -0.2011240
v 0.5255639 0.7815470 0.0000000
v 0.4855580 0.7815470 0.2011249
v 0.3716301 0.7815470 0.3716300
v 0.2011240 0.7815470 0.4855580
v 0.0000000 0.7815470 0.5255640
v -0.2011250 0.7815470 0.4855580
v -0.3716300 0.7815470 0.3716300
v -0.4855580 0.7815470 0.2011239
v -0.5255640 0.7815470 0.0000000
v -0.4855580 0.7815470 -0.2011249
v -0.3716300 0.7815450 -0.3716300
v -0.2011239 0.7815450 -0.4855579
v 0.0000000 0.7815450 -0.5255640
v 0.2011250 0.7815450 -0.4855570
v 0.3716301 0.7815450 -0.3716290
v 0.4855580 0.7815470 -0.2011240
v 0.5255639 0.7495480 0.0000000
v 0.4855580 0.7495480 0.2011249
v 0.3716301 0.7495480 0.3716300
v 0.2011240 0.7495480 0.4855580
v 0.0000000 0.7495480 0.5255640
v -0.2011250 0.7495480 0.4855580
v -0.3716300 0.7495480 0.3716300
v -0.4855580 0.7495480 0.2011239
v -0.5255640 0.7495480 0.0000000
v -0.4855580 0.7495480 -0.2011249
v -0.3716300 0.7495480 -0.3716300
v -0.2011239 0.7495480 -0.4855579
v 0.0000000 0.7495480 -0.5255640
v 0.2011250 0.7495480 -0.4855570
v 0.3716301 0.7495480 -0.3716290
v 0.4855580 0.7495480 -0.2011240
v 0.4663690 0.7495480 0.0000000
v 0.4308680 0.7495480 0.1784720
v 0.4663690 0.7815470 0.0000000
v 0.4308680 0.7815470 0.1784720
v 0.3297720 0.7495480 0.3297720
v 0.3297720 0.7815470 0.3297720
v 0.1784721 0.7495480 0.4308690
v 0.1784721 0.7815470 0.4308690
v 0.0000000 0.7495480 0.4663690
v 0.0000000 0.7815470 0.4663690
v -0.1784720 0.7495480 0.4308680
v -0.1784720 0.7815470 0.4308680
v -0.3297729 0.7495480 0.3297720
v -0.3297729 0.7815470 0.3297720
v -0.4308690 0.7495480 0.1784710
v -0.4308690 0.7815470 0.1784710
v -0.4663690 0.7495480 0.0000000
v -0.4663690 0.7815470 0.0000000
v -0.4308680 0.7495480 -0.1784719
v -0.4308680 0.7815470 -0.1784719
v -0.3297720 0.7495480 -0.3297730
v -0.3297720 0.7815450 -0.3297730
v -0.1784710 0.7495480 -0.4308690
v -0.1784710 0.7815450 -0.4308690
v 0.0000000 0.7495480 -0.4663690
v 0.0000000 0.7815450 -0.4663690
v 0.1784721 0.7495480 -0.4308679
v 0.1784721 0.7815450 -0.4308679
v 0.3297730 0.7495480 -0.3297720
v 0.3297730 0.7815450 -0.3297720
v 0.4308691 0.7495480 -0.1784710
v 0.4308691 0.7815470 -0.1784710
# 1516 normals
vn 0.000000 0.992858 0.119087
vn 0.000000 0.992858 0.119087
vn 0.000000 0.992858 0.119087
vn 0.000000 0.992858 0.119087
vn 0.000000 0.992858 0.119087
vn 0.000000 0.992858 0.119087
vn 0.000000 0.992858 0.119087
vn 0.000000 0.992858 0.119087
vn 0.000000 0.992858 0.119087
vn 0.000000 0.992858 0.119087
vn 0.000000 0.992858 0.119087
vn 0.000000 0.992858 0.119087
vn 0.000000 0.992858 0.119087
vn 0.000000 0.992858 0.119087
vn 0.000000 0.992858 0.119087
vn 0.000000 0.992858 0.119087
vn 0.000000 0.992858 0.119087
vn 0.000000 0.992858 0.119087
vn 0.000000 0.992858 0.119087
vn 0.000000 0.992858 0.119087
vn 0.000000 0.992858 0.119087
vn 0.000000 0.992858 0.119087
vn 0.000000 0.992858 0.119087
vn 0.000000 0.992858 0.119087
vn 0.000000 0.992858 0.119087
vn 0.000000 0.992858 0.119087
vn 0.000000 0.992858 0.119087
vn 0.000000 0.992858 0.119087
vn 0.000000 0.992858 0.119087
vn 0.000000 0.992858 0.119087
vn 0.000000 0.992858 0.119087
vn 0.000000 0.992858 0.119087
vn 0.000000 0.992858 0.119087
vn 0.000000 0.992858 0.119087
vn 0.000000 0.992858 0.119087
vn 0.000000 0.992858 0.119087
vn 0.000000 0.992858 0.119087
vn 0.000000 0.992858 0.119087
vn 0.000000 0.992858 0.119087
vn 0.000000 0.992858 0.119087
vn 0.000000 0.992858 0.119087
vn 0.000000 0.992858 0.119087
vn 0.000000 0.992858 0.119087
vn 0.000000 0.992858 0.119087
vn 0.000000 0.992858 0.119087
vn 0.000000 0.992858 0.119087
vn 0.000000 0.992858 0.119087
vn 0.000000 0.992858 0.119087
vn 0.707044 0.707044 0.000000
vn 0.707044 0.707044 0.000000
vn 0.707044 0.707044 0.000000
vn 0.707044 0.707044 0.000000
vn 0.258774 0.965849 0.000000
vn 0.258774 0.965849 0.000000
vn 0.258774 0.965849 0.000000
vn 0.258774 0.965849 0.000000
vn -0.258774 0.965849 0.000000
vn -0.258774 0.965849 0.000000
vn -0.258774 0.965849 0.000000
vn -0.258774 0.965849 0.000000
vn -0.707044 0.707044 0.000000
vn -0.707044 0.707044 0.000000
vn -0.707044 0.707044 0.000000
vn -0.707044 0.707044 0.000000
vn -0.965849 0.258774 0.000000
vn -0.965849 0.258774 0.000000
vn -0.965849 0.258774 0.000000
vn -0.965849 0.258774 0.000000
vn -0.965849 -0.258774 0.000000
vn -0.965849 -0.258774 0.000000
vn -0.965849 -0.258774 0.000000
vn -0.965849 -0.258774 0.000000
vn -0.707044 -0.707044 0.000000
vn -0.707044 -0.707044 0.000000
vn -0.707044 -0.707044 0.000000
vn -0.707044 -0.707044 0.000000
vn -0.258774 -0.965849 0.000000
vn -0.258774 -0.965849 0.000000
vn -0.258774 -0.965849 0.000000
vn -0.258774 -0.965849 0.000000
vn 0.258774 -0.965849 0.000000
vn 0.258774 -0.965849 0.000000
vn 0.258774 -0.965849 0.000000
vn 0.258774 -0.965849 0.000000
vn 0.707044 -0.707044 0.000000
vn 0.707044 -0.707044 0.000000
vn 0.707044 -0.707044 0.000000
vn 0.707044 -0.707044 0.000000
vn 0.965849 -0.258774 0.000000
vn 0.965849 -0.258774 0.000000
vn 0.965849 -0.258774 0.000000
vn 0.965849 -0.258774 0.000000
vn 0.965849 0.258774 0.000000
vn 0.965849 0.258774 0.000000
vn 0.965849 0.258774 0.000000
vn 0.965849 0.258774 0.000000
vn 0.000000 0.000000 1.000000
vn 0.000000 0.000000 1.000000
vn 0.000000 0.000000 1.000000
vn 0.000000 0.000000 1.000000
vn 0.000000 0.000000 1.000000
vn 0.000000 0.000000 1.000000
vn 0.000000 0.000000 1.000000
vn 0.000000 0.000000 1.000000
vn 0.000000 0.000000 1.000000
vn 0.000000 0.000000 1.000000
vn 0.000000 0.000000 1.000000
vn 0.000000 0.000000 1.000000
vn 0.000000 0.000000 1.000000
vn 0.000000 0.000000 1.000000
vn 0.000000 0.000000 1.000000
vn 0.000000 0.000000 1.000000
vn 0.000000 0.000000 1.000000
vn 0.000000 0.000000 1.000000
vn 0.000000 0.000000 1.000000
vn 0.000000 0.000000 1.000000
vn 0.000000 0.000000 1.000000
vn 0.000000 0.000000 1.000000
vn 0.000000 0.000000 1.000000
vn 0.000000 0.000000 1.000000
vn 0.000000 0.000000 1.000000
vn 0.000000 0.000000 1.000000
vn 0.000000 0.000000 1.000000
vn 0.000000 0.000000 1.000000
vn 0.000000 0.000000 1.000000
vn 0.000000 0.000000 1.000000
vn 0.000000 0.000000 1.000000
vn 0.000000 0.000000 1.000000
vn 0.000000 0.000000 1.000000
vn 0.000000 0.000000 1.000000
vn 0.000000 0.000000 1.000000
vn 0.000000 0.000000 1.000000
vn 0.000000 0.000000 1.000000
vn 0.000000 0.000000 1.000000
vn 0.000000 0.000000 1.000000
vn 0.000000 0.000000 1.000000
vn 0.000000 0.000000 1.000000
vn 0.000000 0.000000 1.000000
vn 0.000000 0.000000 1.000000
vn 0.000000 0.000000 1.000000
vn 0.000000 0.000000 1.000000
vn 0.000000 0.000000 1.000000
vn 0.000000 0.000000 1.000000
vn 0.000000 0.000000 1.000000
vn 0.000000 0.000000 1.000000
vn 0.000000 0.000000 1.000000
vn 0.000000 0.000000 1.000000
vn 0.000000 0.000000 1.000000
vn -0.904718 -0.242416 0.350058
vn -0.904718 -0.242416 0.350058
vn -0.904718 -0.242416 0.350058
vn -0.904718 -0.242416 0.350058
vn -0.662272 -0.662272 0.350058
vn -0.662272 -0.662272 0.350058
vn -0.662272 -0.662272 0.350058
vn -0.662272 -0.662272 0.350058
vn -0.242416 -0.904718 0.350058
vn -0.242416 -0.904718 0.350058
vn -0.242416 -0.904718 0.350058
vn -0.242416 -0.904718 0.350058
vn 0.242416 -0.904718 0.350058
vn 0.242416 -0.904718 0.350058
vn 0.242416 -0.904718 0.350058
vn 0.242416 -0.904718 0.350058
vn 0.662272 -0.662272 0.350058
vn 0.662272 -0.662272 0.350058
vn 0.662272 -0.662272 0.350058
vn 0.662272 -0.662272 0.350058
vn 0.904718 -0.242416 0.350058
vn 0.904718 -0.242416 0.350058
vn 0.904718 -0.242416 0.350058
vn 0.904718 -0.242416 0.350058
vn 0.904718 0.242416 0.350058
vn 0.904718 0.242416 0.350058
vn 0.904718 0.242416 0.350058
vn 0.904718 0.242416 0.350058
vn 0.662272 0.662272 0.350058
vn 0.662272 0.662272 0.350058
vn 0.662272 0.662272 0.350058
vn 0.662272 0.662272 0.350058
vn 0.242416 0.904718 0.350058
vn 0.242416 0.904718 0.350058
vn 0.242416 0.904718 0.350058
vn 0.242416 0.904718 0.350058
vn -0.242416 0.904718 0.350058
vn -0.242416 0.904718 0.350058
vn -0.242416 0.904718 0.350058
vn -0.242416 0.904718 0.350058
vn -0.662272 0.662272 0.350058
vn -0.662272 0.662272 0.350058
vn -0.662272 0.662272 0.350058
vn -0.662272 0.662272 0.350058
vn -0.904718 0.242416 0.350058
vn -0.904718 0.242416 0.350058
vn -0.904718 0.242416 0.350058
vn -0.904718 0.242416 0.350058
vn 0.000000 0.000000 1.000000
vn 0.000000 0.000000 1.000000
vn 0.000000 0.000000 1.000000
vn 0.000000 0.000000 1.000000
vn 0.000000 0.000000 1.000000
vn 0.000000 0.000000 1.000000
vn 0.000000 0.000000 1.000000
vn 0.000000 0.000000 1.000000
vn 0.000000 0.000000 1.000000
vn 0.000000 0.000000 1.000000
vn 0.000000 0.000000 1.000000
vn 0.000000 0.000000 1.000000
vn 0.000000 0.000000 1.000000
vn 0.000000 0.000000 1.000000
vn 0.000000 0.000000 1.000000
vn 0.000000 0.000000 1.000000
vn 0.000000 0.000000 1.000000
vn 0.000000 0.000000 1.000000
vn 0.000000 0.000000 1.000000
vn 0.000000 0.000000 1.000000
vn 0.000000 0.000000 1.000000
vn 0.000000 0.000000 1.000000
vn 0.000000 0.000000 1.000000
vn 0.000000 0.000000 1.000000
vn 0.000000 0.000000 1.000000
vn 0.000000 0.000000 1.000000
vn 0.000000 0.000000 1.000000
vn 0.000000 0.000000 1.000000
vn 0.000000 0.000000 1.000000
vn 0.000000 0.000000 1.000000
vn 0.000000 0.000000 1.000000
vn 0.000000 0.000000 1.000000
vn 0.000000 0.000000 1.000000
vn 0.000000 0.000000 1.000000
vn 0.000000 0.000000 1.000000
vn 0.000000 0.000000 1.000000
vn 0.000000 0.000000 1.000000
vn 0.000000 0.000000 1.000000
vn 0.000000 0.000000 1.000000
vn 0.000000 0.000000 1.000000
vn 0.000000 0.000000 1.000000
vn 0.000000 0.000000 1.000000
vn 0.000000 0.000000 1.000000
vn 0.000000 0.000000 1.000000
vn 0.000000 0.000000 1.000000
vn 0.000000 0.000000 1.000000
vn 0.000000 0.000000 1.000000
vn 0.000000 0.000000 1.000000
vn 0.965849 0.258774 0.000000
vn 0.965849 0.258774 0.000000
vn 0.965849 0.258774 0.000000
vn 0.965849 0.258774 0.000000
vn 0.707044 0.707044 0.000000
vn 0.707044 0.707044 0.000000
vn 0.707044 0.707044 0.000000
vn 0.707044 0.707044 0.000000
vn 0.258774 0.965849 0.000000
vn 0.258774 0.965849 0.000000
vn 0.258774 0.965849 0.000000
vn 0.258774 0.965849 0.000000
vn -0.258774 0.965849 0.000000
vn -0.258774 0.965849 0.000000
vn -0.258774 0.965849 0.000000
vn -0.258774 0.965849 0.000000
vn -0.707044 0.707044 0.000000
vn -0.707044 0.707044 0.000000
vn -0.707044 0.707044 0.000000
vn -0.707044 0.707044 0.000000
vn -0.965849 0.258774 0.000000
vn -0.965849 0.258774 0.000000
vn -0.965849 0.258774 0.000000
vn -0.965849 0.258774 0.000000
vn -0.965849 -0.258774 0.000000
vn -0.965849 -0.258774 0.000000
vn -0.965849 -0.258774 0.000000
vn -0.965849 -0.258774 0.000000
vn -0.707044 -0.707044 0.000000
vn -0.707044 -0.707044 0.000000
vn -0.707044 -0.707044 0.000000
vn -0.707044 -0.707044 0.000000
vn -0.258774 -0.965849 0.000000
vn -0.258774 -0.965849 0.000000
vn -0.258774 -0.965849 0.000000
vn -0.258774 -0.965849 0.000000
vn 0.258774 -0.965849 0.000000
vn 0.258774 -0.965849 0.000000
vn 0.258774 -0.965849 0.000000
vn 0.258774 -0.965849 0.000000
vn 0.707044 -0.707044 0.000000
vn 0.707044 -0.707044 0.000000
vn 0.707044 -0.707044 0.000000
vn 0.707044 -0.707044 0.000000
vn 0.965849 -0.258774 0.000000
vn 0.965849 -0.258774 0.000000
vn 0.965849 -0.258774 0.000000
vn 0.965849 -0.258774 0.000000
vn 0.000000 0.000000 1.000000
vn 0.000000 0.000000 1.000000
vn 0.000000 0.000000 1.000000
vn 0.000000 0.000000 1.000000
vn 0.000000 0.000000 1.000000
vn 0.000000 0.000000 1.000000
vn 0.000000 0.000000 1.000000
vn 0.000000 0.000000 1.000000
vn 0.000000 0.000000 1.000000
vn 0.000000 0.000000 1.000000
vn 0.000000 0.000000 1.000000
vn 0.000000 0.000000 1.000000
vn 0.000000 0.000000 1.000000
vn 0.000000 0.000000 1.000000
vn 0.000000 0.000000 1.000000
vn 0.000000 0.000000 1.000000
vn 0.000000 0.000000 1.000000
vn 0.000000 0.000000 1.000000
vn 0.000000 0.000000 1.000000
vn 0.000000 0.000000 1.000000
vn 0.000000 0.000000 1.000000
vn 0.000000 0.000000 1.000000
vn 0.000000 0.000000 1.000000
vn 0.000000 0.000000 1.000000
vn 0.000000 0.000000 1.000000
vn 0.000000 0.000000 1.000000
vn 0.000000 0.000000 1.000000
vn 0.000000 0.000000 1.000000
vn 0.828115 0.089575 -0.553317
vn 0.828115 0.089575 -0.553317
vn 0.828115 0.089575 -0.553317
vn 0.828115 0.089575 -0.553317
vn 0.553317 0.089575 -0.828115
vn 0.553317 0.089575 -0.828115
vn 0.553317 0.089575 -0.828115
vn 0.553317 0.089575 -0.828115
vn 0.194287 0.089575 -0.976775
vn 0.194287 0.089575 -0.976775
vn 0.194287 0.089575 -0.976775
vn 0.194287 0.089575 -0.976775
vn -0.194287 0.089575 -0.976775
vn -0.194287 0.089575 -0.976775
vn -0.194287 0.089575 -0.976775
vn -0.194287 0.089575 -0.976775
vn -0.553317 0.089575 -0.828115
vn -0.553317 0.089575 -0.828115
vn -0.553317 0.089575 -0.828115
vn -0.553317 0.089575 -0.828115
vn -0.828115 0.089575 -0.553317
vn -0.828115 0.089575 -0.553317
vn -0.828115 0.089575 -0.553317
vn -0.828115 0.089575 -0.553317
vn -0.976775 0.089575 -0.194287
vn -0.976775 0.089575 -0.194287
vn -0.976775 0.089575 -0.194287
vn -0.976775 0.089575 -0.194287
vn -0.976775 0.089575 0.194287
vn -0.976775 0.089575 0.194287
vn -0.976775 0.089575 0.194287
vn -0.976775 0.089575 0.194287
vn -0.828115 0.089575 0.553317
vn -0.828115 0.089575 0.553317
vn -0.828115 0.089575 0.553317
vn -0.828115 0.089575 0.553317
vn -0.553317 0.089575 0.828115
vn -0.553317 0.089575 0.828115
vn -0.553317 0.089575 0.828115
vn -0.553317 0.089575 0.828115
vn -0.194287 0.089575 0.976775
vn -0.194287 0.089575 0.976775
vn -0.194287 0.089575 0.976775
vn -0.194287 0.089575 0.976775
vn 0.194287 0.089575 0.976775
vn 0.194287 0.089575 0.976775
vn 0.194287 0.089575 0.976775
vn 0.194287 0.089575 0.976775
vn 0.553317 0.089575 0.828115
vn 0.553317 0.089575 0.828115
vn 0.553317 0.089575 0.828115
vn 0.553317 0.089575 0.828115
vn 0.828115 0.089575 0.553317
vn 0.828115 0.089575 0.553317
vn 0.828115 0.089575 0.553317
vn 0.828115 0.089575 0.553317
vn 0.976775 0.089575 0.194287
vn 0.976775 0.089575 0.194287
vn 0.976775 0.089575 0.194287
vn 0.976775 0.089575 0.194287
vn 0.976775 0.089575 -0.194287
vn 0.976775 0.089575 -0.194287
vn 0.976775 0.089575 -0.194287
vn 0.976775 0.089575 -0.194287
vn 0.796863 0.285143 -0.532412
vn 0.796863 0.285143 -0.532412
vn 0.796863 0.285143 -0.532412
vn 0.796863 0.285143 -0.532412
vn 0.532412 0.285143 -0.796863
vn 0.532412 0.285143 -0.796863
vn 0.532412 0.285143 -0.796863
vn 0.532412 0.285143 -0.796863
vn 0.186962 0.285143 -0.940060
vn 0.186962 0.285143 -0.940060
vn 0.186962 0.285143 -0.940060
vn 0.186962 0.285143 -0.940060
vn -0.186962 0.285143 -0.940060
vn -0.186962 0.285143 -0.940060
vn -0.186962 0.285143 -0.940060
vn -0.186962 0.285143 -0.940060
vn -0.532412 0.285143 -0.796863
vn -0.532412 0.285143 -0.796863
vn -0.532412 0.285143 -0.796863
vn -0.532412 0.285143 -0.796863
vn -0.796863 0.285143 -0.532412
vn -0.796863 0.285143 -0.532412
vn -0.796863 0.285143 -0.532412
vn -0.796863 0.285143 -0.532412
vn -0.940060 0.285143 -0.186962
vn -0.940060 0.285143 -0.186962
vn -0.940060 0.285143 -0.186962
vn -0.940060 0.285143 -0.186962
vn -0.940060 0.285143 0.186962
vn -0.940060 0.285143 0.186962
vn -0.940060 0.285143 0.186962
vn -0.940060 0.285143 0.186962
vn -0.796863 0.285143 0.532412
vn -0.796863 0.285143 0.532412
vn -0.796863 0.285143 0.532412
vn -0.796863 0.285143 0.532412
vn -0.532412 0.285143 0.796863
vn -0.532412 0.285143 0.796863
vn -0.532412 0.285143 0.796863
vn -0.532412 0.285143 0.796863
vn -0.186962 0.285143 0.940060
vn -0.186962 0.285143 0.940060
vn -0.186962 0.285143 0.940060
vn -0.186962 0.285143 0.940060
vn 0.186962 0.285143 0.940060
vn 0.186962 0.285143 0.940060
vn 0.186962 0.285143 0.940060
vn 0.186962 0.285143 0.940060
vn 0.532412 0.285143 0.796863
vn 0.532412 0.285143 0.796863
vn 0.532412 0.285143 0.796863
vn 0.532412 0.285143 0.796863
vn 0.796863 0.285143 0.532412
vn 0.796863 0.285143 0.532412
vn 0.796863 0.285143 0.532412
vn 0.796863 0.285143 0.532412
vn 0.940060 0.285143 0.186962
vn 0.940060 0.285143 0.186962
vn 0.940060 0.285143 0.186962
vn 0.940060 0.285143 0.186962
vn 0.940060 0.285143 -0.186962
vn 0.940060 0.285143 -0.186962
vn 0.940060 0.285143 -0.186962
vn 0.940060 0.285143 -0.186962
vn 0.736343 0.464292 -0.492034
vn 0.736343 0.464292 -0.492034
vn 0.736343 0.464292 -0.492034
vn 0.736343 0.464292 -0.492034
vn 0.492034 0.464292 -0.736343
vn 0.492034 0.464292 -0.736343
vn 0.492034 0.464292 -0.736343
vn 0.492034 0.464292 -0.736343
vn 0.172771 0.464292 -0.868583
vn 0.172771 0.464292 -0.868583
vn 0.172771 0.464292 -0.868583
vn 0.172771 0.464292 -0.868583
vn -0.172771 0.464292 -0.868583
vn -0.172771 0.464292 -0.868583
vn -0.172771 0.464292 -0.868583
vn -0.172771 0.464292 -0.868583
vn -0.492034 0.464292 -0.736343
vn -0.492034 0.464292 -0.736343
vn -0.492034 0.464292 -0.736343
vn -0.492034 0.464292 -0.736343
vn -0.736343 0.464292 -0.492034
vn -0.736343 0.464292 -0.492034
vn -0.736343 0.464292 -0.492034
vn -0.736343 0.464292 -0.492034
vn -0.868583 0.464292 -0.172771
vn -0.868583 0.464292 -0.172771
vn -0.868583 0.464292 -0.172771
vn -0.868583 0.464292 -0.172771
vn -0.868583 0.464292 0.172771
vn -0.868583 0.464292 0.172771
vn -0.868583 0.464292 0.172771
vn -0.868583 0.464292 0.172771
vn -0.736343 0.464292 0.492034
vn -0.736343 0.464292 0.492034
vn -0.736343 0.464292 0.492034
vn -0.736343 0.464292 0.492034
vn -0.492034 0.464292 0.736343
vn -0.492034 0.464292 0.736343
vn -0.492034 0.464292 0.736343
vn -0.492034 0.464292 0.736343
vn -0.172771 0.464292 0.868583
vn -0.172771 0.464292 0.868583
vn -0.172771 0.464292 0.868583
vn -0.172771 0.464292 0.868583
vn 0.172771 0.464292 0.868583
vn 0.172771 0.464292 0.868583
vn 0.172771 0.464292 0.868583
vn 0.172771 0.464292 0.868583
vn 0.492034 0.464292 0.736343
vn 0.492034 0.464292 0.736343
vn 0.492034 0.464292 0.736343
vn 0.492034 0.464292 0.736343
vn 0.736343 0.464292 0.492034
vn 0.736343 0.464292 0.492034
vn 0.736343 0.464292 0.492034
vn 0.736343 0.464292 0.492034
vn 0.868583 0.464292 0.172771
vn 0.868583 0.464292 0.172771
vn 0.868583 0.464292 0.172771
vn 0.868583 0.464292 0.172771
vn 0.868583 0.464292 -0.172771
vn 0.868583 0.464292 -0.172771
vn 0.868583 0.464292 -0.172771
vn 0.868583 0.464292 -0.172771
vn 0.647653 0.626961 -0.432705
vn 0.647653 0.626961 -0.432705
vn 0.647653 0.626961 -0.432705
vn 0.647653 0.626961 -0.432705
vn 0.432705 0.626961 -0.647623
vn 0.432705 0.626961 -0.647623
vn 0.432705 0.626961 -0.647623
vn 0.432705 0.626961 -0.647623
vn 0.151895 0.626961 -0.763963
vn 0.151895 0.626961 -0.763963
vn 0.151895 0.626961 -0.763963
vn 0.151895 0.626961 -0.763963
vn -0.151895 0.626961 -0.763963
vn -0.151895 0.626961 -0.763963
vn -0.151895 0.626961 -0.763963
vn -0.151895 0.626961 -0.763963
vn -0.432705 0.626961 -0.647623
vn -0.432705 0.626961 -0.647623
vn -0.432705 0.626961 -0.647623
vn -0.432705 0.626961 -0.647623
vn -0.647623 0.626961 -0.432705
vn -0.647623 0.626961 -0.432705
vn -0.647623 0.626961 -0.432705
vn -0.647623 0.626961 -0.432705
vn -0.763963 0.626961 -0.151895
vn -0.763963 0.626961 -0.151895
vn -0.763963 0.626961 -0.151895
vn -0.763963 0.626961 -0.151895
vn -0.763963 0.626961 0.151895
vn -0.763963 0.626961 0.151895
vn -0.763963 0.626961 0.151895
vn -0.763963 0.626961 0.151895
vn -0.647623 0.626961 0.432705
vn -0.647623 0.626961 0.432705
vn -0.647653 0.626961 0.432705
vn -0.647623 0.626961 0.432705
vn -0.432705 0.626961 0.647623
vn -0.432705 0.626961 0.647623
vn -0.432705 0.626961 0.647623
vn -0.432705 0.626961 0.647623
vn -0.151895 0.626961 0.763963
vn -0.151895 0.626961 0.763963
vn -0.151895 0.626961 0.763963
vn -0.151895 0.626961 0.763963
vn 0.151895 0.626961 0.763963
vn 0.151895 0.626961 0.763963
vn 0.151895 0.626961 0.763963
vn 0.151895 0.626961 0.763963
vn 0.432705 0.626961 0.647653
vn 0.432705 0.626961 0.647653
vn 0.432705 0.626961 0.647653
vn 0.432705 0.626961 0.647653
vn 0.647623 0.626961 0.432705
vn 0.647623 0.626961 0.432705
vn 0.647623 0.626961 0.432705
vn 0.647623 0.626961 0.432705
vn 0.763963 0.626961 0.151895
vn 0.763963 0.626961 0.151895
vn 0.763963 0.626961 0.151895
vn 0.763963 0.626961 0.151895
vn 0.763963 0.626961 -0.151895
vn 0.763963 0.626961 -0.151895
vn 0.763963 0.626961 -0.151895
vn 0.763963 0.626961 -0.151895
vn 0.533510 0.766862 -0.356437
vn 0.533510 0.766862 -0.356437
vn 0.533510 0.766862 -0.356437
vn 0.533510 0.766862 -0.356437
vn 0.356437 0.766862 -0.533510
vn 0.356437 0.766862 -0.533510
vn 0.356437 0.766862 -0.533510
vn 0.356437 0.766862 -0.533510
vn 0.125191 0.766862 -0.629402
vn 0.125191 0.766862 -0.629402
vn 0.125191 0.766862 -0.629402
vn 0.125191 0.766862 -0.629402
vn -0.125191 0.766862 -0.629402
vn -0.125191 0.766862 -0.629402
vn -0.125191 0.766862 -0.629402
vn -0.125191 0.766862 -0.629402
vn -0.356437 0.766862 -0.533510
vn -0.356437 0.766862 -0.533510
vn -0.356437 0.766862 -0.533510
vn -0.356437 0.766862 -0.533510
vn -0.533510 0.766862 -0.356437
vn -0.533510 0.766862 -0.356437
vn -0.533510 0.766862 -0.356437
vn -0.533510 0.766862 -0.356437
vn -0.629311 0.766862 -0.125191
vn -0.629311 0.766862 -0.125191
vn -0.629311 0.766862 -0.125191
vn -0.629311 0.766862 -0.125191
vn -0.629402 0.766862 0.125191
vn -0.629402 0.766862 0.125191
vn -0.629402 0.766862 0.125191
vn -0.629402 0.766862 0.125191
vn -0.533510 0.766862 0.356437
vn -0.533510 0.766862 0.356437
vn -0.533510 0.766862 0.356437
vn -0.533510 0.766862 0.356437
vn -0.356437 0.766862 0.533510
vn -0.356437 0.766862 0.533510
vn -0.356437 0.766862 0.533510
vn -0.356437 0.766862 0.533510
vn -0.125191 0.766862 0.629402
vn -0.125191 0.766862 0.629402
vn -0.125191 0.766862 0.629402
vn -0.125191 0.766862 0.629402
vn 0.125191 0.766862 0.629402
vn 0.125191 0.766862 0.629402
vn 0.125191 0.766862 0.629402
vn 0.125191 0.766862 0.629402
vn 0.356437 0.766862 0.533510
vn 0.356437 0.766862 0.533510
vn 0.356437 0.766862 0.533510
vn 0.356437 0.766862 0.533510
vn 0.533510 0.766862 0.356437
vn 0.533510 0.766862 0.356437
vn 0.533510 0.766862 0.356437
vn 0.533510 0.766862 0.356437
vn 0.629311 0.766862 0.125191
vn 0.629311 0.766862 0.125191
vn 0.629311 0.766862 0.125191
vn 0.629311 0.766862 0.125191
vn 0.629402 0.766862 -0.125191
vn 0.629402 0.766862 -0.125191
vn 0.629402 0.766862 -0.125191
vn 0.629402 0.766862 -0.125191
vn 0.397882 0.877983 -0.265794
vn 0.397882 0.877983 -0.265794
vn 0.397882 0.877983 -0.265794
vn 0.397882 0.877983 -0.265794
vn 0.265794 0.877983 -0.397882
vn 0.265794 0.877983 -0.397882
vn 0.265794 0.877983 -0.397882
vn 0.265794 0.877983 -0.397882
vn 0.093328 0.877983 -0.469267
vn 0.093328 0.877983 -0.469267
vn 0.093328 0.877983 -0.469267
vn 0.093328 0.877983 -0.469267
vn -0.093328 0.877983 -0.469267
vn -0.093328 0.877983 -0.469267
vn -0.093328 0.877983 -0.469267
vn -0.093328 0.877983 -0.469267
vn -0.265794 0.877983 -0.397882
vn -0.265794 0.877983 -0.397882
vn -0.265794 0.877983 -0.397882
vn -0.265794 0.877983 -0.397882
vn -0.397882 0.877983 -0.265794
vn -0.397882 0.877983 -0.265794
vn -0.397882 0.877983 -0.265794
vn -0.397882 0.877983 -0.265794
vn -0.469267 0.877983 -0.093328
vn -0.469267 0.877983 -0.093328
vn -0.469267 0.877983 -0.093328
vn -0.469267 0.877983 -0.093328
vn -0.469267 0.877983 0.093328
vn -0.469267 0.877983 0.093328
vn -0.469267 0.877983 0.093328
vn -0.469267 0.877983 0.093328
vn -0.397882 0.877983 0.265794
vn -0.397882 0.877983 0.265794
vn -0.397882 0.877983 0.265794
vn -0.397882 0.877983 0.265794
vn -0.265794 0.877983 0.397882
vn -0.265794 0.877983 0.397882
vn -0.265794 0.877983 0.397882
vn -0.265794 0.877983 0.397882
vn -0.093328 0.877983 0.469267
vn -0.093328 0.877983 0.469267
vn -0.093328 0.877983 0.469267
vn -0.093328 0.877983 0.469267
vn 0.093328 0.877983 0.469267
vn 0.093328 0.877983 0.469267
vn 0.093328 0.877983 0.469267
vn 0.093328 0.877983 0.469267
vn 0.265794 0.877983 0.397882
vn 0.265794 0.877983 0.397882
vn 0.265794 0.877983 0.397882
vn 0.265794 0.877983 0.397882
vn 0.397882 0.877983 0.265794
vn 0.397882 0.877983 0.265794
vn 0.397882 0.877983 0.265794
vn 0.397882 0.877983 0.265794
vn 0.469267 0.877983 0.093328
vn 0.469267 0.877983 0.093328
vn 0.469267 0.877983 0.093328
vn 0.469267 0.877983 0.093328
vn 0.469267 0.877983 -0.093328
vn 0.469267 0.877983 -0.093328
vn 0.469267 0.877983 -0.093328
vn 0.469267 0.877983 -0.093328
vn 0.245620 0.955258 -0.164073
vn 0.245620 0.955258 -0.164073
vn 0.245620 0.955258 -0.164073
vn 0.245620 0.955258 -0.164073
vn 0.164073 0.955258 -0.245620
vn 0.164073 0.955258 -0.245620
vn 0.164073 0.955258 -0.245620
vn 0.164073 0.955258 -0.245620
vn 0.057590 0.955258 -0.289721
vn 0.057590 0.955258 -0.289721
vn 0.057590 0.955258 -0.289721
vn 0.057590 0.955258 -0.289721
vn -0.057590 0.955258 -0.289721
vn -0.057590 0.955258 -0.289721
vn -0.057590 0.955258 -0.289721
vn -0.057590 0.955258 -0.289721
vn -0.164073 0.955258 -0.245620
vn -0.164073 0.955258 -0.245620
vn -0.164073 0.955258 -0.245620
vn -0.164073 0.955258 -0.245620
vn -0.245620 0.955258 -0.164073
vn -0.245620 0.955258 -0.164073
vn -0.245620 0.955258 -0.164073
vn -0.245620 0.955258 -0.164073
vn -0.289721 0.955258 -0.057590
vn -0.289721 0.955258 -0.057590
vn -0.289721 0.955258 -0.057590
vn -0.289721 0.955258 -0.057590
vn -0.289721 0.955258 0.057590
vn -0.289721 0.955258 0.057590
vn -0.289721 0.955258 0.057590
vn -0.289721 0.955258 0.057590
vn -0.245620 0.955258 0.164073
vn -0.245620 0.955258 0.164073
vn -0.245620 0.955258 0.164073
vn -0.245620 0.955258 0.164073
vn -0.164073 0.955258 0.245620
vn -0.164073 0.955258 0.245620
vn -0.164073 0.955258 0.245620
vn -0.164073 0.955258 0.245620
vn -0.057590 0.955258 0.289721
vn -0.057590 0.955258 0.289721
vn -0.057590 0.955258 0.289721
vn -0.057590 0.955258 0.289721
vn 0.057590 0.955258 0.289721
vn 0.057590 0.955258 0.289721
vn 0.057590 0.955258 0.289721
vn 0.057590 0.955258 0.289721
vn 0.164073 0.955258 0.245620
vn 0.164073 0.955258 0.245620
vn 0.164073 0.955258 0.245620
vn 0.164073 0.955258 0.245620
vn 0.245620 0.955258 0.164073
vn 0.245620 0.955258 0.164073
vn 0.245620 0.955258 0.164073
vn 0.245620 0.955258 0.164073
vn 0.289721 0.955258 0.057590
vn 0.289721 0.955258 0.057590
vn 0.289721 0.955258 0.057590
vn 0.289721 0.955258 0.057590
vn 0.289721 0.955258 -0.057590
vn 0.289721 0.955258 -0.057590
vn 0.289721 0.955258 -0.057590
vn 0.289721 0.955258 -0.057590
vn 0.083074 0.994995 -0.055454
vn 0.083074 0.994995 -0.055454
vn 0.083074 0.994995 -0.055454
vn 0.055454 0.994995 -0.083074
vn 0.055454 0.994995 -0.083074
vn 0.055454 0.994995 -0.083074
vn 0.019410 0.994995 -0.097998
vn 0.019410 0.994995 -0.097998
vn 0.019410 0.994995 -0.097998
vn -0.019410 0.994995 -0.097998
vn -0.019410 0.994995 -0.097998
vn -0.019410 0.994995 -0.097998
vn -0.055454 0.994995 -0.083074
vn -0.055454 0.994995 -0.083074
vn -0.055454 0.994995 -0.083074
vn -0.083074 0.994995 -0.055454
vn -0.083074 0.994995 -0.055454
vn -0.083074 0.994995 -0.055454
vn -0.097998 0.994995 -0.019410
vn -0.097998 0.994995 -0.019410
vn -0.097998 0.994995 -0.019410
vn -0.097998 0.994995 0.019410
vn -0.097998 0.994995 0.019410
vn -0.097998 0.994995 0.019410
vn -0.083074 0.994995 0.055454
vn -0.083074 0.994995 0.055454
vn -0.083074 0.994995 0.055454
vn -0.055454 0.994995 0.083074
vn -0.055454 0.994995 0.083074
vn -0.055454 0.994995 0.083074
vn -0.019410 0.994995 0.097998
vn -0.019410 0.994995 0.097998
vn -0.019410 0.994995 0.097998
vn 0.019410 0.994995 0.097998
vn 0.019410 0.994995 0.097998
vn 0.019410 0.994995 0.097998
vn 0.055454 0.994995 0.083074
vn 0.055454 0.994995 0.083074
vn 0.055454 0.994995 0.083074
vn 0.083074 0.994995 0.055454
vn 0.083074 0.994995 0.055454
vn 0.083074 0.994995 0.055454
vn 0.097998 0.994995 0.019410
vn 0.097998 0.994995 0.019410
vn 0.097998 0.994995 0.019410
vn 0.097998 0.994995 -0.019410
vn 0.097998 0.994995 -0.019410
vn 0.097998 0.994995 -0.019410
vn 0.831380 0.000000 -0.555545
vn 0.831380 0.000000 -0.555545
vn 0.831380 0.000000 -0.555545
vn 0.831380 0.000000 -0.555545
vn 0.555545 0.000000 -0.831380
vn 0.555545 0.000000 -0.831380
vn 0.555545 0.000000 -0.831380
vn 0.555545 0.000000 -0.831380
vn 0.195050 0.000000 -0.980712
vn 0.195050 0.000000 -0.980712
vn 0.195050 0.000000 -0.980712
vn 0.195050 0.000000 -0.980712
vn -0.980712 0.000000 -0.195050
vn -0.980712 0.000000 -0.195050
vn -0.980712 0.000000 -0.195050
vn -0.980712 0.000000 0.195050
vn -0.980712 0.000000 0.195050
vn -0.980712 0.000000 0.195050
vn -0.980712 0.000000 0.195050
vn -0.831380 0.000000 0.555545
vn -0.831380 0.000000 0.555545
vn -0.831380 0.000000 0.555545
vn -0.831380 0.000000 0.555545
vn -0.555545 0.000000 0.831380
vn -0.555545 0.000000 0.831380
vn -0.555545 0.000000 0.831380
vn -0.555545 0.000000 0.831380
vn -0.195050 0.000000 0.980712
vn -0.195050 0.000000 0.980712
vn -0.195050 0.000000 0.980712
vn -0.195050 0.000000 0.980712
vn 0.195050 0.000000 0.980712
vn 0.195050 0.000000 0.980712
vn 0.195050 0.000000 0.980712
vn 0.195050 0.000000 0.980712
vn 0.555545 0.000000 0.831380
vn 0.555545 0.000000 0.831380
vn 0.555545 0.000000 0.831380
vn 0.555545 0.000000 0.831380
vn 0.831380 0.000000 0.555545
vn 0.831380 0.000000 0.555545
vn 0.831380 0.000000 0.555545
vn 0.831380 0.000000 0.555545
vn 0.980712 0.000000 0.195050
vn 0.980712 0.000000 0.195050
vn 0.980712 0.000000 0.195050
vn 0.980712 0.000000 0.195050
vn 0.980712 0.000000 -0.195050
vn 0.980712 0.000000 -0.195050
vn 0.980712 0.000000 -0.195050
vn 0.980712 0.000000 -0.195050
vn 0.000000 -1.000000 0.000000
vn 0.000000 -1.000000 0.000000
vn 0.000000 -1.000000 0.000000
vn 0.000000 -1.000000 0.000000
vn 0.000000 -1.000000 0.000000
vn 0.000000 -1.000000 0.000000
vn 0.000000 -1.000000 0.000000
vn 0.000000 -1.000000 0.000000
vn 0.000000 -1.000000 0.000000
vn 0.000000 -1.000000 0.000000
vn 0.000000 -1.000000 0.000000
vn 0.000000 -1.000000 0.000000
vn 0.000000 -1.000000 0.000000
vn 0.000000 -1.000000 0.000000
vn 0.000000 -1.000000 0.000000
vn 0.000000 -1.000000 0.000000
vn 0.000000 -1.000000 0.000000
vn 0.000000 -1.000000 0.000000
vn 0.000000 -1.000000 0.000000
vn 0.000000 -1.000000 0.000000
vn 0.000000 -1.000000 0.000000
vn 0.000000 -1.000000 0.000000
vn 0.000000 -1.000000 0.000000
vn 0.000000 -1.000000 0.000000
vn 0.000000 -1.000000 0.000000
vn 0.000000 -1.000000 0.000000
vn 0.000000 -1.000000 0.000000
vn 0.000000 -1.000000 0.000000
vn 0.000000 -1.000000 0.000000
vn 0.000000 -1.000000 0.000000
vn 0.000000 -1.000000 0.000000
vn 0.000000 -1.000000 0.000000
vn 0.000000 -1.000000 0.000000
vn 0.000000 -1.000000 0.000000
vn 0.000000 -1.000000 0.000000
vn 0.000000 -1.000000 0.000000
vn 0.000000 -1.000000 0.000000
vn 0.000000 -1.000000 0.000000
vn 0.000000 -1.000000 0.000000
vn 0.000000 -1.000000 0.000000
vn 0.000000 -1.000000 0.000000
vn 0.000000 -1.000000 0.000000
vn 0.000000 -1.000000 0.000000
vn 0.000000 -1.000000 0.000000
vn 0.000000 -1.000000 0.000000
vn 0.000000 -1.000000 0.000000
vn 0.000000 -1.000000 0.000000
vn 0.000000 -1.000000 0.000000
vn 0.000000 -1.000000 0.000000
vn 0.000000 -1.000000 0.000000
vn 0.000000 -1.000000 0.000000
vn 0.000000 -1.000000 0.000000
vn 0.000000 -1.000000 0.000000
vn 0.000000 -1.000000 0.000000
vn 0.000000 -1.000000 0.000000
vn 0.000000 -1.000000 0.000000
vn 0.000000 -1.000000 0.000000
vn 0.000000 -1.000000 0.000000
vn 0.000000 -1.000000 0.000000
vn 0.000000 -1.000000 0.000000
vn 0.000000 -1.000000 0.000000
vn 0.000000 -1.000000 0.000000
vn 0.000000 -1.000000 0.000000
vn 0.000000 -1.000000 0.000000
vn 0.000000 -1.000000 0.000000
vn 0.000000 -1.000000 0.000000
vn 0.000000 -1.000000 0.000000
vn 0.000000 -1.000000 0.000000
vn 0.000000 -1.000000 0.000000
vn 0.831380 0.000000 0.555545
vn 0.831380 0.000000 0.555545
vn 0.831380 0.000000 0.555545
vn 0.831380 0.000000 0.555545
vn 0.555545 0.000000 0.831380
vn 0.555545 0.000000 0.831380
vn 0.555545 0.000000 0.831380
vn 0.555545 0.000000 0.831380
vn 0.195050 0.000000 0.980712
vn 0.195050 0.000000 0.980712
vn 0.195050 0.000000 0.980712
vn 0.195050 0.000000 0.980712
vn -0.195050 0.000000 0.980712
vn -0.195050 0.000000 0.980712
vn -0.195050 0.000000 0.980712
vn -0.195050 0.000000 0.980712
vn -0.555545 0.000000 0.831380
vn -0.555545 0.000000 0.831380
vn -0.555545 0.000000 0.831380
vn -0.555545 0.000000 0.831380
vn -0.831380 0.000000 0.555545
vn -0.831380 0.000000 0.555545
vn -0.831380 0.000000 0.555545
vn -0.831380 0.000000 0.555545
vn -0.980712 0.000000 0.195050
vn -0.980712 0.000000 0.195050
vn -0.980712 0.000000 0.195050
vn -0.980712 0.000000 0.195050
vn -0.980712 0.000000 -0.195050
vn -0.980712 0.000000 -0.195050
vn -0.980712 0.000000 -0.195050
vn -0.980712 0.000000 -0.195050
vn -0.831380 0.000000 -0.555545
vn -0.831380 0.000000 -0.555545
vn -0.831380 0.000000 -0.555545
vn -0.831380 0.000000 -0.555545
vn -0.555545 0.000000 -0.831380
vn -0.555545 0.000000 -0.831380
vn -0.555545 0.000000 -0.831380
vn -0.555545 0.000000 -0.831380
vn -0.195050 0.000000 -0.980712
vn -0.195050 0.000000 -0.980712
vn -0.195050 0.000000 -0.980712
vn -0.195050 0.000000 -0.980712
vn 0.195050 0.000000 -0.980712
vn 0.195050 0.000000 -0.980712
vn 0.195050 0.000000 -0.980712
vn 0.195050 0.000000 -0.980712
vn 0.555545 0.000000 -0.831380
vn 0.555545 0.000000 -0.831380
vn 0.555545 0.000000 -0.831380
vn 0.555545 0.000000 -0.831380
vn 0.831380 0.000000 -0.555545
vn 0.831380 0.000000 -0.555545
vn 0.831380 0.000000 -0.555545
vn 0.831380 0.000000 -0.555545
vn 0.980712 0.000000 -0.195050
vn 0.980712 0.000000 -0.195050
vn 0.980712 0.000000 -0.195050
vn 0.980712 0.000000 -0.195050
vn 0.980712 0.000000 0.195050
vn 0.980712 0.000000 0.195050
vn 0.980712 0.000000 0.195050
vn 0.980712 0.000000 0.195050
vn 0.000000 -1.000000 0.000000
vn 0.000000 -1.000000 0.000000
vn 0.000000 -1.000000 0.000000
vn 0.000000 -1.000000 0.000000
vn 0.000000 -1.000000 0.000000
vn 0.000000 -1.000000 0.000000
vn 0.000000 -1.000000 0.000000
vn 0.000000 -1.000000 0.000000
vn 0.000000 -1.000000 0.000000
vn 0.000000 -1.000000 0.000000
vn 0.000000 -1.000000 0.000000
vn 0.000000 -1.000000 0.000000
vn 0.000000 -1.000000 0.000000
vn 0.000000 -1.000000 0.000000
vn 0.000000 -1.000000 0.000000
vn 0.000000 -1.000000 0.000000
vn 0.000000 -1.000000 0.000000
vn 0.000000 -1.000000 0.000000
vn 0.000000 -1.000000 0.000000
vn 0.000000 -1.000000 0.000000
vn 0.000000 -1.000000 0.000000
vn 0.000000 -1.000000 0.000000
vn 0.000000 -1.000000 0.000000
vn 0.000000 -1.000000 0.000000
vn 0.000000 -1.000000 0.000000
vn 0.000000 -1.000000 0.000000
vn 0.000000 -1.000000 0.000000
vn 0.000000 -1.000000 0.000000
vn 0.000000 -1.000000 0.000000
vn 0.000000 -1.000000 0.000000
vn 0.000000 -1.000000 0.000000
vn 0.000000 -1.000000 0.000000
vn 0.000000 -1.000000 0.000000
vn 0.000000 -1.000000 0.000000
vn 0.000000 -1.000000 0.000000
vn 0.000000 -1.000000 0.000000
vn 0.000000 -1.000000 0.000000
vn 0.000000 -1.000000 0.000000
vn 0.000000 -1.000000 0.000000
vn 0.000000 -1.000000 0.000000
vn 0.000000 -1.000000 0.000000
vn 0.000000 -1.000000 0.000000
vn 0.000000 -1.000000 0.000000
vn 0.000000 -1.000000 0.000000
vn 0.000000 -1.000000 0.000000
vn 0.000000 -1.000000 0.000000
vn 0.000000 -1.000000 0.000000
vn 0.000000 -1.000000 0.000000
vn 0.000000 -1.000000 0.000000
vn 0.000000 -1.000000 0.000000
vn 0.000000 -1.000000 0.000000
vn 0.000000 -1.000000 0.000000
vn 0.000000 -1.000000 0.000000
vn 0.000000 -1.000000 0.000000
vn 0.000000 -1.000000 0.000000
vn 0.000000 -1.000000 0.000000
vn 0.000000 -1.000000 0.000000
vn 0.000000 -1.000000 0.000000
vn 0.000000 -1.000000 0.000000
vn 0.000000 -1.000000 0.000000
vn 0.000000 -1.000000 0.000000
vn 0.000000 -1.000000 0.000000
vn 0.000000 -1.000000 0.000000
vn 0.000000 -1.000000 0.000000
vn 0.831380 0.000000 0.555545
vn 0.831380 0.000000 0.555545
vn 0.831380 0.000000 0.555545
vn 0.831380 0.000000 0.555545
vn 0.555545 0.000000 0.831380
vn 0.555545 0.000000 0.831380
vn 0.555545 0.000000 0.831380
vn 0.555545 0.000000 0.831380
vn 0.195050 0.000000 0.980712
vn 0.195050 0.000000 0.980712
vn 0.195050 0.000000 0.980712
vn 0.195050 0.000000 0.980712
vn -0.195050 0.000000 0.980712
vn -0.195050 0.000000 0.980712
vn -0.195050 0.000000 0.980712
vn -0.195050 0.000000 0.980712
vn -0.555545 0.000000 0.831380
vn -0.555545 0.000000 0.831380
vn -0.555545 0.000000 0.831380
vn -0.555545 0.000000 0.831380
vn -0.831380 0.000000 0.555545
vn -0.831380 0.000000 0.555545
vn -0.831380 0.000000 0.555545
vn -0.831380 0.000000 0.555545
vn -0.980712 0.000000 0.195050
vn -0.980712 0.000000 0.195050
vn -0.980712 0.000000 0.195050
vn -0.980712 0.000000 0.195050
vn -0.980712 0.000000 -0.195050
vn -0.980712 0.000000 -0.195050
vn -0.980712 0.000000 -0.195050
vn -0.980712 0.000000 -0.195050
vn -0.831380 0.000000 -0.555545
vn -0.831380 0.000000 -0.555545
vn -0.831380 0.000000 -0.555545
vn -0.831380 0.000000 -0.555545
vn -0.555545 0.000000 -0.831380
vn -0.555545 0.000000 -0.831380
vn -0.555545 0.000000 -0.831380
vn -0.555545 0.000000 -0.831380
vn -0.195050 0.000000 -0.980712
vn -0.195050 0.000000 -0.980712
vn -0.195050 0.000000 -0.980712
vn -0.195050 0.000000 -0.980712
vn 0.195050 0.000000 -0.980712
vn 0.195050 0.000000 -0.980712
vn 0.195050 0.000000 -0.980712
vn 0.195050 0.000000 -0.980712
vn 0.555545 0.000000 -0.831380
vn 0.555545 0.000000 -0.831380
vn 0.555545 0.000000 -0.831380
vn 0.555545 0.000000 -0.831380
vn 0.831380 0.000000 -0.555545
vn 0.831380 0.000000 -0.555545
vn 0.831380 0.000000 -0.555545
vn 0.831380 0.000000 -0.555545
vn 0.980712 0.000000 -0.195050
vn 0.980712 0.000000 -0.195050
vn 0.980712 0.000000 -0.195050
vn 0.980712 0.000000 -0.195050
vn 0.980712 0.000000 0.195050
vn 0.980712 0.000000 0.195050
vn 0.980712 0.000000 0.195050
vn 0.980712 0.000000 0.195050
vn -0.980712 0.000000 -0.195050
vn -0.980712 0.000000 -0.195050
vn -0.980712 0.000000 -0.195050
vn -0.980712 0.000000 -0.195050
vn -0.831380 0.000000 -0.555545
vn -0.831380 0.000000 -0.555545
vn -0.831380 0.000000 -0.555545
vn 0.980712 0.000000 0.195050
vn 0.980712 0.000000 0.195050
vn 0.980712 0.000000 0.195050
vn 0.980712 0.000000 0.195050
vn 0.831380 0.000000 0.555545
vn 0.831380 0.000000 0.555545
vn 0.831380 0.000000 0.555545
vn 0.831380 0.000000 0.555545
vn 0.555545 0.000000 0.831380
vn 0.555545 0.000000 0.831380
vn 0.555545 0.000000 0.831380
vn 0.555545 0.000000 0.831380
vn 0.195050 0.000000 0.980712
vn 0.195050 0.000000 0.980712
vn 0.195050 0.000000 0.980712
vn 0.195050 0.000000 0.980712
vn -0.195050 0.000000 0.980712
vn -0.195050 0.000000 0.980712
vn -0.195050 0.000000 0.980712
vn -0.195050 0.000000 0.980712
vn -0.555545 0.000000 0.831380
vn -0.555545 0.000000 0.831380
vn -0.555545 0.000000 0.831380
vn -0.555545 0.000000 0.831380
vn -0.831380 0.000000 0.555545
vn -0.831380 0.000000 0.555545
vn -0.831380 0.000000 0.555545
vn -0.831380 0.000000 0.555545
vn -0.980712 0.000000 0.195050
vn -0.980712 0.000000 0.195050
vn -0.980712 0.000000 0.195050
vn -0.980712 0.000000 0.195050
vn -0.980712 0.000000 -0.195050
vn -0.980712 0.000000 -0.195050
vn -0.980712 0.000000 -0.195050
vn -0.980712 0.000000 -0.195050
vn -0.831380 0.000000 -0.555545
vn -0.831380 0.000000 -0.555545
vn -0.831380 0.000000 -0.555545
vn -0.831380 0.000000 -0.555545
vn -0.555545 0.000000 -0.831380
vn -0.555545 0.000000 -0.831380
vn -0.555545 0.000000 -0.831380
vn -0.555545 0.000000 -0.831380
vn -0.195050 0.000000 -0.980712
vn -0.195050 0.000000 -0.980712
vn -0.195050 0.000000 -0.980712
vn -0.195050 0.000000 -0.980712
vn 0.000000 1.000000 0.000000
vn 0.000000 1.000000 0.000000
vn 0.000000 1.000000 0.000000
vn 0.000000 1.000000 0.000000
vn 0.000000 1.000000 0.000000
vn 0.000000 1.000000 0.000000
vn 0.000000 1.000000 0.000000
vn 0.000000 1.000000 0.000000
vn 0.000000 1.000000 0.000000
vn 0.000000 1.000000 0.000000
vn 0.000000 1.000000 0.000000
vn 0.000000 1.000000 0.000000
vn 0.000000 0.000000 1.000000
vn 0.000000 0.000000 1.000000
vn 0.000000 0.000000 1.000000
vn 0.000000 0.000000 1.000000
vn 0.000000 -1.000000 0.000000
vn 0.000000 -1.000000 0.000000
vn 0.000000 -1.000000 0.000000
vn 0.000000 -1.000000 0.000000
vn 0.000000 -1.000000 0.000000
vn 0.000000 -1.000000 0.000000
vn 0.000000 -1.000000 0.000000
vn 0.000000 -1.000000 0.000000
vn 0.000000 -1.000000 0.000000
vn 0.000000 -1.000000 0.000000
vn 0.000000 -1.000000 0.000000
vn 0.000000 -1.000000 0.000000
vn 0.000000 -1.000000 0.000000
vn 0.000000 -1.000000 0.000000
vn 0.000000 -1.000000 0.000000
vn 0.000000 -1.000000 0.000000
vn 0.000000 -1.000000 0.000000
vn 0.000000 -1.000000 0.000000
vn 0.000000 -1.000000 0.000000
vn 0.000000 -1.000000 0.000000
vn 0.000000 -1.000000 0.000000
vn 0.000000 -1.000000 0.000000
vn 0.000000 -1.000000 0.000000
vn 0.000000 -1.000000 0.000000
vn 0.000000 0.000000 1.000000
vn 0.000000 0.000000 1.000000
vn 0.000000 0.000000 1.000000
vn 0.000000 0.000000 1.000000
vn 0.000000 1.000000 0.000000
vn 0.000000 1.000000 0.000000
vn 0.000000 1.000000 0.000000
vn 0.000000 1.000000 0.000000
vn 0.000000 1.000000 0.000000
vn 0.000000 1.000000 0.000000
vn 0.000000 1.000000 0.000000
vn 0.000000 1.000000 0.000000
vn 0.000000 1.000000 0.000000
vn 0.000000 1.000000 0.000000
vn 0.000000 1.000000 0.000000
vn 0.000000 1.000000 0.000000
vn 0.980712 0.000000 -0.195050
vn 0.980712 0.000000 -0.195050
vn 0.980712 0.000000 -0.195050
vn 0.980712 0.000000 -0.195050
vn 0.980712 0.000000 -0.195050
vn 0.980712 0.000000 -0.195050
vn 0.980712 0.000000 -0.195050
vn 0.831380 0.000000 -0.555545
vn 0.831380 0.000000 -0.555545
vn 0.831380 0.000000 -0.555545
vn 0.980712 0.000000 0.195050
vn 0.980712 0.000000 0.195050
vn 0.980712 0.000000 0.195050
vn 0.980712 0.000000 0.195050
vn 0.831380 0.000000 0.555545
vn 0.831380 0.000000 0.555545
vn 0.831380 0.000000 0.555545
vn 0.831380 0.000000 0.555545
vn 0.555545 0.000000 0.831380
vn 0.555545 0.000000 0.831380
vn 0.555545 0.000000 0.831380
vn 0.555545 0.000000 0.831380
vn 0.195050 0.000000 0.980712
vn 0.195050 0.000000 0.980712
vn 0.195050 0.000000 0.980712
vn 0.195050 0.000000 0.980712
vn -0.195050 0.000000 0.980712
vn -0.195050 0.000000 0.980712
vn -0.195050 0.000000 0.980712
vn -0.195050 0.000000 0.980712
vn -0.555545 0.000000 0.831380
vn -0.555545 0.000000 0.831380
vn -0.555545 0.000000 0.831380
vn -0.555545 0.000000 0.831380
vn -0.831380 0.000000 0.555545
vn -0.831380 0.000000 0.555545
vn -0.831380 0.000000 0.555545
vn -0.831380 0.000000 0.555545
vn -0.980712 0.000000 0.195050
vn -0.980712 0.000000 0.195050
vn -0.980712 0.000000 0.195050
vn -0.980712 0.000000 0.195050
vn -0.980712 0.000000 -0.195050
vn -0.980712 0.000000 -0.195050
vn -0.980712 0.000000 -0.195050
vn -0.980712 0.000000 -0.195050
vn -0.831380 0.000000 -0.555545
vn -0.831380 0.000000 -0.555545
vn -0.831380 0.000000 -0.555545
vn -0.831380 0.000000 -0.555545
vn -0.555545 0.000000 -0.831380
vn -0.555545 0.000000 -0.831380
vn -0.555545 0.000000 -0.831380
vn -0.555545 0.000000 -0.831380
vn -0.195050 0.000000 -0.980712
vn -0.195050 0.000000 -0.980712
vn -0.195050 0.000000 -0.980712
vn -0.195050 0.000000 -0.980712
vn 0.195050 0.000000 -0.980712
vn 0.195050 0.000000 -0.980712
vn 0.195050 0.000000 -0.980712
vn 0.195050 0.000000 -0.980712
vn 0.555545 0.000000 -0.831380
vn 0.555545 0.000000 -0.831380
vn 0.555545 0.000000 -0.831380
vn 0.555545 0.000000 -0.831380
vn 0.831380 0.000000 -0.555545
vn 0.831380 0.000000 -0.555545
vn 0.831380 0.000000 -0.555545
vn 0.831380 0.000000 -0.555545
vn 0.980712 0.000000 -0.195050
vn 0.980712 0.000000 -0.195050
vn 0.980712 0.000000 -0.195050
vn 0.980712 0.000000 -0.195050
vn 0.980712 0.000000 0.195050
vn 0.980712 0.000000 0.195050
vn 0.980712 0.000000 0.195050
vn 0.980712 0.000000 0.195050
vn 0.831380 0.000000 0.555545
vn 0.831380 0.000000 0.555545
vn 0.831380 0.000000 0.555545
vn 0.831380 0.000000 0.555545
vn 0.555545 0.000000 0.831380
vn 0.555545 0.000000 0.831380
vn 0.555545 0.000000 0.831380
vn 0.555545 0.000000 0.831380
vn 0.195050 0.000000 0.980712
vn 0.195050 0.000000 0.980712
vn 0.195050 0.000000 0.980712
vn 0.195050 0.000000 0.980712
vn -0.195050 0.000000 0.980712
vn -0.195050 0.000000 0.980712
vn -0.195050 0.000000 0.980712
vn -0.195050 0.000000 0.980712
vn -0.555545 0.000000 0.831380
vn -0.555545 0.000000 0.831380
vn -0.555545 0.000000 0.831380
vn -0.555545 0.000000 0.831380
vn -0.831380 0.000000 0.555545
vn -0.831380 0.000000 0.555545
vn -0.831380 0.000000 0.555545
vn -0.831380 0.000000 0.555545
vn -0.980712 0.000000 0.195050
vn -0.980712 0.000000 0.195050
vn -0.980712 0.000000 0.195050
vn -0.980712 0.000000 0.195050
vn -0.980712 0.000000 -0.195050
vn -0.980712 0.000000 -0.195050
vn -0.980712 0.000000 -0.195050
vn -0.980712 0.000000 -0.195050
vn -0.831380 0.000000 -0.555545
vn -0.831380 0.000000 -0.555545
vn -0.831380 0.000000 -0.555545
vn -0.831380 0.000000 -0.555545
vn -0.555545 0.000000 -0.831380
vn -0.555545 0.000000 -0.831380
vn -0.555545 0.000000 -0.831380
vn -0.555545 0.000000 -0.831380
vn -0.195050 0.000000 -0.980712
vn -0.195050 0.000000 -0.980712
vn -0.195050 0.000000 -0.980712
vn -0.195050 0.000000 -0.980712
vn 0.195050 0.000000 -0.980712
vn 0.195050 0.000000 -0.980712
vn 0.195050 0.000000 -0.980712
vn 0.195050 0.000000 -0.980712
vn 0.555545 0.000000 -0.831380
vn 0.555545 0.000000 -0.831380
vn 0.555545 0.000000 -0.831380
vn 0.555545 0.000000 -0.831380
vn 0.831380 0.000000 -0.555545
vn 0.831380 0.000000 -0.555545
vn 0.831380 0.000000 -0.555545
vn 0.831380 0.000000 -0.555545
vn 0.980712 0.000000 -0.195050
vn 0.980712 0.000000 -0.195050
vn 0.980712 0.000000 -0.195050
vn 0.980712 0.000000 -0.195050
vn 0.000000 1.000000 0.000000
vn 0.000000 1.000000 0.000000
vn 0.000000 1.000000 0.000000
vn 0.000000 1.000000 0.000000
vn 0.000000 -1.000000 0.000000
vn 0.000000 -1.000000 0.000000
vn 0.000000 -1.000000 0.000000
vn 0.000000 -1.000000 0.000000
vn 0.000000 1.000000 0.000000
vn 0.000000 1.000000 0.000000
vn 0.000000 1.000000 0.000000
vn 0.000000 1.000000 0.000000
vn 0.000000 -1.000000 0.000000
vn 0.000000 -1.000000 0.000000
vn 0.000000 -1.000000 0.000000
vn 0.000000 -1.000000 0.000000
vn 0.000000 1.000000 0.000000
vn 0.000000 1.000000 0.000000
vn 0.000000 1.000000 0.000000
vn 0.000000 1.000000 0.000000
vn 0.000000 -1.000000 0.000000
vn 0.000000 -1.000000 0.000000
vn 0.000000 -1.000000 0.000000
vn 0.000000 -1.000000 0.000000
vn 0.000000 1.000000 0.000000
vn 0.000000 1.000000 0.000000
vn 0.000000 1.000000 0.000000
vn 0.000000 1.000000 0.000000
vn 0.000000 -1.000000 0.000000
vn 0.000000 -1.000000 0.000000
vn 0.000000 -1.000000 0.000000
vn 0.000000 -1.000000 0.000000
vn 0.000000 1.000000 0.000000
vn 0.000000 1.000000 0.000000
vn 0.000000 1.000000 0.000000
vn 0.000000 1.000000 0.000000
vn 0.000000 -1.000000 0.000000
vn 0.000000 -1.000000 0.000000
vn 0.000000 -1.000000 0.000000
vn 0.000000 -1.000000 0.000000
vn 0.000000 1.000000 0.000000
vn 0.000000 1.000000 0.000000
vn 0.000000 1.000000 0.000000
vn 0.000000 1.000000 0.000000
vn 0.000000 -1.000000 0.000000
vn 0.000000 -1.000000 0.000000
vn 0.000000 -1.000000 0.000000
vn 0.000000 -1.000000 0.000000
vn 0.000000 1.000000 0.000000
vn 0.000000 1.000000 0.000000
vn 0.000000 1.000000 0.000000
vn 0.000000 1.000000 0.000000
vn 0.000000 -1.000000 0.000000
vn 0.000000 -1.000000 0.000000
vn 0.000000 -1.000000 0.000000
vn 0.000000 -1.000000 0.000000
vn 0.000000 1.000000 0.000000
vn 0.000000 1.000000 0.000000
vn 0.000000 1.000000 0.000000
vn 0.000000 1.000000 0.000000
vn 0.000000 -1.000000 0.000000
vn 0.000000 -1.000000 0.000000
vn 0.000000 -1.000000 0.000000
vn 0.000000 -1.000000 0.000000
vn 0.000000 1.000000 0.000000
vn 0.000000 1.000000 0.000000
vn 0.000000 1.000000 0.000000
vn 0.000000 1.000000 0.000000
vn 0.000000 -1.000000 0.000000
vn 0.000000 -1.000000 0.000000
vn 0.000000 -1.000000 0.000000
vn 0.000000 -1.000000 0.000000
vn 0.000000 1.000000 0.000000
vn 0.000000 1.000000 0.000000
vn 0.000000 1.000000 0.000000
vn 0.000000 1.000000 0.000000
vn 0.000000 -1.000000 0.000000
vn 0.000000 -1.000000 0.000000
vn 0.000000 -1.000000 0.000000
vn 0.000000 -1.000000 0.000000
vn 0.000000 1.000000 0.000000
vn 0.000000 1.000000 0.000000
vn 0.000000 1.000000 0.000000
vn 0.000000 1.000000 0.000000
vn 0.000000 -1.000000 0.000000
vn 0.000000 -1.000000 0.000000
vn 0.000000 -1.000000 0.000000
vn 0.000000 -1.000000 0.000000
vn 0.000000 1.000000 0.000000
vn 0.000000 1.000000 0.000000
vn 0.000000 1.000000 0.000000
vn 0.000000 1.000000 0.000000
vn 0.000000 -1.000000 0.000000
vn 0.000000 -1.000000 0.000000
vn 0.000000 -1.000000 0.000000
vn 0.000000 -1.000000 0.000000
vn 0.000000 1.000000 0.000000
vn 0.000000 1.000000 0.000000
vn 0.000000 1.000000 0.000000
vn 0.000000 1.000000 0.000000
vn 0.000000 -1.000000 0.000000
vn 0.000000 -1.000000 0.000000
vn 0.000000 -1.000000 0.000000
vn 0.000000 -1.000000 0.000000
vn 0.000000 1.000000 0.000000
vn 0.000000 1.000000 0.000000
vn 0.000000 1.000000 0.000000
vn 0.000000 1.000000 0.000000
vn 0.000000 -1.000000 0.000000
vn 0.000000 -1.000000 0.000000
vn 0.000000 -1.000000 0.000000
vn 0.000000 -1.000000 0.000000
vn 0.000000 1.000000 0.000000
vn 0.000000 1.000000 0.000000
vn 0.000000 1.000000 0.000000
vn 0.000000 1.000000 0.000000
vn 0.000000 -1.000000 0.000000
vn 0.000000 -1.000000 0.000000
vn 0.000000 -1.000000 0.000000
vn 0.000000 -1.000000 0.000000
vn 0.000000 1.000000 0.000000
vn 0.000000 1.000000 0.000000
vn 0.000000 1.000000 0.000000
vn 0.000000 1.000000 0.000000
vn 0.000000 -1.000000 0.000000
vn 0.000000 -1.000000 0.000000
vn 0.000000 -1.000000 0.000000
vn 0.000000 -1.000000 0.000000
vn 0.000000 -1.000000 0.000000
vn 0.000000 -1.000000 0.000000
vn 0.000000 -1.000000 0.000000
vn 0.000000 -1.000000 0.000000
vn 0.000000 -1.000000 0.000000
vn 0.000000 -1.000000 0.000000
vn 0.000000 -1.000000 0.000000
vn 0.000000 -1.000000 0.000000
vn 0.000000 -1.000000 0.000000
vn 0.000000 -1.000000 0.000000
vn 0.000000 -1.000000 0.000000
# 533 uv coords
vt 0.786992 0.859456
vt 0.544897 0.904540
vt 0.544610 0.890314
vt 0.545915 0.876713
vt 0.548839 0.863687
vt 0.553288 0.851275
vt 0.559161 0.839547
vt 0.566382 0.828599
vt 0.574909 0.818542
vt 0.584729 0.809499
vt 0.595857 0.801571
vt 0.608322 0.794708
vt 0.610837 0.801728
vt 0.552235 0.903209
vt 0.551566 0.890324
vt 0.552849 0.877743
vt 0.555706 0.865657
vt 0.559943 0.854115
vt 0.565453 0.843181
vt 0.572169 0.832943
vt 0.580048 0.823505
vt 0.589088 0.814989
vt 0.599343 0.807589
vt 0.614459 0.816051
vt 0.566451 0.899188
vt 0.565959 0.889386
vt 0.567219 0.879406
vt 0.569755 0.869481
vt 0.573419 0.859789
vt 0.578132 0.850502
vt 0.583820 0.841778
vt 0.590382 0.833761
vt 0.597711 0.826603
vt 0.605724 0.820524
vt 0.482272 0.769618
vt 0.487734 0.769618
vt 0.493194 0.769618
vt 0.090291 0.193165
vt 0.147033 0.175994
vt 0.204776 0.163650
vt 0.263537 0.159178
vt 0.322298 0.163652
vt 0.380042 0.175996
vt 0.436784 0.193170
vt 0.090290 0.577221
vt 0.147031 0.560050
vt 0.204775 0.547708
vt 0.263536 0.543237
vt 0.322296 0.547709
vt 0.380039 0.560055
vt 0.436780 0.577227
vt 0.100747 0.229593
vt 0.153927 0.209570
vt 0.208216 0.195927
vt 0.263537 0.191078
vt 0.318857 0.195928
vt 0.373146 0.209572
vt 0.426327 0.229595
vt 0.100746 0.613648
vt 0.153926 0.593627
vt 0.208214 0.579985
vt 0.263535 0.575136
vt 0.318855 0.579986
vt 0.373143 0.593630
vt 0.426323 0.613653
vt 0.113391 0.259291
vt 0.161671 0.236804
vt 0.211928 0.222129
vt 0.263537 0.217000
vt 0.315146 0.222129
vt 0.365402 0.236805
vt 0.413683 0.259294
vt 0.113387 0.643347
vt 0.161669 0.620861
vt 0.211925 0.606187
vt 0.263534 0.601059
vt 0.315143 0.606188
vt 0.365399 0.620864
vt 0.413679 0.643352
vt 0.130321 0.287197
vt 0.172073 0.263451
vt 0.216929 0.248426
vt 0.263537 0.243250
vt 0.310144 0.248426
vt 0.354999 0.263452
vt 0.396752 0.287199
vt 0.130316 0.671252
vt 0.172071 0.647508
vt 0.216925 0.632484
vt 0.263534 0.627309
vt 0.310141 0.632485
vt 0.354996 0.647510
vt 0.396748 0.671257
vt 0.151275 0.312757
vt 0.185212 0.289505
vt 0.223304 0.275010
vt 0.263537 0.270062
vt 0.303769 0.275010
vt 0.341860 0.289505
vt 0.375797 0.312759
vt 0.151271 0.696814
vt 0.185207 0.673561
vt 0.223299 0.659068
vt 0.263533 0.654120
vt 0.303766 0.659069
vt 0.341857 0.673563
vt 0.375793 0.696817
vt 0.175642 0.335519
vt 0.200974 0.314865
vt 0.231056 0.301953
vt 0.263537 0.297548
vt 0.296018 0.301954
vt 0.326100 0.314866
vt 0.351431 0.335520
vt 0.175637 0.719576
vt 0.200969 0.698922
vt 0.231052 0.686011
vt 0.263533 0.681606
vt 0.296014 0.686012
vt 0.326095 0.698923
vt 0.351426 0.719579
vt 0.202652 0.355139
vt 0.219148 0.339315
vt 0.240160 0.329198
vt 0.263537 0.325704
vt 0.286914 0.329198
vt 0.307926 0.339316
vt 0.324422 0.355140
vt 0.202647 0.739196
vt 0.219142 0.723372
vt 0.240155 0.713255
vt 0.263533 0.709762
vt 0.286909 0.713256
vt 0.307921 0.723373
vt 0.324417 0.739198
vt 0.231644 0.371220
vt 0.239669 0.362424
vt 0.250731 0.356545
vt 0.263537 0.354449
vt 0.276342 0.356545
vt 0.287404 0.362424
vt 0.295429 0.371220
vt 0.231640 0.755277
vt 0.239664 0.746480
vt 0.250726 0.740603
vt 0.263532 0.738507
vt 0.276337 0.740603
vt 0.287399 0.746481
vt 0.295424 0.755279
vt 0.583809 0.132715
vt 0.636363 0.148686
vt 0.688591 0.158570
vt 0.741330 0.161888
vt 0.794068 0.158571
vt 0.846296 0.148688
vt 0.898851 0.132716
vt 0.090662 0.872107
vt 0.142810 0.890686
vt 0.195952 0.902185
vt 0.249856 0.906067
vt 0.303760 0.902182
vt 0.356901 0.890680
vt 0.409047 0.872097
vt 0.347961 0.859737
vt 0.395077 0.842522
vt 0.299262 0.870174
vt 0.249855 0.873672
vt 0.200449 0.870177
vt 0.151748 0.859743
vt 0.104631 0.842531
vt 0.886135 0.102389
vt 0.838641 0.117666
vt 0.790163 0.126788
vt 0.741330 0.129827
vt 0.692495 0.126788
vt 0.644017 0.117666
vt 0.596524 0.102389
vt 0.338018 0.828200
vt 0.379996 0.812561
vt 0.294336 0.837467
vt 0.249855 0.840552
vt 0.205372 0.837469
vt 0.161689 0.828205
vt 0.119709 0.812569
vt 0.871902 0.071850
vt 0.829478 0.086005
vt 0.785692 0.094200
vt 0.741330 0.096899
vt 0.696967 0.094199
vt 0.653180 0.086005
vt 0.610755 0.071849
vt 0.328797 0.799979
vt 0.365555 0.786206
vt 0.289806 0.808224
vt 0.249854 0.810956
vt 0.209902 0.808225
vt 0.170908 0.799982
vt 0.134149 0.786212
vt 0.858078 0.045059
vt 0.820819 0.057666
vt 0.781494 0.065031
vt 0.741330 0.067441
vt 0.701165 0.065030
vt 0.661841 0.057666
vt 0.624581 0.045059
vt 0.931903 0.242992
vt 0.648502 0.709004
vt 0.651174 0.658928
vt 0.654330 0.599864
vt 0.655486 0.578254
vt 0.658645 0.519189
vt 0.661321 0.469117
vt 0.550756 0.242990
vt 0.842248 0.318838
vt 0.842264 0.328754
vt 0.786602 0.319128
vt 0.786617 0.328635
vt 0.730751 0.319258
vt 0.730766 0.328673
vt 0.674881 0.319351
vt 0.674898 0.328761
vt 0.619011 0.319450
vt 0.619030 0.328865
vt 0.563160 0.319522
vt 0.563180 0.329028
vt 0.507512 0.319450
vt 0.507535 0.329367
vt 0.879206 0.394925
vt 0.879225 0.404842
vt 0.823560 0.395225
vt 0.823577 0.404730
vt 0.767709 0.395367
vt 0.767726 0.404783
vt 0.711839 0.395475
vt 0.711858 0.404885
vt 0.655970 0.395589
vt 0.655990 0.405003
vt 0.600118 0.395669
vt 0.600140 0.405175
vt 0.544470 0.395607
vt 0.544495 0.405522
vt 0.466322 0.418499
vt 0.526350 0.433207
vt 0.493984 0.594560
vt 0.479522 0.636961
vt 0.402905 0.401963
vt 0.460163 0.671973
vt 0.334798 0.389430
vt 0.434357 0.702873
vt 0.263538 0.384783
vt 0.403552 0.728124
vt 0.192278 0.389429
vt 0.369622 0.747033
vt 0.124170 0.401959
vt 0.334359 0.759617
vt 0.060752 0.418493
vt 0.299222 0.766192
vt 0.000724 0.433199
vt 0.033086 0.594552
vt 0.263532 0.767360
vt 0.047546 0.636954
vt 0.066903 0.671966
vt 0.092706 0.702868
vt 0.123510 0.728120
vt 0.157440 0.747029
vt 0.192704 0.759615
vt 0.227841 0.766190
vt 0.000724 0.049143
vt 0.060752 0.034436
vt 0.033087 0.210497
vt 0.124171 0.017901
vt 0.047548 0.252899
vt 0.192279 0.005370
vt 0.066905 0.287910
vt 0.263541 0.000724
vt 0.092710 0.318812
vt 0.334802 0.005372
vt 0.123516 0.344064
vt 0.402911 0.017905
vt 0.157445 0.362972
vt 0.466327 0.034442
vt 0.192709 0.375558
vt 0.526356 0.049151
vt 0.493987 0.210503
vt 0.227846 0.382133
vt 0.479525 0.252904
vt 0.263537 0.383302
vt 0.460167 0.287914
vt 0.434362 0.318814
vt 0.403557 0.344065
vt 0.369627 0.362974
vt 0.334364 0.375559
vt 0.299227 0.382134
vt 0.485507 0.380266
vt 0.543880 0.378221
vt 0.490004 0.396601
vt 0.600078 0.378553
vt 0.490025 0.404814
vt 0.655941 0.378514
vt 0.543994 0.422910
vt 0.485613 0.421171
vt 0.711806 0.378402
vt 0.600182 0.422289
vt 0.767668 0.378294
vt 0.656036 0.422076
vt 0.823528 0.378110
vt 0.711893 0.421957
vt 0.879721 0.377537
vt 0.767749 0.421855
vt 0.938101 0.379318
vt 0.933677 0.395673
vt 0.823606 0.421845
vt 0.933692 0.403884
vt 0.879802 0.422228
vt 0.938177 0.420221
vt 0.896718 0.319597
vt 0.896731 0.327808
vt 0.842766 0.301449
vt 0.901146 0.303245
vt 0.901214 0.344145
vt 0.842839 0.346141
vt 0.786573 0.302013
vt 0.786642 0.345750
vt 0.730714 0.302184
vt 0.730784 0.345746
vt 0.674851 0.302278
vt 0.674928 0.345833
vt 0.618987 0.302375
vt 0.619073 0.345937
vt 0.563123 0.302406
vt 0.563220 0.346142
vt 0.506924 0.302064
vt 0.507030 0.346755
vt 0.453065 0.328650
vt 0.453046 0.320438
vt 0.448551 0.304103
vt 0.448650 0.345006
vt 0.915566 0.806200
vt 0.926159 0.859456
vt 0.915566 0.912713
vt 0.885398 0.761051
vt 0.885398 0.957862
vt 0.840249 0.730883
vt 0.840249 0.988030
vt 0.786992 0.720290
vt 0.786992 0.998623
vt 0.733736 0.730883
vt 0.733736 0.988030
vt 0.688587 0.761051
vt 0.688587 0.957862
vt 0.658419 0.806200
vt 0.658419 0.912713
vt 0.647826 0.859456
vt 0.453781 0.350724
vt 0.514085 0.350724
vt 0.514085 0.375482
vt 0.453781 0.375482
vt 0.574390 0.350724
vt 0.574390 0.375482
vt 0.393478 0.350724
vt 0.393478 0.375482
vt 0.634696 0.350724
vt 0.634696 0.375482
vt 0.695001 0.350724
vt 0.695001 0.375482
vt 0.755306 0.350724
vt 0.755306 0.375482
vt 0.815609 0.350724
vt 0.815609 0.375482
vt 0.875911 0.350724
vt 0.875911 0.375482
vt 0.793756 0.666527
vt 0.757631 0.714809
vt 0.705779 0.745600
vt 0.646087 0.754210
vt 0.539376 0.703161
vt 0.508594 0.651311
vt 0.808659 0.608106
vt 0.587651 0.739295
vt 0.500000 0.591626
vt 0.809814 0.586509
vt 0.501157 0.570022
vt 0.801225 0.526830
vt 0.516063 0.511594
vt 0.770449 0.474975
vt 0.552191 0.463309
vt 0.722174 0.438834
vt 0.663738 0.423913
vt 0.604045 0.432519
vt 0.319790 0.770709
vt 0.352203 0.758311
vt 0.285350 0.777981
vt 0.382991 0.741304
vt 0.397759 0.767457
vt 0.419539 0.788845
vt 0.249853 0.780386
vt 0.437876 0.818975
vt 0.214356 0.777982
vt 0.440642 0.958807
vt 0.380026 0.979954
vt 0.461316 0.846713
vt 0.179914 0.770711
vt 0.497540 0.934648
vt 0.315883 0.993650
vt 0.147498 0.758317
vt 0.249860 0.998361
vt 0.101942 0.767466
vt 0.116710 0.741311
vt 0.183834 0.993654
vt 0.080165 0.788855
vt 0.119691 0.979963
vt 0.061830 0.818987
vt 0.059073 0.958818
vt 0.038392 0.846727
vt 0.002174 0.934664
vt 0.845479 0.016782
vt 0.876823 0.000724
vt 0.890873 0.027331
vt 0.912188 0.049501
vt 0.812473 0.028200
vt 0.929732 0.080552
vt 0.777430 0.034745
vt 0.952282 0.109637
vt 0.741330 0.036884
vt 0.984228 0.201064
vt 0.705229 0.034745
vt 0.989555 0.224202
vt 0.670186 0.028199
vt 0.996427 0.248505
vt 0.937948 0.267569
vt 0.875338 0.284280
vt 0.809089 0.296278
vt 0.637179 0.016782
vt 0.741330 0.300409
vt 0.591785 0.027331
vt 0.605834 0.000724
vt 0.673570 0.296277
vt 0.570471 0.049501
vt 0.607321 0.284279
vt 0.552928 0.080552
vt 0.544709 0.267567
vt 0.530378 0.109636
vt 0.486232 0.248501
vt 0.493104 0.224199
vt 0.498431 0.201061
vt 0.998835 0.645433
vt 0.815217 0.645433
vt 0.822206 0.610299
vt 0.842108 0.580514
vt 0.971945 0.580514
vt 0.991847 0.610299
vt 0.871893 0.560611
vt 0.907026 0.553623
vt 0.942160 0.560611
vt 0.977354 0.682236
vt 0.957453 0.712021
vt 0.827615 0.712022
vt 0.807713 0.682236
vt 0.800725 0.647103
vt 0.984342 0.647102
vt 0.927668 0.731923
vt 0.892534 0.738911
vt 0.857400 0.731923
vt 0.579691 0.751028
vt 0.594287 0.742754
vt 0.622408 0.788576
vt 0.623116 0.798457
vt 0.564550 0.759998
vt 0.624006 0.814540
vt 0.549919 0.770790
vt 0.622383 0.822999
vt 0.616185 0.823896
vt 0.536383 0.783447
vt 0.609451 0.827506
vt 0.524321 0.797761
vt 0.602636 0.832784
vt 0.513982 0.813460
vt 0.596124 0.839216
vt 0.505553 0.830261
vt 0.590188 0.846508
vt 0.499185 0.847864
vt 0.585006 0.854472
vt 0.494988 0.865915
vt 0.580698 0.862941
vt 0.492954 0.883980
vt 0.577349 0.871727
vt 0.492754 0.901578
vt 0.575034 0.880582
vt 0.492884 0.918355
vt 0.546627 0.919805
vt 0.573870 0.889123
vt 0.555540 0.915479
vt 0.574109 0.896760
vt 0.569915 0.908211
vt 0.576429 0.902578
vt 0.505281 0.748326
vt 0.506228 0.742754
vt 0.510749 0.743523
vt 0.509802 0.749097
vt 0.504330 0.753894
vt 0.508849 0.754673
vt 0.503365 0.759453
vt 0.507880 0.760251
vt 0.502370 0.765002
vt 0.506881 0.765831
vt 0.501332 0.770538
vt 0.505835 0.771406
vt 0.500240 0.776061
vt 0.504734 0.776974
vt 0.499092 0.781573
vt 0.503576 0.782530
vt 0.497889 0.787075
vt 0.502365 0.788072
vt 0.496639 0.792572
vt 0.501108 0.793600
vt 0.495357 0.798067
vt 0.499822 0.799114
vt 0.494059 0.803565
vt 0.498521 0.804620
vt 0.492754 0.809064
vt 0.497216 0.810122
vt 0.493194 0.760159
vt 0.497192 0.764157
vt 0.498654 0.769618
vt 0.497192 0.775078
vt 0.493194 0.779076
vt 0.487733 0.758696
vt 0.487733 0.780539
vt 0.482272 0.760159
vt 0.482272 0.779076
vt 0.476811 0.769618
vt 0.478275 0.764157
vt 0.478275 0.775078
# 388 polygons
s off
g pCylinder4
f 1/340/1 2/342/2 17/1/3
f 2/342/4 3/344/5 17/1/6
f 3/344/7 4/346/8 17/1/9
f 4/346/10 5/348/11 17/1/12
f 5/348/13 6/350/14 17/1/15
f 6/350/16 7/352/17 17/1/18
f 7/352/19 8/353/20 17/1/21
f 8/353/22 9/351/23 17/1/24
f 9/351/25 10/349/26 17/1/27
f 10/349/28 11/347/29 17/1/30
f 11/347/31 12/345/32 17/1/33
f 12/345/34 13/343/35 17/1/36
f 13/343/37 14/341/38 17/1/39
f 14/341/40 15/338/41 17/1/42
f 15/338/43 16/339/44 17/1/45
f 16/339/46 1/340/47 17/1/48
g pCylinder3
f 18/489/49 19/487/50 31/2/51 30/490/52
f 19/487/53 20/485/54 32/3/55 31/2/56
f 20/485/57 21/483/58 33/4/59 32/3/60
f 21/483/61 22/481/62 34/5/63 33/4/64
f 22/481/65 23/479/66 35/6/67 34/5/68
f 23/479/69 24/477/70 36/7/71 35/6/72
f 24/477/73 25/475/74 37/8/75 36/7/76
f 25/475/77 26/473/78 38/9/79 37/8/80
f 26/473/81 27/470/82 39/10/83 38/9/84
f 27/470/85 28/468/86 40/11/87 39/10/88
f 28/468/89 29/464/90 41/12/91 40/11/92
f 29/464/93 18/465/94 30/466/95 41/12/96
f 91/36/97 92/37/98 80/526/99 81/528/100
f 41/12/101 30/466/102 43/467/103 42/13/104
f 30/490/105 31/2/106 44/14/107 43/492/108
f 31/2/109 32/3/110 45/15/111 44/14/112
f 32/3/113 33/4/114 46/16/115 45/15/116
f 33/4/117 34/5/118 47/17/119 46/16/120
f 34/5/121 35/6/122 48/18/123 47/17/124
f 35/6/125 36/7/126 49/19/127 48/18/128
f 36/7/129 37/8/130 50/20/131 49/19/132
f 37/8/133 38/9/134 51/21/135 50/20/136
f 38/9/137 39/10/138 52/22/139 51/21/140
f 39/10/141 40/11/142 53/23/143 52/22/144
f 40/11/145 41/12/146 42/13/147 53/23/148
f 42/13/149 43/467/150 55/469/151 54/24/152
f 43/492/153 44/14/154 56/25/155 55/494/156
f 44/14/157 45/15/158 57/26/159 56/25/160
f 45/15/161 46/16/162 58/27/163 57/26/164
f 46/16/165 47/17/166 59/28/167 58/27/168
f 47/17/169 48/18/170 60/29/171 59/28/172
f 48/18/173 49/19/174 61/30/175 60/29/176
f 49/19/177 50/20/178 62/31/179 61/30/180
f 50/20/181 51/21/182 63/32/183 62/31/184
f 51/21/185 52/22/186 64/33/187 63/32/188
f 52/22/189 53/23/190 65/34/191 64/33/192
f 53/23/193 42/13/194 54/24/195 65/34/196
f 54/24/197 55/469/198 67/471/199 66/472/200
f 55/494/201 56/25/202 68/493/203 67/495/204
f 56/25/205 57/26/206 69/491/207 68/493/208
f 57/26/209 58/27/210 70/488/211 69/491/212
f 58/27/213 59/28/214 71/486/215 70/488/216
f 59/28/217 60/29/218 72/484/219 71/486/220
f 60/29/221 61/30/222 73/482/223 72/484/224
f 61/30/225 62/31/226 74/480/227 73/482/228
f 62/31/229 63/32/230 75/478/231 74/480/232
f 63/32/233 64/33/234 76/476/235 75/478/236
f 64/33/237 65/34/238 77/474/239 76/476/240
f 65/34/241 54/24/242 66/472/243 77/474/244
f 66/520/245 67/518/246 79/519/247 78/521/248
f 67/518/249 68/516/250 80/517/251 79/519/252
f 68/516/253 69/514/254 81/515/255 80/517/256
f 69/514/257 70/512/258 82/513/259 81/515/260
f 70/512/261 71/510/262 83/511/263 82/513/264
f 71/510/265 72/508/266 84/509/267 83/511/268
f 72/508/269 73/506/270 85/507/271 84/509/272
f 73/506/273 74/504/274 86/505/275 85/507/276
f 74/504/277 75/502/278 87/503/279 86/505/280
f 75/502/281 76/500/282 88/501/283 87/503/284
f 76/500/285 77/496/286 89/499/287 88/501/288
f 77/496/289 66/497/290 78/498/291 89/499/292
f 90/35/293 91/36/294 81/528/295 82/530/296
f 78/524/297 79/525/298 80/526/299 92/37/300
f 84/531/301 90/35/302 82/530/303 83/533/304
f 86/529/305 90/35/306 84/531/307 85/532/308
f 87/527/309 91/36/310 90/35/311 86/529/312
f 88/522/313 92/37/314 91/36/315 87/527/316
f 78/524/317 92/37/318 88/522/319 89/523/320
g pSphere2 set3
f 93/38/321 94/39/322 110/53/323 109/52/324
f 94/39/325 95/40/326 111/54/327 110/53/328
f 95/40/329 96/41/330 112/55/331 111/54/332
f 96/41/333 97/42/334 113/56/335 112/55/336
f 97/42/337 98/43/338 114/57/339 113/56/340
f 98/43/341 99/44/342 115/58/343 114/57/344
f 99/44/345 100/284/346 116/286/347 115/58/348
f 100/259/349 101/45/350 117/59/351 116/261/352
f 101/45/353 102/46/354 118/60/355 117/59/356
f 102/46/357 103/47/358 119/61/359 118/60/360
f 103/47/361 104/48/362 120/62/363 119/61/364
f 104/48/365 105/49/366 121/63/367 120/62/368
f 105/49/369 106/50/370 122/64/371 121/63/372
f 106/50/373 107/51/374 123/65/375 122/64/376
f 107/51/377 108/244/378 124/245/379 123/65/380
f 108/270/381 93/38/382 109/52/383 124/272/384
f 109/52/385 110/53/386 126/67/387 125/66/388
f 110/53/389 111/54/390 127/68/391 126/67/392
f 111/54/393 112/55/394 128/69/395 127/68/396
f 112/55/397 113/56/398 129/70/399 128/69/400
f 113/56/401 114/57/402 130/71/403 129/70/404
f 114/57/405 115/58/406 131/72/407 130/71/408
f 115/58/409 116/286/410 132/288/411 131/72/412
f 116/261/413 117/59/414 133/73/415 132/262/416
f 117/59/417 118/60/418 134/74/419 133/73/420
f 118/60/421 119/61/422 135/75/423 134/74/424
f 119/61/425 120/62/426 136/76/427 135/75/428
f 120/62/429 121/63/430 137/77/431 136/76/432
f 121/63/433 122/64/434 138/78/435 137/77/436
f 122/64/437 123/65/438 139/79/439 138/78/440
f 123/65/441 124/245/442 140/247/443 139/79/444
f 124/272/445 109/52/446 125/66/447 140/274/448
f 125/66/449 126/67/450 142/81/451 141/80/452
f 126/67/453 127/68/454 143/82/455 142/81/456
f 127/68/457 128/69/458 144/83/459 143/82/460
f 128/69/461 129/70/462 145/84/463 144/83/464
f 129/70/465 130/71/466 146/85/467 145/84/468
f 130/71/469 131/72/470 147/86/471 146/85/472
f 131/72/473 132/288/474 148/289/475 147/86/476
f 132/262/477 133/73/478 149/87/479 148/263/480
f 133/73/481 134/74/482 150/88/483 149/87/484
f 134/74/485 135/75/486 151/89/487 150/88/488
f 135/75/489 136/76/490 152/90/491 151/89/492
f 136/76/493 137/77/494 153/91/495 152/90/496
f 137/77/497 138/78/498 154/92/499 153/91/500
f 138/78/501 139/79/502 155/93/503 154/92/504
f 139/79/505 140/247/506 156/249/507 155/93/508
f 140/274/509 125/66/510 141/80/511 156/276/512
f 141/80/513 142/81/514 158/95/515 157/94/516
f 142/81/517 143/82/518 159/96/519 158/95/520
f 143/82/521 144/83/522 160/97/523 159/96/524
f 144/83/525 145/84/526 161/98/527 160/97/528
f 145/84/529 146/85/530 162/99/531 161/98/532
f 146/85/533 147/86/534 163/100/535 162/99/536
f 147/86/537 148/289/538 164/290/539 163/100/540
f 148/263/541 149/87/542 165/101/543 164/264/544
f 149/87/545 150/88/546 166/102/547 165/101/548
f 150/88/549 151/89/550 167/103/551 166/102/552
f 151/89/553 152/90/554 168/104/555 167/103/556
f 152/90/557 153/91/558 169/105/559 168/104/560
f 153/91/561 154/92/562 170/106/563 169/105/564
f 154/92/565 155/93/566 171/107/567 170/106/568
f 155/93/569 156/249/570 172/251/571 171/107/572
f 156/276/573 141/80/574 157/94/575 172/278/576
f 157/94/577 158/95/578 174/109/579 173/108/580
f 158/95/581 159/96/582 175/110/583 174/109/584
f 159/96/585 160/97/586 176/111/587 175/110/588
f 160/97/589 161/98/590 177/112/591 176/111/592
f 161/98/593 162/99/594 178/113/595 177/112/596
f 162/99/597 163/100/598 179/114/599 178/113/600
f 163/100/601 164/290/602 180/291/603 179/114/604
f 164/264/605 165/101/606 181/115/607 180/265/608
f 165/101/609 166/102/610 182/116/611 181/115/612
f 166/102/613 167/103/614 183/117/615 182/116/616
f 167/103/617 168/104/618 184/118/619 183/117/620
f 168/104/621 169/105/622 185/119/623 184/118/624
f 169/105/625 170/106/626 186/120/627 185/119/628
f 170/106/629 171/107/630 187/121/631 186/120/632
f 171/107/633 172/251/634 188/253/635 187/121/636
f 172/278/637 157/94/638 173/108/639 188/280/640
f 173/108/641 174/109/642 190/123/643 189/122/644
f 174/109/645 175/110/646 191/124/647 190/123/648
f 175/110/649 176/111/650 192/125/651 191/124/652
f 176/111/653 177/112/654 193/126/655 192/125/656
f 177/112/657 178/113/658 194/127/659 193/126/660
f 178/113/661 179/114/662 195/128/663 194/127/664
f 179/114/665 180/291/666 196/292/667 195/128/668
f 180/265/669 181/115/670 197/129/671 196/266/672
f 181/115/673 182/116/674 198/130/675 197/129/676
f 182/116/677 183/117/678 199/131/679 198/130/680
f 183/117/681 184/118/682 200/132/683 199/131/684
f 184/118/685 185/119/686 201/133/687 200/132/688
f 185/119/689 186/120/690 202/134/691 201/133/692
f 186/120/693 187/121/694 203/135/695 202/134/696
f 187/121/697 188/253/698 204/255/699 203/135/700
f 188/280/701 173/108/702 189/122/703 204/282/704
f 189/122/705 190/123/706 206/137/707 205/136/708
f 190/123/709 191/124/710 207/138/711 206/137/712
f 191/124/713 192/125/714 208/139/715 207/138/716
f 192/125/717 193/126/718 209/140/719 208/139/720
f 193/126/721 194/127/722 210/141/723 209/140/724
f 194/127/725 195/128/726 211/142/727 210/141/728
f 195/128/729 196/292/730 212/293/731 211/142/732
f 196/266/733 197/129/734 213/143/735 212/267/736
f 197/129/737 198/130/738 214/144/739 213/143/740
f 198/130/741 199/131/742 215/145/743 214/144/744
f 199/131/745 200/132/746 216/146/747 215/145/748
f 200/132/749 201/133/750 217/147/751 216/146/752
f 201/133/753 202/134/754 218/148/755 217/147/756
f 202/134/757 203/135/758 219/149/759 218/148/760
f 203/135/761 204/255/762 220/257/763 219/149/764
f 204/282/765 189/122/766 205/136/767 220/285/768
f 205/136/769 206/137/770 221/287/771
f 206/137/772 207/138/773 221/287/774
f 207/138/775 208/139/776 221/287/777
f 208/139/778 209/140/779 221/287/780
f 209/140/781 210/141/782 221/287/783
f 210/141/784 211/142/785 221/287/786
f 211/142/787 212/293/788 221/287/789
f 212/267/790 213/143/791 221/260/792
f 213/143/793 214/144/794 221/260/795
f 214/144/796 215/145/797 221/260/798
f 215/145/799 216/146/800 221/260/801
f 216/146/802 217/147/803 221/260/804
f 217/147/805 218/148/806 221/260/807
f 218/148/808 219/149/809 221/260/810
f 219/149/811 220/257/812 221/260/813
f 220/285/814 205/136/815 221/287/816
f 327/213/817 223/151/818 358/439/819 359/441/820
f 223/151/821 224/152/822 357/437/823 358/439/824
f 224/152/825 225/153/826 356/434/827 357/437/828
f 228/156/829 229/423/830 310/425/831
f 229/414/832 230/157/833 309/413/834 310/415/835
f 230/157/836 231/158/837 308/411/838 309/413/839
f 231/158/840 232/159/841 307/409/842 308/411/843
f 232/159/844 233/160/845 306/406/846 307/409/847
f 233/160/848 234/161/849 305/404/850 306/406/851
f 234/161/852 235/162/853 304/400/854 305/404/855
f 235/162/856 236/163/857 303/399/858 304/400/859
f 236/163/860 237/401/861 302/403/862 303/399/863
f 311/444/864 327/213/865 359/441/866 344/443/867
s 1
f 291/457/868 286/456/869 288/461/870 289/462/871 290/463/872
s off
f 236/163/873 235/162/874 238/164/875 239/165/876
f 235/162/877 234/161/878 240/166/879 238/164/880
f 234/161/881 233/160/882 241/167/883 240/166/884
f 233/160/885 232/159/886 242/168/887 241/167/888
f 232/159/889 231/158/890 243/169/891 242/168/892
f 231/158/893 230/157/894 244/170/895 243/169/896
f 230/157/897 229/414/898 245/412/899 244/170/900
f 229/423/901 228/156/902 246/171/903 245/421/904
f 228/156/905 227/155/906 247/172/907 246/171/908
f 227/155/909 226/154/910 248/173/911 247/172/912
f 226/154/913 225/153/914 249/174/915 248/173/916
f 225/153/917 224/152/918 250/175/919 249/174/920
f 224/152/921 223/151/922 251/176/923 250/175/924
f 223/151/925 222/150/926 252/177/927 251/176/928
f 222/150/929 237/442/930 253/440/931 252/177/932
f 237/401/933 236/163/934 239/165/935 253/397/936
f 239/165/937 238/164/938 254/178/939 255/179/940
f 238/164/941 240/166/942 256/180/943 254/178/944
f 240/166/945 241/167/946 257/181/947 256/180/948
f 241/167/949 242/168/950 258/182/951 257/181/952
f 242/168/953 243/169/954 259/183/955 258/182/956
f 243/169/957 244/170/958 260/184/959 259/183/960
f 244/170/961 245/412/962 261/410/963 260/184/964
f 245/421/965 246/171/966 262/185/967 261/419/968
f 246/171/969 247/172/970 263/186/971 262/185/972
f 247/172/973 248/173/974 264/187/975 263/186/976
f 248/173/977 249/174/978 265/188/979 264/187/980
f 249/174/981 250/175/982 266/189/983 265/188/984
f 250/175/985 251/176/986 267/190/987 266/189/988
f 251/176/989 252/177/990 268/191/991 267/190/992
f 252/177/993 253/440/994 269/438/995 268/191/996
f 253/397/997 239/165/998 255/179/999 269/395/1000
f 255/179/1001 254/178/1002 270/192/1003 271/193/1004
f 254/178/1005 256/180/1006 272/194/1007 270/192/1008
f 256/180/1009 257/181/1010 273/195/1011 272/194/1012
f 257/181/1013 258/182/1014 274/196/1015 273/195/1016
f 258/182/1017 259/183/1018 275/197/1019 274/196/1020
f 259/183/1021 260/184/1022 276/198/1023 275/197/1024
f 260/184/1025 261/410/1026 277/407/1027 276/198/1028
f 261/419/1029 262/185/1030 278/199/1031 277/418/1032
f 262/185/1033 263/186/1034 279/200/1035 278/199/1036
f 263/186/1037 264/187/1038 280/201/1039 279/200/1040
f 264/187/1041 265/188/1042 281/202/1043 280/201/1044
f 265/188/1045 266/189/1046 282/203/1047 281/202/1048
f 266/189/1049 267/190/1050 283/204/1051 282/203/1052
f 267/190/1053 268/191/1054 284/205/1055 283/204/1056
f 268/191/1057 269/438/1058 285/435/1059 284/205/1060
f 269/395/1061 255/179/1062 271/193/1063 285/394/1064
f 271/193/1065 270/192/1066 286/390/1067 287/391/1068
f 270/192/1069 272/194/1070 288/392/1071 286/390/1072
f 272/194/1073 273/195/1074 289/396/1075 288/392/1076
f 273/195/1077 274/196/1078 290/398/1079 289/396/1080
f 274/196/1081 275/197/1082 291/402/1083 290/398/1084
f 275/197/1085 276/198/1086 292/405/1087 291/402/1088
f 276/198/1089 277/407/1090 293/408/1091 292/405/1092
f 277/418/1093 278/199/1094 294/416/1095 293/417/1096
f 278/199/1097 279/200/1098 295/420/1099 294/416/1100
f 279/200/1101 280/201/1102 296/422/1103 295/420/1104
f 280/201/1105 281/202/1106 297/424/1107 296/422/1108
f 281/202/1109 282/203/1110 298/426/1111 297/424/1112
f 282/203/1113 283/204/1114 299/428/1115 298/426/1116
f 283/204/1117 284/205/1118 300/433/1119 299/428/1120
f 284/205/1121 285/435/1122 301/436/1123 300/433/1124
f 285/394/1125 271/193/1126 287/391/1127 301/393/1128
f 228/156/1129 310/425/1130 319/427/1131 320/206/1132
f 227/155/1133 228/156/1134 320/206/1135
f 312/368/1136 311/370/1137 344/371/1138 345/369/1139
f 313/366/1140 312/368/1141 345/369/1142 346/367/1143
f 314/364/1144 313/366/1145 346/367/1146 347/365/1147
f 315/362/1148 314/364/1149 347/365/1150 348/363/1151
f 316/358/1152 315/362/1153 348/363/1154 349/359/1155
f 317/355/1156 316/358/1157 349/359/1158 350/356/1159
f 318/354/1160 317/355/1161 350/356/1162 351/357/1163
f 319/360/1164 318/354/1165 351/357/1166 352/361/1167
f 320/206/1168 319/427/1169 352/429/1170 353/430/1171
f 227/155/1172 320/206/1173 353/430/1174 354/431/1175
f 226/154/1176 227/155/1177 354/431/1178 355/432/1179
f 225/153/1180 226/154/1181 355/432/1182 356/434/1183
f 303/383/1184 302/381/1185 324/210/1186 325/211/1187
f 304/385/1188 303/383/1189 325/211/1190 326/212/1191
g pSphere2
f 305/387/1192 304/385/1193 326/212/1194 306/388/1195
g pSphere2 set3
f 302/381/1196 311/378/1197 323/209/1198 324/210/1199
f 311/378/1200 312/372/1201 322/208/1202 323/209/1203
f 312/372/1204 313/373/1205 321/207/1206 322/208/1207
g pSphere2
f 314/374/1208 315/375/1209 321/207/1210 313/373/1211
f 321/207/1212 315/375/1213 316/379/1214 317/376/1215
g pSphere2 set3
f 322/208/1216 321/207/1217 317/376/1218 318/377/1219
f 323/209/1220 322/208/1221 318/377/1222 319/380/1223
f 324/210/1224 323/209/1225 319/380/1226 310/382/1227
f 325/211/1228 324/210/1229 310/382/1230 309/384/1231
f 326/212/1232 325/211/1233 309/384/1234 308/386/1235
g pSphere2
f 306/388/1236 326/212/1237 308/386/1238 307/389/1239
g pSphere2 set3
f 302/445/1240 237/442/1241 222/150/1242
f 302/445/1243 222/150/1244 327/213/1245 311/444/1246
f 222/150/1247 223/151/1248 327/213/1249
f 329/242/1250 328/243/1251 108/244/1252 107/51/1253
f 330/246/1254 329/242/1255 107/51/1256 106/50/1257
f 331/248/1258 330/246/1259 106/50/1260 105/49/1261
f 332/250/1262 331/248/1263 105/49/1264 104/48/1265
f 333/252/1266 332/250/1267 104/48/1268 103/47/1269
f 334/254/1270 333/252/1271 103/47/1272 102/46/1273
f 335/256/1274 334/254/1275 102/46/1276 101/45/1277
f 336/258/1278 335/256/1279 101/45/1280 100/259/1281
f 337/281/1282 336/283/1283 100/284/1284 99/44/1285
f 338/279/1286 337/281/1287 99/44/1288 98/43/1289
f 339/277/1290 338/279/1291 98/43/1292 97/42/1293
f 340/275/1294 339/277/1295 97/42/1296 96/41/1297
f 341/273/1298 340/275/1299 96/41/1300 95/40/1301
f 342/271/1302 341/273/1303 95/40/1304 94/39/1305
f 343/269/1306 342/271/1307 94/39/1308 93/38/1309
f 328/268/1310 343/269/1311 93/38/1312 108/270/1313
f 361/214/1314 360/316/1315 362/317/1316 363/215/1317
f 364/216/1318 361/214/1319 363/215/1320 365/217/1321
f 366/218/1322 364/216/1323 365/217/1324 367/219/1325
f 368/220/1326 366/218/1327 367/219/1328 369/221/1329
f 370/222/1330 368/220/1331 369/221/1332 371/223/1333
f 372/224/1334 370/222/1335 371/223/1336 373/225/1337
f 374/226/1338 372/224/1339 373/225/1340 375/227/1341
f 376/335/1342 374/226/1343 375/227/1344 377/334/1345
f 378/228/1346 376/311/1347 377/313/1348 379/229/1349
f 380/230/1350 378/228/1351 379/229/1352 381/231/1353
f 382/232/1354 380/230/1355 381/231/1356 383/233/1357
f 384/234/1358 382/232/1359 383/233/1360 385/235/1361
f 386/236/1362 384/234/1363 385/235/1364 387/237/1365
f 388/238/1366 386/236/1367 387/237/1368 389/239/1369
f 390/240/1370 388/238/1371 389/239/1372 391/241/1373
f 360/296/1374 390/240/1375 391/241/1376 362/298/1377
f 345/318/1378 344/319/1379 360/316/1380 361/214/1381
f 328/320/1382 329/321/1383 363/215/1384 362/317/1385
f 346/322/1386 345/318/1387 361/214/1388 364/216/1389
f 329/321/1390 330/323/1391 365/217/1392 363/215/1393
f 347/324/1394 346/322/1395 364/216/1396 366/218/1397
f 330/323/1398 331/325/1399 367/219/1400 365/217/1401
f 348/326/1402 347/324/1403 366/218/1404 368/220/1405
f 331/325/1406 332/327/1407 369/221/1408 367/219/1409
f 349/328/1410 348/326/1411 368/220/1412 370/222/1413
f 332/327/1414 333/329/1415 371/223/1416 369/221/1417
f 350/330/1418 349/328/1419 370/222/1420 372/224/1421
f 333/329/1422 334/331/1423 373/225/1424 371/223/1425
f 351/332/1426 350/330/1427 372/224/1428 374/226/1429
f 334/331/1430 335/333/1431 375/227/1432 373/225/1433
f 352/336/1434 351/332/1435 374/226/1436 376/335/1437
f 335/333/1438 336/337/1439 377/334/1440 375/227/1441
f 353/308/1442 352/310/1443 376/311/1444 378/228/1445
f 336/315/1446 337/314/1447 379/229/1448 377/313/1449
f 354/306/1450 353/308/1451 378/228/1452 380/230/1453
f 337/314/1454 338/312/1455 381/231/1456 379/229/1457
f 355/304/1458 354/306/1459 380/230/1460 382/232/1461
f 338/312/1462 339/309/1463 383/233/1464 381/231/1465
f 356/302/1466 355/304/1467 382/232/1468 384/234/1469
f 339/309/1470 340/307/1471 385/235/1472 383/233/1473
f 357/299/1474 356/302/1475 384/234/1476 386/236/1477
f 340/307/1478 341/305/1479 387/237/1480 385/235/1481
f 358/297/1482 357/299/1483 386/236/1484 388/238/1485
f 341/305/1486 342/303/1487 389/239/1488 387/237/1489
f 359/295/1490 358/297/1491 388/238/1492 390/240/1493
f 342/303/1494 343/300/1495 391/241/1496 389/239/1497
f 344/294/1498 359/295/1499 390/240/1500 360/296/1501
f 343/300/1502 328/301/1503 362/298/1504 391/241/1505
s 1
f 301/446/1506 293/447/1507 294/448/1508 295/449/1509 299/450/1510 300/451/1511
f 287/455/1512 286/456/869 291/457/868 292/458/1513 293/459/1507 301/460/1506
f 299/450/1510 295/449/1509 296/452/1514 297/453/1515 298/454/1516
# h3dt: 391 533 1516 388
