# author: headus 3D tools
#  using: ply2obj v1.12
#   from: uvlayout v2024.02
# 17 vertices
v 0.4372240 0.6244750 0.1903870
v 0.3346370 0.6238630 0.0368550
v 0.1811041 0.6234540 -0.0657310
v 0.0000000 0.6233101 -0.1017550
v -0.1811039 0.6234540 -0.0657310
v -0.3346369 0.6238630 0.0368550
v -0.4372240 0.6244750 0.1903861
v -0.4732480 0.6251969 0.3714890
v -0.4372240 0.6259189 0.5525919
v -0.3346369 0.6265310 0.7061240
v -0.1811039 0.6269400 0.8087099
v 0.0000000 0.6270830 0.8447340
v 0.1811041 0.6269400 0.8087099
v 0.3346370 0.6265310 0.7061240
v 0.4372240 0.6259189 0.5525919
v 0.4732480 0.6251969 0.3714890
v 0.0000000 0.6251969 0.3714890
# 48 normals
vn 0.000000 0.999969 -0.003906
vn 0.000000 0.999969 -0.003906
vn 0.000000 0.999969 -0.003906
vn 0.000000 0.999969 -0.003906
vn 0.000000 0.999969 -0.003906
vn 0.000000 0.999969 -0.003906
vn 0.000000 0.999969 -0.003906
vn 0.000000 0.999969 -0.003906
vn 0.000000 0.999969 -0.003906
vn 0.000000 0.999969 -0.003906
vn 0.000000 0.999969 -0.003906
vn 0.000000 0.999969 -0.003906
vn 0.000000 0.999969 -0.003906
vn 0.000000 0.999969 -0.003906
vn 0.000000 0.999969 -0.003906
vn 0.000000 0.999969 -0.003906
vn 0.000000 0.999969 -0.003906
vn 0.000000 0.999969 -0.003906
vn 0.000000 0.999969 -0.003906
vn 0.000000 0.999969 -0.003906
vn 0.000000 0.999969 -0.003906
vn 0.000000 0.999969 -0.003906
vn 0.000000 0.999969 -0.003906
vn 0.000000 0.999969 -0.003906
vn 0.000000 0.999969 -0.003906
vn 0.000000 0.999969 -0.003906
vn 0.000000 0.999969 -0.003906
vn 0.000000 0.999969 -0.003906
vn 0.000000 0.999969 -0.003906
vn 0.000000 0.999969 -0.003906
vn 0.000000 0.999969 -0.003906
vn 0.000000 0.999969 -0.003906
vn 0.000000 0.999969 -0.003906
vn 0.000000 0.999969 -0.003906
vn 0.000000 0.999969 -0.003906
vn 0.000000 0.999969 -0.003906
vn 0.000000 0.999969 -0.003906
vn 0.000000 0.999969 -0.003906
vn 0.000000 0.999969 -0.003906
vn 0.000000 0.999969 -0.003906
vn 0.000000 0.999969 -0.003906
vn 0.000000 0.999969 -0.003906
vn 0.000000 0.999969 -0.003906
vn 0.000000 0.999969 -0.003906
vn 0.000000 0.999969 -0.003906
vn 0.000000 0.999969 -0.003906
vn 0.000000 0.999969 -0.003906
vn 0.000000 0.999969 -0.003906
# 17 uv coords
vt 0.499763 0.499762
vt 0.851088 0.851085
vt 0.689899 0.958788
vt 0.499765 0.996610
vt 0.958789 0.689895
vt 0.309629 0.958790
vt 0.996610 0.499761
vt 0.148441 0.851087
vt 0.958787 0.309625
vt 0.040737 0.689899
vt 0.851085 0.148437
vt 0.002916 0.499763
vt 0.689896 0.040736
vt 0.040735 0.309628
vt 0.499761 0.002916
vt 0.148438 0.148440
vt 0.309627 0.040738
# 16 polygons
s off
g pCylinder5
f 1/14/1 2/16/2 17/1/3
f 2/16/4 3/17/5 17/1/6
f 3/17/7 4/15/8 17/1/9
f 4/15/10 5/13/11 17/1/12
f 5/13/13 6/11/14 17/1/15
f 6/11/16 7/9/17 17/1/18
f 7/9/19 8/7/20 17/1/21
f 8/7/22 9/5/23 17/1/24
f 9/5/25 10/2/26 17/1/27
f 10/2/28 11/3/29 17/1/30
f 11/3/31 12/4/32 17/1/33
f 12/4/34 13/6/35 17/1/36
f 13/6/37 14/8/38 17/1/39
f 14/8/40 15/10/41 17/1/42
f 15/10/43 16/12/44 17/1/45
f 16/12/46 1/14/47 17/1/48
# h3dt: 17 17 48 16
